<svg width="41" height="40" viewBox="0 0 41 40" fill="none" xmlns="http://www.w3.org/2000/svg">
<g clip-path="url(#clip0_77_16479)">
<path d="M20.818 40C30.8596 40 38.9999 32.3249 38.9999 22.8571C38.9999 13.3894 30.8596 5.71428 20.818 5.71428C10.7765 5.71428 2.63623 13.3894 2.63623 22.8571C2.63623 32.3249 10.7765 40 20.818 40Z" fill="#E6E6E6"/>
<mask id="mask0_77_16479" style="mask-type:luminance" maskUnits="userSpaceOnUse" x="2" y="5" width="37" height="35">
<path d="M20.818 40C30.8596 40 38.9999 32.3249 38.9999 22.8571C38.9999 13.3894 30.8596 5.71428 20.818 5.71428C10.7765 5.71428 2.63623 13.3894 2.63623 22.8571C2.63623 32.3249 10.7765 40 20.818 40Z" fill="white"/>
</mask>
<g mask="url(#mask0_77_16479)">
<path d="M38.9999 5.71428H2.63623V40H38.9999V5.71428Z" fill="#65C9FF"/>
</g>
<mask id="mask1_77_16479" style="mask-type:luminance" maskUnits="userSpaceOnUse" x="1" y="0" width="40" height="40">
<path d="M2.81818 22.8571C2.81818 32.3249 10.9585 40 21 40C31.0415 40 39.1818 32.3249 39.1818 22.8571H41V0H1V22.8571H2.81818Z" fill="white"/>
</mask>
<g mask="url(#mask1_77_16479)">
<path d="M17.5378 21.4599V23.6448H18.0419C23.0529 23.6448 27.1152 27.475 27.1152 32.1997V33.2691H1.91138V32.1997C1.91138 27.475 5.97367 23.6448 10.9848 23.6448H11.4888V21.4599C9.3166 20.4869 7.75517 18.4984 7.49468 16.1452C6.76064 16.0473 6.19603 15.4526 6.19603 14.7335V13.07C6.19603 12.3635 6.74101 11.777 7.45623 11.6639V10.9313C7.45623 7.25647 10.6158 4.27745 14.5133 4.27745C18.4108 4.27745 21.5704 7.25647 21.5704 10.9313V11.6639C22.2856 11.777 22.8306 12.3635 22.8306 13.07V14.7335C22.8306 15.4526 22.266 16.0473 21.5319 16.1452C21.2714 18.4984 19.71 20.4869 17.5378 21.4599Z" fill="#D0C6AC"/>
<mask id="mask2_77_16479" style="mask-type:luminance" maskUnits="userSpaceOnUse" x="1" y="4" width="27" height="30">
<path d="M17.5378 21.4599V23.6448H18.0419C23.0529 23.6448 27.1152 27.475 27.1152 32.1997V33.2691H1.91138V32.1997C1.91138 27.475 5.97367 23.6448 10.9848 23.6448H11.4888V21.4599C9.3166 20.4869 7.75517 18.4984 7.49468 16.1452C6.76064 16.0473 6.19603 15.4526 6.19603 14.7335V13.07C6.19603 12.3635 6.74101 11.777 7.45623 11.6639V10.9313C7.45623 7.25647 10.6158 4.27745 14.5133 4.27745C18.4108 4.27745 21.5704 7.25647 21.5704 10.9313V11.6639C22.2856 11.777 22.8306 12.3635 22.8306 13.07V14.7335C22.8306 15.4526 22.266 16.0473 21.5319 16.1452C21.2714 18.4984 19.71 20.4869 17.5378 21.4599Z" fill="white"/>
</mask>
<g mask="url(#mask2_77_16479)">
<path d="M35.1805 4.27745H1.91138V37.5466H35.1805V4.27745Z" fill="#D08B5B"/>
</g>
<mask id="mask3_77_16479" style="mask-type:luminance" maskUnits="userSpaceOnUse" x="1" y="4" width="27" height="30">
<path d="M17.5378 21.4599V23.6448H18.0419C23.0529 23.6448 27.1152 27.475 27.1152 32.1997V33.2691H1.91138V32.1997C1.91138 27.475 5.97367 23.6448 10.9848 23.6448H11.4888V21.4599C9.3166 20.4869 7.75517 18.4984 7.49468 16.1452C6.76064 16.0473 6.19603 15.4526 6.19603 14.7335V13.07C6.19603 12.3635 6.74101 11.777 7.45623 11.6639V10.9313C7.45623 7.25647 10.6158 4.27745 14.5133 4.27745C18.4108 4.27745 21.5704 7.25647 21.5704 10.9313V11.6639C22.2856 11.777 22.8306 12.3635 22.8306 13.07V14.7335C22.8306 15.4526 22.266 16.0473 21.5319 16.1452C21.2714 18.4984 19.71 20.4869 17.5378 21.4599Z" fill="white"/>
</mask>
<g mask="url(#mask3_77_16479)">
<path fill-rule="evenodd" clip-rule="evenodd" d="M21.5705 13.6641V16.3969C21.5705 20.0717 18.4109 23.0507 14.5134 23.0507C10.6159 23.0507 7.4563 20.0717 7.4563 16.3969V13.6641V15.4464C7.4563 19.1212 10.6159 22.1002 14.5134 22.1002C18.4109 22.1002 21.5705 19.1212 21.5705 15.4464V13.6641Z" fill="black" fill-opacity="0.1"/>
</g>
<path fill-rule="evenodd" clip-rule="evenodd" d="M18.7506 23.6767C23.4304 24.0176 27.1152 27.706 27.1152 32.2059V33.2691H1.91138V32.2059C1.91138 27.665 5.66363 23.9505 10.4042 23.6682C10.3716 23.7962 10.3547 23.9272 10.3547 24.0607C10.3547 25.4716 12.2448 26.6153 14.5763 26.6153C16.9079 26.6153 18.798 25.4716 18.798 24.0607C18.798 23.9302 18.7818 23.8019 18.7506 23.6767L18.7506 23.6767Z" fill="#E6E6E6"/>
<mask id="mask4_77_16479" style="mask-type:luminance" maskUnits="userSpaceOnUse" x="1" y="23" width="27" height="11">
<path fill-rule="evenodd" clip-rule="evenodd" d="M18.7506 23.6767C23.4304 24.0176 27.1152 27.706 27.1152 32.2059V33.2691H1.91138V32.2059C1.91138 27.665 5.66363 23.9505 10.4042 23.6682C10.3716 23.7962 10.3547 23.9272 10.3547 24.0607C10.3547 25.4716 12.2448 26.6153 14.5763 26.6153C16.9079 26.6153 18.798 25.4716 18.798 24.0607C18.798 23.9302 18.7818 23.8019 18.7506 23.6767L18.7506 23.6767Z" fill="white"/>
</mask>
<g mask="url(#mask4_77_16479)">
<path d="M31.148 20.1991H-2.12109V33.2691H31.148V20.1991Z" fill="#262E33"/>
</g>
<mask id="mask5_77_16479" style="mask-type:luminance" maskUnits="userSpaceOnUse" x="1" y="23" width="27" height="11">
<path fill-rule="evenodd" clip-rule="evenodd" d="M18.7506 23.6767C23.4304 24.0176 27.1152 27.706 27.1152 32.2059V33.2691H1.91138V32.2059C1.91138 27.665 5.66363 23.9505 10.4042 23.6682C10.3716 23.7962 10.3547 23.9272 10.3547 24.0607C10.3547 25.4716 12.2448 26.6153 14.5763 26.6153C16.9079 26.6153 18.798 25.4716 18.798 24.0607C18.798 23.9302 18.7818 23.8019 18.7506 23.6767L18.7506 23.6767Z" fill="white"/>
</mask>
<g mask="url(#mask5_77_16479)">
<path fill-rule="evenodd" clip-rule="evenodd" d="M16.6981 29.234C16.6754 29.3573 16.6423 29.4799 16.5735 29.5891C16.4829 29.7331 16.3183 29.792 16.2229 29.924C16.0724 30.1322 16.2722 30.4321 16.1238 30.6176C15.9642 30.8171 15.6018 30.6963 15.4607 30.9611C15.3119 31.2404 15.5284 31.6137 15.3418 31.8915C15.1567 31.8477 15.0997 31.1921 14.814 31.6103C14.631 31.8781 14.7545 32.0232 14.4802 31.6382C14.3848 31.5045 14.2772 31.3845 14.09 31.4727C13.9585 31.5347 13.9314 31.8098 13.8115 31.8394C13.5175 31.912 13.5067 31.172 13.4067 31.0319C13.3518 30.9549 13.3006 30.9093 13.2029 30.8801C13.1182 30.8548 12.9674 30.9057 12.8973 30.8682C12.7657 30.7979 12.7479 30.5646 12.7429 30.4408C12.7336 30.2104 12.8155 29.9751 12.7479 29.7471C12.6911 29.5556 12.5101 29.4378 12.451 29.2501C12.1317 28.236 13.5915 27.6722 14.4251 27.6407C15.4006 27.6039 16.8242 28.1423 16.6981 29.234ZM16.9297 28.6024C16.7462 28.1935 16.3431 27.8685 15.9322 27.6504C15.7327 27.5445 15.5161 27.4664 15.2914 27.4199C15.0846 27.377 14.843 27.4052 14.6456 27.3513C14.4793 27.3058 14.3761 27.2037 14.1804 27.2096C13.9134 27.2177 13.636 27.3489 13.403 27.4574C12.9418 27.6722 12.5497 27.9504 12.3034 28.3775C12.039 28.8359 12.064 29.2515 12.3473 29.6788C12.6177 30.0868 12.2246 30.6605 12.6205 31.0482C12.7869 31.2113 12.9508 31.0924 13.1083 31.1709C13.2296 31.2313 13.2245 31.5823 13.2581 31.6852C13.4094 32.1477 13.953 32.3268 14.204 31.8267C14.3223 32.1062 14.7906 32.3927 15.0087 32.027C15.1449 32.1933 15.3809 32.2641 15.561 32.1215C15.7303 31.9874 15.749 31.6753 15.7576 31.4866C15.7644 31.3396 15.6949 31.1582 15.8148 31.052C15.9468 30.935 16.2173 30.9843 16.3654 30.8335C16.5343 30.6613 16.4649 30.4597 16.4779 30.2546C16.491 30.0471 16.5303 30.1 16.6934 29.9502C17.057 29.6162 17.1185 29.0226 16.9297 28.6024Z" fill="white"/>
<path fill-rule="evenodd" clip-rule="evenodd" d="M13.9363 30.5507C14.191 30.3342 14.1368 29.6717 14.1158 29.3674C14.0759 28.7898 13.6929 28.9624 13.4597 29.3221C13.2833 29.5943 12.859 30.0344 13.0493 30.3768C13.2008 30.6496 13.702 30.7494 13.9363 30.5507Z" fill="white"/>
<path fill-rule="evenodd" clip-rule="evenodd" d="M15.6212 29.4994C15.4908 29.2713 15.442 29.2367 15.2871 29.0497C15.1874 28.9296 15.0478 28.7168 14.8582 28.7596C14.5328 28.8332 14.6656 29.5452 14.6695 29.7579C14.6724 29.9192 14.6345 30.0864 14.7767 30.2009C14.9222 30.318 15.1614 30.3074 15.3362 30.2829C15.8728 30.2076 15.8481 29.8963 15.6212 29.4994Z" fill="white"/>
<path fill-rule="evenodd" clip-rule="evenodd" d="M14.5436 30.9914C14.5078 30.9872 14.5534 30.9483 14.5586 30.9217C14.5823 30.9946 14.5997 30.9981 14.5436 30.9914ZM14.6753 30.4792C14.3455 30.15 13.7208 31.2393 14.1611 31.3615C14.2626 31.3897 14.3375 31.3183 14.4327 31.3059C14.5713 31.2877 14.6877 31.3637 14.8074 31.2438C14.9953 31.0557 14.831 30.6381 14.6753 30.4792Z" fill="white"/>
</g>
<path fill-rule="evenodd" clip-rule="evenodd" d="M12.749 17.7039C12.749 18.6226 13.5389 19.3674 14.5133 19.3674C15.4877 19.3674 16.2776 18.6226 16.2776 17.7039" fill="black" fill-opacity="0.7"/>
<path fill-rule="evenodd" clip-rule="evenodd" d="M13.0012 15.4464C13.0012 15.9714 13.6783 16.3969 14.5135 16.3969C15.3486 16.3969 16.0257 15.9714 16.0257 15.4464" fill="black" fill-opacity="0.16"/>
<path d="M17.7901 14.7335C18.6252 14.7335 19.3023 14.0951 19.3023 13.3076C19.3023 12.5202 18.6252 11.8818 17.7901 11.8818C16.9549 11.8818 16.2778 12.5202 16.2778 13.3076C16.2778 14.0951 16.9549 14.7335 17.7901 14.7335Z" fill="white"/>
<path d="M17.7901 14.0206C18.2076 14.0206 18.5462 13.7014 18.5462 13.3077C18.5462 12.9139 18.2076 12.5947 17.7901 12.5947C17.3725 12.5947 17.0339 12.9139 17.0339 13.3077C17.0339 13.7014 17.3725 14.0206 17.7901 14.0206Z" fill="black" fill-opacity="0.7"/>
<path fill-rule="evenodd" clip-rule="evenodd" d="M9.49284 13.7173C9.72554 13.2659 10.2495 12.9512 10.8586 12.9512C11.4655 12.9512 11.9879 13.2637 12.2218 13.7125C12.2913 13.8458 12.1924 13.9549 12.0927 13.8741C11.7838 13.6237 11.3451 13.4673 10.8586 13.4673C10.3872 13.4673 9.96082 13.6141 9.65381 13.8509C9.54156 13.9374 9.42478 13.8493 9.49284 13.7173Z" fill="black" fill-opacity="0.6"/>
<path d="M9.42601 11.7818C9.91936 11.1273 11.2719 10.7603 12.437 11.03C12.5721 11.0613 12.7086 10.9834 12.7418 10.8559C12.775 10.7285 12.6924 10.5998 12.5572 10.5685C11.2042 10.2552 9.63795 10.6802 9.01512 11.5065C8.93449 11.6135 8.9611 11.7619 9.07456 11.8379C9.18802 11.9139 9.34537 11.8888 9.42601 11.7818Z" fill="black" fill-opacity="0.6"/>
<path d="M19.6008 11.7818C19.1075 11.1273 17.755 10.7603 16.5899 11.03C16.4547 11.0613 16.3182 10.9834 16.285 10.8559C16.2518 10.7285 16.3345 10.5998 16.4697 10.5685C17.8227 10.2552 19.3889 10.6802 20.0117 11.5065C20.0924 11.6135 20.0658 11.7619 19.9523 11.8379C19.8388 11.9139 19.6815 11.8888 19.6008 11.7818Z" fill="black" fill-opacity="0.6"/>
<mask id="mask6_77_16479" style="mask-type:luminance" maskUnits="userSpaceOnUse" x="-3" y="0" width="35" height="34">
<path d="M31.148 0H-2.12109V33.2691H31.148V0Z" fill="white"/>
</mask>
<g mask="url(#mask6_77_16479)">
<path fill-rule="evenodd" clip-rule="evenodd" d="M7.45642 11.6869V15.4464C7.45642 18.1007 9.10481 20.392 11.489 21.4599V23.0205C9.01435 23.34 7.03312 23.9019 5.61459 23.7637C3.82223 23.5891 2.85624 20.1748 2.79371 17.2287C2.71594 13.5648 6.36244 5.91657 7.70846 4.39629C8.70692 3.26856 11.4506 2.32299 14.5135 2.37638C17.5764 2.42977 20.419 3.06697 21.4446 4.27747C22.9976 6.11055 26.2168 13.0794 26.2333 17.2287C26.2451 20.1754 25.0314 23.1292 23.3349 23.2884C21.9386 23.4194 19.9923 23.1115 17.538 22.9316V21.4599C19.9222 20.392 21.5706 18.1007 21.5706 15.4464V12.1181C20.3707 11.5409 19.285 10.842 18.3135 10.0213C18.7178 10.6505 19.1572 11.1865 19.6315 11.6291C16.2269 10.7284 13.5186 9.2025 11.5068 7.05128C10.501 9.00757 9.1509 10.5528 7.45642 11.6869V11.6869Z" fill="#E6E6E6"/>
<mask id="mask7_77_16479" style="mask-type:luminance" maskUnits="userSpaceOnUse" x="2" y="2" width="25" height="22">
<path fill-rule="evenodd" clip-rule="evenodd" d="M7.45642 11.6869V15.4464C7.45642 18.1007 9.10481 20.392 11.489 21.4599V23.0205C9.01435 23.34 7.03312 23.9019 5.61459 23.7637C3.82223 23.5891 2.85624 20.1748 2.79371 17.2287C2.71594 13.5648 6.36244 5.91657 7.70846 4.39629C8.70692 3.26856 11.4506 2.32299 14.5135 2.37638C17.5764 2.42977 20.419 3.06697 21.4446 4.27747C22.9976 6.11055 26.2168 13.0794 26.2333 17.2287C26.2451 20.1754 25.0314 23.1292 23.3349 23.2884C21.9386 23.4194 19.9923 23.1115 17.538 22.9316V21.4599C19.9222 20.392 21.5706 18.1007 21.5706 15.4464V12.1181C20.3707 11.5409 19.285 10.842 18.3135 10.0213C18.7178 10.6505 19.1572 11.1865 19.6315 11.6291C16.2269 10.7284 13.5186 9.2025 11.5068 7.05128C10.501 9.00757 9.1509 10.5528 7.45642 11.6869V11.6869Z" fill="white"/>
</mask>
<g mask="url(#mask7_77_16479)">
<path d="M35.9366 2.25755H2.66748V35.5267H35.9366V2.25755Z" fill="#A55728"/>
</g>
<path fill-rule="evenodd" clip-rule="evenodd" d="M16.71 20.2191C16.3932 20.4917 16.0558 20.6143 15.6293 20.5286C15.5559 20.5138 15.2567 19.9893 14.5136 19.9893C13.7706 19.9893 13.4714 20.5138 13.398 20.5286C12.9715 20.6143 12.6341 20.4917 12.3173 20.2191C11.7219 19.7067 11.2267 19 11.5242 18.229C11.6793 17.8271 11.9315 17.3859 12.3903 17.2579C12.8803 17.1212 13.5681 17.2576 14.0619 17.1643C14.2218 17.134 14.3966 17.0802 14.5136 16.991C14.6307 17.0802 14.8055 17.134 14.9654 17.1643C15.4592 17.2576 16.147 17.1212 16.637 17.2579C17.0958 17.3859 17.348 17.8271 17.5031 18.229C17.8007 19 17.3055 19.7067 16.71 20.2191ZM21.581 11.6442C21.1512 12.6423 21.3172 13.8849 21.2376 14.9326C21.173 15.7842 20.9831 17.0606 20.1811 17.6106C19.771 17.8918 19.0244 18.3645 18.4886 18.2327C18.1197 18.1419 18.0803 17.1443 17.5955 16.7708C17.0456 16.3473 16.359 16.1612 15.6666 16.1899C15.3679 16.2023 14.7637 16.1994 14.5137 16.416C14.2636 16.1994 13.6595 16.2023 13.3607 16.1899C12.6684 16.1612 11.9817 16.3473 11.4318 16.7708C10.947 17.1443 10.9077 18.1419 10.5388 18.2327C10.0029 18.3645 9.25637 17.8918 8.8462 17.6106C8.04414 17.0606 7.85432 15.7842 7.78964 14.9326C7.71015 13.8849 7.87613 12.6423 7.44636 11.6442C7.23728 11.6442 7.37518 13.5606 7.37518 13.5606V15.9793C7.37917 17.7958 8.58258 20.5146 11.2508 21.5528C11.9033 21.8067 13.3814 22.219 14.5137 22.219C15.6459 22.219 17.124 21.8459 17.7765 21.592C20.4447 20.5539 21.6482 17.7958 21.6522 15.9793V13.5606C21.6522 13.5606 21.79 11.6442 21.581 11.6442Z" fill="#331B0C"/>
<mask id="mask8_77_16479" style="mask-type:luminance" maskUnits="userSpaceOnUse" x="7" y="11" width="15" height="12">
<path fill-rule="evenodd" clip-rule="evenodd" d="M16.71 20.2191C16.3932 20.4917 16.0558 20.6143 15.6293 20.5286C15.5559 20.5138 15.2567 19.9893 14.5136 19.9893C13.7706 19.9893 13.4714 20.5138 13.398 20.5286C12.9715 20.6143 12.6341 20.4917 12.3173 20.2191C11.7219 19.7067 11.2267 19 11.5242 18.229C11.6793 17.8271 11.9315 17.3859 12.3903 17.2579C12.8803 17.1212 13.5681 17.2576 14.0619 17.1643C14.2218 17.134 14.3966 17.0802 14.5136 16.991C14.6307 17.0802 14.8055 17.134 14.9654 17.1643C15.4592 17.2576 16.147 17.1212 16.637 17.2579C17.0958 17.3859 17.348 17.8271 17.5031 18.229C17.8007 19 17.3055 19.7067 16.71 20.2191ZM21.581 11.6442C21.1512 12.6423 21.3172 13.8849 21.2376 14.9326C21.173 15.7842 20.9831 17.0606 20.1811 17.6106C19.771 17.8918 19.0244 18.3645 18.4886 18.2327C18.1197 18.1419 18.0803 17.1443 17.5955 16.7708C17.0456 16.3473 16.359 16.1612 15.6666 16.1899C15.3679 16.2023 14.7637 16.1994 14.5137 16.416C14.2636 16.1994 13.6595 16.2023 13.3607 16.1899C12.6684 16.1612 11.9817 16.3473 11.4318 16.7708C10.947 17.1443 10.9077 18.1419 10.5388 18.2327C10.0029 18.3645 9.25637 17.8918 8.8462 17.6106C8.04414 17.0606 7.85432 15.7842 7.78964 14.9326C7.71015 13.8849 7.87613 12.6423 7.44636 11.6442C7.23728 11.6442 7.37518 13.5606 7.37518 13.5606V15.9793C7.37917 17.7958 8.58258 20.5146 11.2508 21.5528C11.9033 21.8067 13.3814 22.219 14.5137 22.219C15.6459 22.219 17.124 21.8459 17.7765 21.592C20.4447 20.5539 21.6482 17.7958 21.6522 15.9793V13.5606C21.6522 13.5606 21.79 11.6442 21.581 11.6442Z" fill="white"/>
</mask>
<g mask="url(#mask8_77_16479)">
<path d="M33.1644 8.55492H-0.104736V37.5466H33.1644V8.55492Z" fill="#A55728"/>
</g>
<g filter="url(#filter0_d_77_16479)">
<path fill-rule="evenodd" clip-rule="evenodd" d="M13.4695 13.367C13.4695 14.5199 12.4298 15.4548 10.6974 15.4548H10.3508C8.61841 15.4548 7.92529 14.5195 7.92529 13.367C7.92529 12.2139 8.08712 11.2792 10.5127 11.2792H10.8821C13.3077 11.2792 13.4695 12.2139 13.4695 13.367Z" fill="black" fill-opacity="0.7"/>
<path style="mix-blend-mode:screen" fill-rule="evenodd" clip-rule="evenodd" d="M13.4695 13.367C13.4695 14.5199 12.4298 15.4548 10.6974 15.4548H10.3508C8.61841 15.4548 7.92529 14.5195 7.92529 13.367C7.92529 12.2139 8.08712 11.2792 10.5127 11.2792H10.8821C13.3077 11.2792 13.4695 12.2139 13.4695 13.367Z" fill="url(#paint0_linear_77_16479)"/>
<path fill-rule="evenodd" clip-rule="evenodd" d="M21.2283 13.367C21.2283 14.5199 20.189 15.4548 18.4562 15.4548H18.1096C16.3772 15.4548 15.6841 14.5195 15.6841 13.367C15.6841 12.2139 15.8459 11.2792 18.2715 11.2792H18.6409C21.0661 11.2792 21.2283 12.2139 21.2283 13.367Z" fill="black" fill-opacity="0.7"/>
<path style="mix-blend-mode:screen" fill-rule="evenodd" clip-rule="evenodd" d="M21.2283 13.367C21.2283 14.5199 20.189 15.4548 18.4562 15.4548H18.1096C16.3772 15.4548 15.6841 14.5195 15.6841 13.367C15.6841 12.2139 15.8459 11.2792 18.2715 11.2792H18.6409C21.0661 11.2792 21.2283 12.2139 21.2283 13.367Z" fill="url(#paint1_linear_77_16479)"/>
<path d="M10.6972 15.8028H10.3507C8.60051 15.8028 7.55566 14.8922 7.55566 13.367C7.55566 12.1345 7.78399 10.9313 10.5125 10.9313H10.882C13.6105 10.9313 13.8388 12.1345 13.8388 13.367C13.8388 14.801 12.5471 15.8028 10.6972 15.8028ZM10.5125 11.6269C8.2946 11.6269 8.2946 12.3948 8.2946 13.367C8.2946 14.1608 8.65113 15.1069 10.3507 15.1069H10.6972C12.1119 15.1069 13.0999 14.3915 13.0999 13.367C13.0999 12.3948 13.0999 11.6269 10.882 11.6269H10.5125Z" fill="#252C2F"/>
<path d="M18.456 15.8028H18.1095C16.3593 15.8028 15.3145 14.8922 15.3145 13.367C15.3145 12.1345 15.5428 10.9313 18.2713 10.9313H18.6408C21.3693 10.9313 21.5976 12.1345 21.5976 13.367C21.5976 14.801 20.3059 15.8028 18.456 15.8028ZM18.2713 11.6269C16.0534 11.6269 16.0534 12.3948 16.0534 13.367C16.0534 14.1608 16.4103 15.1069 18.1095 15.1069H18.456C19.8707 15.1069 20.8587 14.3915 20.8587 13.367C20.8587 12.3948 20.8587 11.6269 18.6408 11.6269H18.2713Z" fill="#252C2F"/>
<path d="M6.81795 11.6272C6.90441 11.5458 7.85024 10.9313 10.5126 10.9313C12.7449 10.9313 13.2175 11.1547 13.9328 11.4922L13.9851 11.5171C14.0348 11.5341 14.2891 11.6174 14.5866 11.6265C14.8576 11.6153 15.0894 11.5445 15.1572 11.5218C15.9736 11.1389 16.7727 10.9313 18.6409 10.9313C21.3032 10.9313 22.2491 11.5458 22.3355 11.6272C22.5398 11.6272 22.705 11.7828 22.705 11.9752V12.3231C22.705 12.5156 22.5398 12.6711 22.3355 12.6711C22.3355 12.6711 21.5966 12.6711 21.5966 13.0191C21.5966 13.367 21.2271 12.5156 21.2271 12.3231V11.9842C20.7765 11.8179 19.9699 11.6272 18.6409 11.6272C17.1601 11.6272 16.4226 11.7616 15.79 12.013L15.7971 12.0295L15.4825 12.1492L15.7968 12.269L15.5195 12.914L15.177 12.7835C15.1464 12.7718 15.0805 12.7509 14.9889 12.7291C14.7338 12.6684 14.4716 12.65 14.2396 12.6959C14.1545 12.7127 14.0756 12.738 14.0031 12.7721L13.6727 12.9278L13.3421 12.3054L13.6725 12.1497L13.6733 12.1494L13.3568 12.0288L13.3669 12.0053C12.8213 11.7601 12.3182 11.6272 10.5126 11.6272C9.1836 11.6272 8.37702 11.8178 7.92635 11.9841V12.3231C7.92635 12.5156 7.55688 13.367 7.55688 13.0191C7.55688 12.6711 6.81795 12.6711 6.81795 12.6711C6.61401 12.6711 6.44849 12.5156 6.44849 12.3231V11.9752C6.44849 11.7828 6.61401 11.6272 6.81795 11.6272Z" fill="#252C2F"/>
</g>
</g>
<path d="M31.8456 28.3167V30.6179H32.3765C37.6544 30.6179 41.9329 34.652 41.9329 39.6283V40.7546H15.3872V39.6283C15.3872 34.652 19.6658 30.6179 24.9437 30.6179H25.4746V28.3167C23.1867 27.2919 21.5421 25.1976 21.2678 22.719C20.4946 22.6159 19.9 21.9895 19.9 21.2321V19.4801C19.9 18.736 20.474 18.1183 21.2273 17.9991V17.2275C21.2273 13.3571 24.555 10.2195 28.6601 10.2195C32.7651 10.2195 36.0929 13.3571 36.0929 17.2275V17.9991C36.8462 18.1183 37.4202 18.736 37.4202 19.4801V21.2321C37.4202 21.9895 36.8255 22.6159 36.0524 22.719C35.778 25.1976 34.1334 27.2919 31.8456 28.3167Z" fill="#D0C6AC"/>
<mask id="mask9_77_16479" style="mask-type:luminance" maskUnits="userSpaceOnUse" x="15" y="10" width="27" height="31">
<path d="M31.8456 28.3167V30.6179H32.3765C37.6544 30.6179 41.9329 34.652 41.9329 39.6283V40.7546H15.3872V39.6283C15.3872 34.652 19.6658 30.6179 24.9437 30.6179H25.4746V28.3167C23.1867 27.2919 21.5421 25.1976 21.2678 22.719C20.4946 22.6159 19.9 21.9895 19.9 21.2321V19.4801C19.9 18.736 20.474 18.1183 21.2273 17.9991V17.2275C21.2273 13.3571 24.555 10.2195 28.6601 10.2195C32.7651 10.2195 36.0929 13.3571 36.0929 17.2275V17.9991C36.8462 18.1183 37.4202 18.736 37.4202 19.4801V21.2321C37.4202 21.9895 36.8255 22.6159 36.0524 22.719C35.778 25.1976 34.1334 27.2919 31.8456 28.3167Z" fill="white"/>
</mask>
<g mask="url(#mask9_77_16479)">
<path d="M50.4276 10.2195H15.3872V45.2598H50.4276V10.2195Z" fill="#FD9841"/>
</g>
<mask id="mask10_77_16479" style="mask-type:luminance" maskUnits="userSpaceOnUse" x="15" y="10" width="27" height="31">
<path d="M31.8456 28.3167V30.6179H32.3765C37.6544 30.6179 41.9329 34.652 41.9329 39.6283V40.7546H15.3872V39.6283C15.3872 34.652 19.6658 30.6179 24.9437 30.6179H25.4746V28.3167C23.1867 27.2919 21.5421 25.1976 21.2678 22.719C20.4946 22.6159 19.9 21.9895 19.9 21.2321V19.4801C19.9 18.736 20.474 18.1183 21.2273 17.9991V17.2275C21.2273 13.3571 24.555 10.2195 28.6601 10.2195C32.7651 10.2195 36.0929 13.3571 36.0929 17.2275V17.9991C36.8462 18.1183 37.4202 18.736 37.4202 19.4801V21.2321C37.4202 21.9895 36.8255 22.6159 36.0524 22.719C35.778 25.1976 34.1334 27.2919 31.8456 28.3167Z" fill="white"/>
</mask>
<g mask="url(#mask10_77_16479)">
<path fill-rule="evenodd" clip-rule="evenodd" d="M36.0929 20.1059V22.9842C36.0929 26.8546 32.7651 29.9922 28.6601 29.9922C24.5551 29.9922 21.2273 26.8546 21.2273 22.9842V20.1059V21.983C21.2273 25.8535 24.5551 28.9911 28.6601 28.9911C32.7651 28.9911 36.0929 25.8535 36.0929 21.983V20.1059Z" fill="black" fill-opacity="0.1"/>
</g>
<path fill-rule="evenodd" clip-rule="evenodd" d="M23.6167 30.7041V36.2494H33.7041V30.7041C34.9468 30.8669 36.1131 31.255 37.155 31.8233L37.155 40.7546H35.9605H21.3603H20.1658V31.8233C21.2077 31.255 22.374 30.8669 23.6167 30.7041Z" fill="#B7C1DB"/>
<mask id="mask11_77_16479" style="mask-type:luminance" maskUnits="userSpaceOnUse" x="20" y="30" width="18" height="11">
<path fill-rule="evenodd" clip-rule="evenodd" d="M23.6167 30.7041V36.2494H33.7041V30.7041C34.9468 30.8669 36.1131 31.255 37.155 31.8233L37.155 40.7546H35.9605H21.3603H20.1658V31.8233C21.2077 31.255 22.374 30.8669 23.6167 30.7041Z" fill="white"/>
</mask>
<g mask="url(#mask11_77_16479)">
<path d="M46.1805 26.9888H11.1401V40.7546H46.1805V26.9888Z" fill="#929598"/>
</g>
<path d="M21.8909 38.0015C22.2575 38.0015 22.5546 37.7213 22.5546 37.3757C22.5546 37.0302 22.2575 36.75 21.8909 36.75C21.5244 36.75 21.2273 37.0302 21.2273 37.3757C21.2273 37.7213 21.5244 38.0015 21.8909 38.0015Z" fill="#F4F4F4"/>
<path d="M35.4295 38.0015C35.796 38.0015 36.0932 37.7213 36.0932 37.3757C36.0932 37.0302 35.796 36.75 35.4295 36.75C35.063 36.75 34.7659 37.0302 34.7659 37.3757C34.7659 37.7213 35.063 38.0015 35.4295 38.0015Z" fill="#F4F4F4"/>
<path d="M26.8022 24.4859C26.8022 25.1581 27.6196 25.6122 28.6604 25.6122C29.7013 25.6122 30.5186 25.1581 30.5186 24.4859C30.5186 24.3477 30.3926 24.2356 30.2532 24.2356C30.0816 24.2356 30.005 24.3489 29.9877 24.4859C29.8228 24.8536 29.4148 25.0761 28.6604 25.1116C27.9061 25.0761 27.4981 24.8536 27.3332 24.4859C27.3159 24.3489 27.2393 24.2356 27.0677 24.2356C26.9283 24.2356 26.8022 24.3477 26.8022 24.4859Z" fill="black" fill-opacity="0.6"/>
<path fill-rule="evenodd" clip-rule="evenodd" d="M27.0676 21.983C27.0676 22.5359 27.7807 22.9842 28.6604 22.9842C29.54 22.9842 30.2531 22.5359 30.2531 21.983" fill="black" fill-opacity="0.16"/>
<path d="M25.2092 20.4813C25.649 20.4813 26.0056 20.1451 26.0056 19.7304C26.0056 19.3157 25.649 18.9796 25.2092 18.9796C24.7694 18.9796 24.4128 19.3157 24.4128 19.7304C24.4128 20.1451 24.7694 20.4813 25.2092 20.4813Z" fill="black" fill-opacity="0.6"/>
<path d="M32.1113 20.4813C32.5511 20.4813 32.9077 20.1451 32.9077 19.7304C32.9077 19.3157 32.5511 18.9796 32.1113 18.9796C31.6715 18.9796 31.3149 19.3157 31.3149 19.7304C31.3149 20.1451 31.6715 20.4813 32.1113 20.4813Z" fill="black" fill-opacity="0.6"/>
<path d="M23.2968 17.7484C23.8936 16.9567 25.1566 16.5584 26.4499 16.9517C26.5894 16.9941 26.739 16.9218 26.784 16.7903C26.829 16.6587 26.7524 16.5177 26.6128 16.4753C25.0986 16.0149 23.5947 16.489 22.864 17.4584C22.7791 17.5711 22.8071 17.7273 22.9266 17.8074C23.0461 17.8875 23.2119 17.861 23.2968 17.7484Z" fill="black" fill-opacity="0.6"/>
<path d="M34.0196 18.6239C33.5 17.9345 32.0754 17.5479 30.8484 17.832C30.706 17.865 30.5622 17.7829 30.5272 17.6487C30.4923 17.5144 30.5794 17.3789 30.7217 17.3459C32.1468 17.0159 33.7964 17.4636 34.4524 18.3339C34.5373 18.4466 34.5093 18.6028 34.3898 18.6829C34.2703 18.763 34.1045 18.7365 34.0196 18.6239Z" fill="black" fill-opacity="0.6"/>
<mask id="mask12_77_16479" style="mask-type:luminance" maskUnits="userSpaceOnUse" x="11" y="5" width="36" height="36">
<path d="M46.1805 5.71428H11.1401V40.7546H46.1805V5.71428Z" fill="white"/>
</mask>
<g mask="url(#mask12_77_16479)">
<path fill-rule="evenodd" clip-rule="evenodd" d="M19.104 27.3067V16.2322C19.104 15.7901 19.1568 15.3597 19.2568 14.9463C19.6621 12.4385 21.1978 10.4461 22.9531 9.21832C25.595 7.37124 30.0464 6.8383 31.5867 9.03337C32.735 8.55268 34.4366 8.99082 35.695 10.0943C36.9646 11.2726 37.9779 13.8734 37.375 16.0016C37.3889 16.16 37.396 16.3201 37.396 16.4818V19.2163C37.279 18.5939 36.7554 18.1039 36.0932 17.9992V17.9784C35.292 15.2833 32.9382 14.0464 31.5047 12.8196C29.2624 15.1843 22.2659 15.1927 19.9003 19.8556V21.107C19.9003 21.8602 20.4884 22.4839 21.2553 22.5921C21.4867 25.126 23.1481 27.2745 25.4749 28.3167V28.3654C25.8639 33.8536 24.5934 40.7293 16.3167 38.6272C18.1225 37.6308 19.0785 31.2506 19.104 27.3067ZM31.8459 28.3167C34.1727 27.2745 35.8341 25.126 36.0655 22.5921C36.7408 22.4968 37.2774 22.0019 37.396 21.3708V21.5413C37.396 23.5221 37.8947 25.4746 38.8511 27.2383L42.4279 33.8343C43.3521 35.5386 43.0808 37.5226 41.9055 38.9362C41.5306 34.2833 37.4077 30.618 32.3768 30.618H31.8459V28.3167Z" fill="#272C2E"/>
<mask id="mask13_77_16479" style="mask-type:luminance" maskUnits="userSpaceOnUse" x="16" y="7" width="27" height="33">
<path fill-rule="evenodd" clip-rule="evenodd" d="M19.104 27.3067V16.2322C19.104 15.7901 19.1568 15.3597 19.2568 14.9463C19.6621 12.4385 21.1978 10.4461 22.9531 9.21832C25.595 7.37124 30.0464 6.8383 31.5867 9.03337C32.735 8.55268 34.4366 8.99082 35.695 10.0943C36.9646 11.2726 37.9779 13.8734 37.375 16.0016C37.3889 16.16 37.396 16.3201 37.396 16.4818V19.2163C37.279 18.5939 36.7554 18.1039 36.0932 17.9992V17.9784C35.292 15.2833 32.9382 14.0464 31.5047 12.8196C29.2624 15.1843 22.2659 15.1927 19.9003 19.8556V21.107C19.9003 21.8602 20.4884 22.4839 21.2553 22.5921C21.4867 25.126 23.1481 27.2745 25.4749 28.3167V28.3654C25.8639 33.8536 24.5934 40.7293 16.3167 38.6272C18.1225 37.6308 19.0785 31.2506 19.104 27.3067ZM31.8459 28.3167C34.1727 27.2745 35.8341 25.126 36.0655 22.5921C36.7408 22.4968 37.2774 22.0019 37.396 21.3708V21.5413C37.396 23.5221 37.8947 25.4746 38.8511 27.2383L42.4279 33.8343C43.3521 35.5386 43.0808 37.5226 41.9055 38.9362C41.5306 34.2833 37.4077 30.618 32.3768 30.618H31.8459V28.3167Z" fill="white"/>
</mask>
<g mask="url(#mask13_77_16479)">
<path d="M51.357 7.5912H16.3167V42.6315H51.357V7.5912Z" fill="#E8E1E1"/>
</g>
<path fill-rule="evenodd" clip-rule="evenodd" d="M19.9001 19.8556C22.2657 15.809 29.2622 15.8018 31.5046 13.7496C32.9351 14.8121 35.2823 15.634 36.0881 17.962C35.2823 15.2783 32.9351 14.0439 31.5046 12.8196C29.2622 15.1844 22.2657 15.1927 19.9001 19.8556Z" fill="black" fill-opacity="0.16"/>
</g>
</g>
</g>
<defs>
<filter id="filter0_d_77_16479" x="6.44849" y="10.9313" width="16.2566" height="6.87155" filterUnits="userSpaceOnUse" color-interpolation-filters="sRGB">
<feFlood flood-opacity="0" result="BackgroundImageFix"/>
<feColorMatrix in="SourceAlpha" type="matrix" values="0 0 0 0 0 0 0 0 0 0 0 0 0 0 0 0 0 0 127 0" result="hardAlpha"/>
<feOffset dy="2"/>
<feColorMatrix type="matrix" values="0 0 0 0 0 0 0 0 0 0 0 0 0 0 0 0 0 0 0.2 0"/>
<feBlend mode="normal" in2="BackgroundImageFix" result="effect1_dropShadow_77_16479"/>
<feBlend mode="normal" in="SourceGraphic" in2="effect1_dropShadow_77_16479" result="shape"/>
</filter>
<linearGradient id="paint0_linear_77_16479" x1="285.135" y1="11.2792" x2="285.135" y2="428.84" gradientUnits="userSpaceOnUse">
<stop stop-color="white" stop-opacity="0.5"/>
<stop offset="0.705058" stop-opacity="0.5"/>
</linearGradient>
<linearGradient id="paint1_linear_77_16479" x1="292.894" y1="11.2792" x2="292.894" y2="428.84" gradientUnits="userSpaceOnUse">
<stop stop-color="white" stop-opacity="0.5"/>
<stop offset="0.705058" stop-opacity="0.5"/>
</linearGradient>
<clipPath id="clip0_77_16479">
<rect width="40" height="40" fill="white" transform="translate(0.818115)"/>
</clipPath>
</defs>
</svg>
