<svg width="40" height="40" viewBox="0 0 40 40" fill="none" xmlns="http://www.w3.org/2000/svg">
<g clip-path="url(#clip0_2_194)">
<path d="M19.9999 40C30.0415 40 38.1818 32.3249 38.1818 22.8572C38.1818 13.3894 30.0415 5.71429 19.9999 5.71429C9.95839 5.71429 1.81812 13.3894 1.81812 22.8572C1.81812 32.3249 9.95839 40 19.9999 40Z" fill="#E6E6E6"/>
<mask id="mask0_2_194" style="mask-type:luminance" maskUnits="userSpaceOnUse" x="1" y="5" width="38" height="35">
<path d="M19.9999 40C30.0415 40 38.1818 32.3249 38.1818 22.8572C38.1818 13.3894 30.0415 5.71429 19.9999 5.71429C9.95839 5.71429 1.81812 13.3894 1.81812 22.8572C1.81812 32.3249 9.95839 40 19.9999 40Z" fill="white"/>
</mask>
<g mask="url(#mask0_2_194)">
<path d="M38.1818 5.71429H1.81812V40H38.1818V5.71429Z" fill="#65C9FF"/>
</g>
<mask id="mask1_2_194" style="mask-type:luminance" maskUnits="userSpaceOnUse" x="0" y="0" width="40" height="40">
<path d="M1.81818 22.8571C1.81818 32.3249 9.95846 40 20 40C30.0415 40 38.1818 32.3249 38.1818 22.8571H40V0H0V22.8571H1.81818Z" fill="white"/>
</mask>
<g mask="url(#mask1_2_194)">
<path d="M23.6363 25.8016V28.4286H24.2423C30.2673 28.4286 35.1514 33.0336 35.1514 38.7143V40H4.84839V38.7143C4.84839 33.0336 9.73256 28.4286 15.7575 28.4286H16.3635V25.8016C13.7518 24.6318 11.8745 22.241 11.5613 19.4116C10.6787 19.294 9.9999 18.5789 9.9999 17.7143V15.7143C9.9999 14.8649 10.6551 14.1597 11.5151 14.0237V13.1429C11.5151 8.72458 15.3139 5.14285 19.9999 5.14285C24.686 5.14285 28.4848 8.72458 28.4848 13.1429V14.0237C29.3447 14.1597 29.9999 14.8649 29.9999 15.7143V17.7143C29.9999 18.5789 29.3211 19.294 28.4385 19.4116C28.1253 22.241 26.248 24.6318 23.6363 25.8016Z" fill="#D0C6AC"/>
<mask id="mask2_2_194" style="mask-type:luminance" maskUnits="userSpaceOnUse" x="4" y="5" width="32" height="35">
<path d="M23.6363 25.8016V28.4286H24.2423C30.2673 28.4286 35.1514 33.0336 35.1514 38.7143V40H4.84839V38.7143C4.84839 33.0336 9.73256 28.4286 15.7575 28.4286H16.3635V25.8016C13.7518 24.6318 11.8745 22.241 11.5613 19.4116C10.6787 19.294 9.9999 18.5789 9.9999 17.7143V15.7143C9.9999 14.8649 10.6551 14.1597 11.5151 14.0237V13.1429C11.5151 8.72458 15.3139 5.14285 19.9999 5.14285C24.686 5.14285 28.4848 8.72458 28.4848 13.1429V14.0237C29.3447 14.1597 29.9999 14.8649 29.9999 15.7143V17.7143C29.9999 18.5789 29.3211 19.294 28.4385 19.4116C28.1253 22.241 26.248 24.6318 23.6363 25.8016Z" fill="white"/>
</mask>
<g mask="url(#mask2_2_194)">
<path d="M44.8484 5.14285H4.84839V45.1429H44.8484V5.14285Z" fill="#EDB98A"/>
</g>
<mask id="mask3_2_194" style="mask-type:luminance" maskUnits="userSpaceOnUse" x="4" y="5" width="32" height="35">
<path d="M23.6363 25.8016V28.4286H24.2423C30.2673 28.4286 35.1514 33.0336 35.1514 38.7143V40H4.84839V38.7143C4.84839 33.0336 9.73256 28.4286 15.7575 28.4286H16.3635V25.8016C13.7518 24.6318 11.8745 22.241 11.5613 19.4116C10.6787 19.294 9.9999 18.5789 9.9999 17.7143V15.7143C9.9999 14.8649 10.6551 14.1597 11.5151 14.0237V13.1429C11.5151 8.72458 15.3139 5.14285 19.9999 5.14285C24.686 5.14285 28.4848 8.72458 28.4848 13.1429V14.0237C29.3447 14.1597 29.9999 14.8649 29.9999 15.7143V17.7143C29.9999 18.5789 29.3211 19.294 28.4385 19.4116C28.1253 22.241 26.248 24.6318 23.6363 25.8016Z" fill="white"/>
</mask>
<g mask="url(#mask3_2_194)">
<path fill-rule="evenodd" clip-rule="evenodd" d="M28.4848 16.4286V19.7143C28.4848 24.1326 24.686 27.7143 20 27.7143C15.3139 27.7143 11.5151 24.1326 11.5151 19.7143V16.4286V18.5714C11.5151 22.9897 15.3139 26.5714 20 26.5714C24.686 26.5714 28.4848 22.9897 28.4848 18.5714V16.4286Z" fill="black" fill-opacity="0.1"/>
</g>
<path fill-rule="evenodd" clip-rule="evenodd" d="M25.1454 28.4707C30.7479 28.9036 35.1514 33.3278 35.1514 38.7217V40H4.84839V38.7217C4.84839 33.2789 9.33202 28.8236 15.0068 28.4599C15.0022 28.5133 14.9999 28.567 14.9999 28.6211C14.9999 30.3158 17.2724 31.6897 20.0757 31.6897C22.8789 31.6897 25.1514 30.3158 25.1514 28.6211C25.1514 28.5707 25.1494 28.5205 25.1454 28.4707Z" fill="#E6E6E6"/>
<mask id="mask4_2_194" style="mask-type:luminance" maskUnits="userSpaceOnUse" x="4" y="28" width="32" height="12">
<path fill-rule="evenodd" clip-rule="evenodd" d="M25.1454 28.4707C30.7479 28.9036 35.1514 33.3278 35.1514 38.7217V40H4.84839V38.7217C4.84839 33.2789 9.33202 28.8236 15.0068 28.4599C15.0022 28.5133 14.9999 28.567 14.9999 28.6211C14.9999 30.3158 17.2724 31.6897 20.0757 31.6897C22.8789 31.6897 25.1514 30.3158 25.1514 28.6211C25.1514 28.5707 25.1494 28.5205 25.1454 28.4707Z" fill="white"/>
</mask>
<g mask="url(#mask4_2_194)">
<path d="M40 24.2857H0V40H40V24.2857Z" fill="#262E33"/>
</g>
<mask id="mask5_2_194" style="mask-type:luminance" maskUnits="userSpaceOnUse" x="4" y="28" width="32" height="12">
<path fill-rule="evenodd" clip-rule="evenodd" d="M25.1454 28.4707C30.7479 28.9036 35.1514 33.3278 35.1514 38.7217V40H4.84839V38.7217C4.84839 33.2789 9.33202 28.8236 15.0068 28.4599C15.0022 28.5133 14.9999 28.567 14.9999 28.6211C14.9999 30.3158 17.2724 31.6897 20.0757 31.6897C22.8789 31.6897 25.1514 30.3158 25.1514 28.6211C25.1514 28.5707 25.1494 28.5205 25.1454 28.4707Z" fill="white"/>
</mask>
<g mask="url(#mask5_2_194)">
<g opacity="0.6">
<path d="M20.0756 32.6802C23.3923 32.6802 26.0809 30.9588 26.0809 28.8354C26.0809 26.7119 23.3923 24.9905 20.0756 24.9905C16.759 24.9905 14.0703 26.7119 14.0703 28.8354C14.0703 30.9588 16.759 32.6802 20.0756 32.6802Z" fill="black" fill-opacity="0.16"/>
</g>
</g>
<path fill-rule="evenodd" clip-rule="evenodd" d="M15.2703 28.446C9.47147 28.6863 4.84839 33.1949 4.84839 38.7217L4.84839 40H15.3577C14.8424 38.2743 14.5454 36.2441 14.5454 34.0714C14.5454 32.0247 14.809 30.1044 15.2703 28.446ZM24.7936 40H35.1514V38.7217C35.1514 33.2438 30.6097 28.7661 24.883 28.4534C25.3431 30.1101 25.606 32.0277 25.606 34.0714C25.606 36.2441 25.3089 38.2743 24.7936 40Z" fill="#3A4C5A"/>
<path fill-rule="evenodd" clip-rule="evenodd" d="M27.4241 36.5714L28.8719 35.5476C29.0906 35.393 29.3919 35.3955 29.6077 35.5537L30.6059 36.2857L27.4241 36.5714Z" fill="#E6E6E6"/>
<path fill-rule="evenodd" clip-rule="evenodd" d="M15.303 28.2857C14.697 31.0476 14.9495 34.9524 16.0606 40H13.6363L11.5151 34.8571L12.4242 33.5714L11.5151 32.7143L14.3939 28.4286C14.7011 28.3385 15.0042 28.2908 15.303 28.2857Z" fill="#2F4351"/>
<path fill-rule="evenodd" clip-rule="evenodd" d="M24.697 28.2857C25.303 31.0476 25.0505 34.9524 23.9394 40H26.3637L28.4849 34.8571L27.5758 33.5714L28.4849 32.7143L25.6061 28.4286C25.2989 28.3385 24.9958 28.2908 24.697 28.2857Z" fill="#2F4351"/>
<path fill-rule="evenodd" clip-rule="evenodd" d="M17.8787 21.2857C17.8787 22.3903 18.8284 23.2857 19.9999 23.2857C21.1714 23.2857 22.1211 22.3903 22.1211 21.2857" fill="black" fill-opacity="0.7"/>
<path fill-rule="evenodd" clip-rule="evenodd" d="M18.1816 18.5714C18.1816 19.2026 18.9957 19.7143 19.9998 19.7143C21.004 19.7143 21.818 19.2026 21.818 18.5714" fill="black" fill-opacity="0.16"/>
<path d="M16.0605 16.8571C16.5625 16.8571 16.9695 16.4734 16.9695 16C16.9695 15.5266 16.5625 15.1429 16.0605 15.1429C15.5584 15.1429 15.1514 15.5266 15.1514 16C15.1514 16.4734 15.5584 16.8571 16.0605 16.8571Z" fill="black" fill-opacity="0.6"/>
<path d="M23.9394 16.8571C24.4414 16.8571 24.8485 16.4734 24.8485 16C24.8485 15.5266 24.4414 15.1429 23.9394 15.1429C23.4373 15.1429 23.0303 15.5266 23.0303 16C23.0303 16.4734 23.4373 16.8571 23.9394 16.8571Z" fill="black" fill-opacity="0.6"/>
<path d="M13.8833 14.1655C14.4765 13.3786 16.1027 12.9373 17.5034 13.2616C17.666 13.2992 17.8301 13.2055 17.87 13.0523C17.9099 12.899 17.8105 12.7443 17.648 12.7067C16.0212 12.33 14.1381 12.841 13.3893 13.8345C13.2924 13.9631 13.3243 14.1415 13.4608 14.2329C13.5972 14.3243 13.7864 14.2941 13.8833 14.1655Z" fill="black" fill-opacity="0.6"/>
<path d="M26.1167 14.1655C25.5235 13.3786 23.8973 12.9373 22.4966 13.2616C22.334 13.2992 22.1699 13.2055 22.13 13.0523C22.0901 12.899 22.1895 12.7443 22.352 12.7067C23.9788 12.33 25.8619 12.841 26.6107 13.8345C26.7076 13.9631 26.6757 14.1415 26.5392 14.2329C26.4028 14.3243 26.2136 14.2941 26.1167 14.1655Z" fill="black" fill-opacity="0.6"/>
<mask id="mask6_2_194" style="mask-type:luminance" maskUnits="userSpaceOnUse" x="0" y="0" width="40" height="40">
<path d="M40 0H0V40H40V0Z" fill="white"/>
</mask>
<g mask="url(#mask6_2_194)">
<path fill-rule="evenodd" clip-rule="evenodd" d="M29.0161 14.1907C29.6005 14.4758 30 15.0511 30 15.7143V17.5714C30 18.4312 29.3286 19.1432 28.4532 19.2668C28.1891 22.1593 26.2925 24.6119 23.6363 25.8016V28.4286H24.2424C26.8925 28.4286 29.322 29.3196 31.2121 30.8012V13.1429C31.2121 10.2237 29.9571 7.58079 27.9281 5.66774C25.8991 3.75469 23.0961 2.57144 20 2.57144C13.8077 2.57144 8.78784 7.30443 8.78784 13.1429V39.3881C10.8438 39.1108 12.4242 37.4437 12.4242 35.4286V28.9176C13.4749 28.6 14.595 28.4286 15.7575 28.4286H16.3636V25.8016C14.6625 25.0396 13.2729 23.7597 12.4242 22.178V13.3237C13.8101 12.8987 15.2693 12.2882 16.7184 11.4993C19.0522 10.2289 20.9744 8.70586 22.2827 7.19959C22.5501 7.94218 22.9053 8.68587 23.35 9.41213C24.6784 11.5815 26.5491 13.1763 28.4848 13.9882V14.0237C28.5455 14.0333 28.6051 14.0457 28.6636 14.0609C28.781 14.1071 28.8985 14.1504 29.0161 14.1907Z" fill="#944F23"/>
<mask id="mask7_2_194" style="mask-type:luminance" maskUnits="userSpaceOnUse" x="8" y="2" width="24" height="38">
<path fill-rule="evenodd" clip-rule="evenodd" d="M29.0161 14.1907C29.6005 14.4758 30 15.0511 30 15.7143V17.5714C30 18.4312 29.3286 19.1432 28.4532 19.2668C28.1891 22.1593 26.2925 24.6119 23.6363 25.8016V28.4286H24.2424C26.8925 28.4286 29.322 29.3196 31.2121 30.8012V13.1429C31.2121 10.2237 29.9571 7.58079 27.9281 5.66774C25.8991 3.75469 23.0961 2.57144 20 2.57144C13.8077 2.57144 8.78784 7.30443 8.78784 13.1429V39.3881C10.8438 39.1108 12.4242 37.4437 12.4242 35.4286V28.9176C13.4749 28.6 14.595 28.4286 15.7575 28.4286H16.3636V25.8016C14.6625 25.0396 13.2729 23.7597 12.4242 22.178V13.3237C13.8101 12.8987 15.2693 12.2882 16.7184 11.4993C19.0522 10.2289 20.9744 8.70586 22.2827 7.19959C22.5501 7.94218 22.9053 8.68587 23.35 9.41213C24.6784 11.5815 26.5491 13.1763 28.4848 13.9882V14.0237C28.5455 14.0333 28.6051 14.0457 28.6636 14.0609C28.781 14.1071 28.8985 14.1504 29.0161 14.1907Z" fill="white"/>
</mask>
<g mask="url(#mask7_2_194)">
<path d="M48.7878 2.57144H8.78784V42.5714H48.7878V2.57144Z" fill="#4A312C"/>
</g>
<path fill-rule="evenodd" clip-rule="evenodd" d="M29.0162 14.1908C29.7538 14.444 30.4945 14.5817 31.2122 14.5926V13.1429V30.8012C29.3221 29.3196 26.8926 28.4286 24.2425 28.4286H23.6364V25.8016C26.2926 24.6119 28.1892 22.1593 28.4533 19.2668C29.3287 19.1432 30.0001 18.4313 30.0001 17.5715V15.7143C30.0001 15.0511 29.6006 14.4758 29.0162 14.1908ZM28.6637 14.0609C28.6052 14.0458 28.5456 14.0333 28.4849 14.0237V13.9882C28.5445 14.0132 28.6041 14.0374 28.6637 14.0609ZM12.4243 22.178C13.273 23.7597 14.6626 25.0397 16.3637 25.8016V28.4286H15.7576C14.5951 28.4286 13.475 28.6001 12.4243 28.9176V22.178Z" fill="black" fill-opacity="0.24"/>
</g>
</g>
</g>
<defs>
<clipPath id="clip0_2_194">
<rect width="40" height="40" fill="white"/>
</clipPath>
</defs>
</svg>
