<svg width="40" height="41" viewBox="0 0 40 41" fill="none" xmlns="http://www.w3.org/2000/svg">
<g clip-path="url(#clip0_77_16405)">
<path d="M19.9999 40.502C30.0415 40.502 38.1818 32.8269 38.1818 23.3592C38.1818 13.8914 30.0415 6.21631 19.9999 6.21631C9.95839 6.21631 1.81812 13.8914 1.81812 23.3592C1.81812 32.8269 9.95839 40.502 19.9999 40.502Z" fill="#E6E6E6"/>
<mask id="mask0_77_16405" style="mask-type:luminance" maskUnits="userSpaceOnUse" x="1" y="6" width="38" height="35">
<path d="M19.9999 40.502C30.0415 40.502 38.1818 32.8269 38.1818 23.3592C38.1818 13.8914 30.0415 6.21631 19.9999 6.21631C9.95839 6.21631 1.81812 13.8914 1.81812 23.3592C1.81812 32.8269 9.95839 40.502 19.9999 40.502Z" fill="white"/>
</mask>
<g mask="url(#mask0_77_16405)">
<path d="M38.1818 6.21631H1.81812V40.502H38.1818V6.21631Z" fill="#65C9FF"/>
</g>
<mask id="mask1_77_16405" style="mask-type:luminance" maskUnits="userSpaceOnUse" x="0" y="0" width="40" height="41">
<path d="M1.81818 23.3592C1.81818 32.8269 9.95846 40.502 20 40.502C30.0415 40.502 38.1818 32.8269 38.1818 23.3592H40V0.502014H0V23.3592H1.81818Z" fill="white"/>
</mask>
<g mask="url(#mask1_77_16405)">
<path d="M23.6363 26.8016V29.4286H24.2423C30.2673 29.4286 35.1514 34.0336 35.1514 39.7143V41H4.84839V39.7143C4.84839 34.0336 9.73255 29.4286 15.7575 29.4286H16.3635V26.8016C13.7518 25.6318 11.8745 23.241 11.5613 20.4116C10.6787 20.294 9.9999 19.5789 9.9999 18.7143V16.7143C9.9999 15.8649 10.6551 15.1597 11.5151 15.0237V14.1429C11.5151 9.72457 15.3139 6.14285 19.9999 6.14285C24.686 6.14285 28.4848 9.72457 28.4848 14.1429V15.0237C29.3447 15.1597 29.9999 15.8649 29.9999 16.7143V18.7143C29.9999 19.5789 29.3211 20.294 28.4385 20.4116C28.1253 23.241 26.248 25.6318 23.6363 26.8016Z" fill="#D0C6AC"/>
<mask id="mask2_77_16405" style="mask-type:luminance" maskUnits="userSpaceOnUse" x="4" y="6" width="32" height="35">
<path d="M23.6363 26.8016V29.4286H24.2423C30.2673 29.4286 35.1514 34.0336 35.1514 39.7143V41H4.84839V39.7143C4.84839 34.0336 9.73255 29.4286 15.7575 29.4286H16.3635V26.8016C13.7518 25.6318 11.8745 23.241 11.5613 20.4116C10.6787 20.294 9.9999 19.5789 9.9999 18.7143V16.7143C9.9999 15.8649 10.6551 15.1597 11.5151 15.0237V14.1429C11.5151 9.72457 15.3139 6.14285 19.9999 6.14285C24.686 6.14285 28.4848 9.72457 28.4848 14.1429V15.0237C29.3447 15.1597 29.9999 15.8649 29.9999 16.7143V18.7143C29.9999 19.5789 29.3211 20.294 28.4385 20.4116C28.1253 23.241 26.248 25.6318 23.6363 26.8016Z" fill="white"/>
</mask>
<g mask="url(#mask2_77_16405)">
<path d="M44.8484 6.14285H4.84839V46.1429H44.8484V6.14285Z" fill="#614335"/>
</g>
<mask id="mask3_77_16405" style="mask-type:luminance" maskUnits="userSpaceOnUse" x="4" y="6" width="32" height="35">
<path d="M23.6363 26.8016V29.4286H24.2423C30.2673 29.4286 35.1514 34.0336 35.1514 39.7143V41H4.84839V39.7143C4.84839 34.0336 9.73255 29.4286 15.7575 29.4286H16.3635V26.8016C13.7518 25.6318 11.8745 23.241 11.5613 20.4116C10.6787 20.294 9.9999 19.5789 9.9999 18.7143V16.7143C9.9999 15.8649 10.6551 15.1597 11.5151 15.0237V14.1429C11.5151 9.72457 15.3139 6.14285 19.9999 6.14285C24.686 6.14285 28.4848 9.72457 28.4848 14.1429V15.0237C29.3447 15.1597 29.9999 15.8649 29.9999 16.7143V18.7143C29.9999 19.5789 29.3211 20.294 28.4385 20.4116C28.1253 23.241 26.248 25.6318 23.6363 26.8016Z" fill="white"/>
</mask>
<g mask="url(#mask3_77_16405)">
<path fill-rule="evenodd" clip-rule="evenodd" d="M28.4848 17.4286V20.7143C28.4848 25.1326 24.686 28.7143 20 28.7143C15.3139 28.7143 11.5151 25.1326 11.5151 20.7143V17.4286V19.5714C11.5151 23.9897 15.3139 27.5714 20 27.5714C24.686 27.5714 28.4848 23.9897 28.4848 19.5714V17.4286Z" fill="black" fill-opacity="0.1"/>
</g>
<path fill-rule="evenodd" clip-rule="evenodd" d="M25.9574 29.5623C31.1675 30.3381 35.1514 34.5912 35.1514 39.7217V41H4.84839V39.7217C4.84839 34.5912 8.83239 30.338 14.0426 29.5623C14.1792 30.2865 14.563 30.9748 15.1872 31.5056L19.594 35.2525C19.8246 35.4486 20.1752 35.4486 20.4058 35.2525L24.8126 31.5056C24.8771 31.4507 24.9395 31.3938 24.9996 31.3347C25.5172 30.8268 25.8359 30.2074 25.9574 29.5623V29.5623Z" fill="#E6E6E6"/>
<mask id="mask4_77_16405" style="mask-type:luminance" maskUnits="userSpaceOnUse" x="4" y="29" width="32" height="12">
<path fill-rule="evenodd" clip-rule="evenodd" d="M25.9574 29.5623C31.1675 30.3381 35.1514 34.5912 35.1514 39.7217V41H4.84839V39.7217C4.84839 34.5912 8.83239 30.338 14.0426 29.5623C14.1792 30.2865 14.563 30.9748 15.1872 31.5056L19.594 35.2525C19.8246 35.4486 20.1752 35.4486 20.4058 35.2525L24.8126 31.5056C24.8771 31.4507 24.9395 31.3938 24.9996 31.3347C25.5172 30.8268 25.8359 30.2074 25.9574 29.5623V29.5623Z" fill="white"/>
</mask>
<g mask="url(#mask4_77_16405)">
<path d="M40 25.2857H0V41H40V25.2857Z" fill="#929598"/>
</g>
<g opacity="0.6">
<path fill-rule="evenodd" clip-rule="evenodd" d="M18.5137 22.4438C18.4875 21.7136 17.8473 21.1139 17.0141 21C17.5242 21.2798 17.8758 21.785 17.8758 22.3824C17.8758 23.1921 17.0464 23.8922 16.0873 23.8922C16.0784 23.8922 16.0694 23.8921 16.0605 23.892C16.2663 23.9617 16.4908 24 16.726 24C17.5324 24 18.2141 23.5496 18.4373 22.9305C18.8122 23.2386 19.3731 23.4342 19.9999 23.4342C20.6268 23.4342 21.1877 23.2386 21.5626 22.9305C21.7858 23.5496 22.4675 24 23.2738 24C23.509 24 23.7336 23.9617 23.9393 23.892C23.9304 23.8921 23.9215 23.8922 23.9126 23.8922C22.9534 23.8922 22.1241 23.1921 22.1241 22.3824C22.1241 21.785 22.4757 21.2798 22.9858 21C22.1526 21.1139 21.5124 21.7136 21.4862 22.4438C21.0977 22.6918 20.5749 22.8437 19.9999 22.8437C19.425 22.8437 18.9022 22.6918 18.5137 22.4438Z" fill="black" fill-opacity="0.6"/>
</g>
<path d="M14.3939 23.5714C15.147 23.5714 15.7575 22.9958 15.7575 22.2857C15.7575 21.5756 15.147 21 14.3939 21C13.6408 21 13.0303 21.5756 13.0303 22.2857C13.0303 22.9958 13.6408 23.5714 14.3939 23.5714Z" fill="#FF4646" fill-opacity="0.2"/>
<path d="M25.6061 23.5714C26.3592 23.5714 26.9697 22.9958 26.9697 22.2857C26.9697 21.5756 26.3592 21 25.6061 21C24.853 21 24.2424 21.5756 24.2424 22.2857C24.2424 22.9958 24.853 23.5714 25.6061 23.5714Z" fill="#FF4646" fill-opacity="0.2"/>
<path fill-rule="evenodd" clip-rule="evenodd" d="M18.1819 19.5714C18.1819 20.2026 18.9959 20.7143 20.0001 20.7143C21.0042 20.7143 21.8182 20.2026 21.8182 19.5714" fill="black" fill-opacity="0.16"/>
<path fill-rule="evenodd" clip-rule="evenodd" d="M15.6426 16.7637C15.5247 16.9082 15.4546 17.0893 15.4546 17.2857C15.4546 17.7591 15.8616 18.1429 16.3637 18.1429C16.8658 18.1429 17.2728 17.7591 17.2728 17.2857C17.2728 17.2443 17.2697 17.2035 17.2636 17.1636C17.2648 17.1318 17.2591 17.0959 17.2448 17.0582C17.238 17.0402 17.2307 17.0225 17.2229 17.0049C17.1723 16.8674 17.0857 16.7458 16.9736 16.6501C16.6514 16.3311 16.1374 16.1429 15.6058 16.1429C14.8735 16.1429 14.2435 16.5212 13.9637 17.0639C13.8819 17.2226 14.0223 17.3286 14.1573 17.2245C14.5264 16.9398 15.039 16.7634 15.6058 16.7634C15.6181 16.7634 15.6304 16.7635 15.6426 16.7637Z" fill="black" fill-opacity="0.6"/>
<path fill-rule="evenodd" clip-rule="evenodd" d="M24.4305 16.7637C24.3126 16.9082 24.2424 17.0893 24.2424 17.2857C24.2424 17.7591 24.6495 18.1429 25.1515 18.1429C25.6536 18.1429 26.0606 17.7591 26.0606 17.2857C26.0606 17.2443 26.0575 17.2035 26.0515 17.1636C26.0527 17.1318 26.047 17.0959 26.0327 17.0582C26.0258 17.0402 26.0185 17.0225 26.0107 17.0049C25.9602 16.8674 25.8735 16.7458 25.7614 16.6501C25.4392 16.3311 24.9252 16.1429 24.3936 16.1429C23.6613 16.1429 23.0313 16.5212 22.7516 17.0639C22.6697 17.2226 22.8101 17.3286 22.9451 17.2245C23.3142 16.9398 23.8269 16.7634 24.3936 16.7634C24.4059 16.7634 24.4182 16.7635 24.4305 16.7637Z" fill="black" fill-opacity="0.6"/>
<path fill-rule="evenodd" clip-rule="evenodd" d="M16.2474 15.6317L16.1094 15.6892C15.3152 15.9865 14.1113 15.8618 13.3752 15.5287C13.2893 15.4898 13.348 15.364 13.4361 15.3704C15.6965 15.5349 17.2183 14.2068 17.7353 13.3076C17.7506 13.2809 17.797 13.2779 17.8084 13.3027C18.158 14.0626 17.1342 15.3006 16.2474 15.6317Z" fill="black" fill-opacity="0.6"/>
<path fill-rule="evenodd" clip-rule="evenodd" d="M23.7524 15.6317L23.8904 15.6892C24.6846 15.9865 25.8884 15.8618 26.6245 15.5287C26.7105 15.4898 26.6517 15.364 26.5637 15.3704C24.3032 15.5349 22.7814 14.2068 22.2644 13.3076C22.2491 13.2809 22.2028 13.2779 22.1913 13.3027C21.8417 14.0626 22.8656 15.3006 23.7524 15.6317Z" fill="black" fill-opacity="0.6"/>
<mask id="mask5_77_16405" style="mask-type:luminance" maskUnits="userSpaceOnUse" x="0" y="1" width="40" height="40">
<path d="M40 1H0V41H40V1Z" fill="white"/>
</mask>
<g mask="url(#mask5_77_16405)">
<path fill-rule="evenodd" clip-rule="evenodd" d="M28.1562 11.5613C28.4224 11.7025 28.6332 13.1183 28.6434 13.6597C28.6498 13.9938 28.6555 15.2677 28.2808 15.1576C28.1667 15.1241 27.9925 14.4496 27.9678 14.0549C27.943 13.6601 27.7052 12.3172 27.3403 11.6993C27.2569 11.5581 27.0181 11.3101 27.1213 11.1907C27.2492 11.0426 27.3735 11.1285 27.5297 11.1878C27.6987 11.252 28.1263 11.5454 28.1562 11.5613ZM28.2781 11.1367C28.1651 11.2741 27.3932 10.8883 27.0712 10.7206C24.3674 9.31202 23.8425 8.86411 19.5825 8.92256C15.3226 8.98101 12.404 10.8629 12.2398 11.0554C12.1256 11.1893 11.9798 11.5469 11.8599 12.5429C11.74 13.539 11.8931 15.3254 11.459 15.3232C11.0895 15.3214 11.0091 11.9253 11.1686 10.5781C11.1931 10.3712 11.2875 10.0012 11.2192 9.81513C11.1594 9.65262 10.8673 9.65295 10.914 9.38216C10.967 9.07391 11.2966 9.22702 11.4401 9.07964C11.7121 8.80043 11.2926 8.73436 11.223 8.4901C11.1196 8.12704 11.4185 8.03339 11.6877 7.91874C11.9856 7.79197 11.9469 7.90332 12.1887 7.655C11.8657 7.43179 11.7489 7.12771 12.1911 6.96458C12.3789 6.89528 12.8676 6.98699 13.0147 6.88289C13.0531 6.85574 13.0682 6.70013 13.0919 6.6683C13.3269 6.35135 13.2689 6.1219 13.2451 5.76607C13.2254 5.4749 13.2281 5.20761 13.5978 5.17852C13.8446 5.15913 14.0452 5.34918 14.2662 5.40513C14.5115 5.46724 14.4194 5.51255 14.6115 5.38787C14.9488 5.16883 14.7192 4.74205 14.9867 4.48744C15.3538 4.13804 15.5944 4.6502 15.8891 4.68884C16.5288 4.77289 16.3235 4.16027 16.7022 3.93579C17.1549 3.6677 17.1987 4.25733 17.4815 4.27833C17.7265 4.29645 18.1677 3.85066 18.3813 3.7676C19.015 3.52103 19.329 4.21486 19.9323 4.12636C20.37 4.06213 20.4882 4.00967 20.8833 4.24451C21.2668 4.47245 21.3579 4.3095 21.7921 4.30624C22.0989 4.30406 22.2868 4.54576 22.5434 4.57097C22.6714 4.5836 22.7939 4.45788 22.9313 4.46578C23.4218 4.49383 23.4528 5.09187 23.8425 5.25652C24.1986 5.40698 24.6172 5.1956 24.9705 5.15648C25.8327 5.06108 25.2423 5.82037 25.2666 6.27354C25.6051 6.34799 25.9486 6.05015 26.2855 6.10497C26.816 6.19133 26.6158 6.70973 26.4928 7.05922C26.8604 7.05298 27.82 6.66825 28.0581 7.1603C28.181 7.41401 27.8948 7.75272 27.8995 8.01064C27.9061 8.3737 28.189 8.6741 28.2891 9.01772C28.4242 9.48158 28.6168 10.7249 28.2781 11.1367Z" fill="#2E3257"/>
<mask id="mask6_77_16405" style="mask-type:luminance" maskUnits="userSpaceOnUse" x="10" y="3" width="19" height="13">
<path fill-rule="evenodd" clip-rule="evenodd" d="M28.1562 11.5613C28.4224 11.7025 28.6332 13.1183 28.6434 13.6597C28.6498 13.9938 28.6555 15.2677 28.2808 15.1576C28.1667 15.1241 27.9925 14.4496 27.9678 14.0549C27.943 13.6601 27.7052 12.3172 27.3403 11.6993C27.2569 11.5581 27.0181 11.3101 27.1213 11.1907C27.2492 11.0426 27.3735 11.1285 27.5297 11.1878C27.6987 11.252 28.1263 11.5454 28.1562 11.5613ZM28.2781 11.1367C28.1651 11.2741 27.3932 10.8883 27.0712 10.7206C24.3674 9.31202 23.8425 8.86411 19.5825 8.92256C15.3226 8.98101 12.404 10.8629 12.2398 11.0554C12.1256 11.1893 11.9798 11.5469 11.8599 12.5429C11.74 13.539 11.8931 15.3254 11.459 15.3232C11.0895 15.3214 11.0091 11.9253 11.1686 10.5781C11.1931 10.3712 11.2875 10.0012 11.2192 9.81513C11.1594 9.65262 10.8673 9.65295 10.914 9.38216C10.967 9.07391 11.2966 9.22702 11.4401 9.07964C11.7121 8.80043 11.2926 8.73436 11.223 8.4901C11.1196 8.12704 11.4185 8.03339 11.6877 7.91874C11.9856 7.79197 11.9469 7.90332 12.1887 7.655C11.8657 7.43179 11.7489 7.12771 12.1911 6.96458C12.3789 6.89528 12.8676 6.98699 13.0147 6.88289C13.0531 6.85574 13.0682 6.70013 13.0919 6.6683C13.3269 6.35135 13.2689 6.1219 13.2451 5.76607C13.2254 5.4749 13.2281 5.20761 13.5978 5.17852C13.8446 5.15913 14.0452 5.34918 14.2662 5.40513C14.5115 5.46724 14.4194 5.51255 14.6115 5.38787C14.9488 5.16883 14.7192 4.74205 14.9867 4.48744C15.3538 4.13804 15.5944 4.6502 15.8891 4.68884C16.5288 4.77289 16.3235 4.16027 16.7022 3.93579C17.1549 3.6677 17.1987 4.25733 17.4815 4.27833C17.7265 4.29645 18.1677 3.85066 18.3813 3.7676C19.015 3.52103 19.329 4.21486 19.9323 4.12636C20.37 4.06213 20.4882 4.00967 20.8833 4.24451C21.2668 4.47245 21.3579 4.3095 21.7921 4.30624C22.0989 4.30406 22.2868 4.54576 22.5434 4.57097C22.6714 4.5836 22.7939 4.45788 22.9313 4.46578C23.4218 4.49383 23.4528 5.09187 23.8425 5.25652C24.1986 5.40698 24.6172 5.1956 24.9705 5.15648C25.8327 5.06108 25.2423 5.82037 25.2666 6.27354C25.6051 6.34799 25.9486 6.05015 26.2855 6.10497C26.816 6.19133 26.6158 6.70973 26.4928 7.05922C26.8604 7.05298 27.82 6.66825 28.0581 7.1603C28.181 7.41401 27.8948 7.75272 27.8995 8.01064C27.9061 8.3737 28.189 8.6741 28.2891 9.01772C28.4242 9.48158 28.6168 10.7249 28.2781 11.1367Z" fill="white"/>
</mask>
<g mask="url(#mask6_77_16405)">
<path d="M39.9998 1H-0.000244141V41H39.9998V1Z" fill="#D6B370"/>
</g>
<g filter="url(#filter0_d_77_16405)">
<path fill-rule="evenodd" clip-rule="evenodd" d="M18.7445 17.0714C18.7445 18.4575 17.4945 19.5816 15.4116 19.5816H14.9949C12.912 19.5816 12.0786 18.4571 12.0786 17.0714C12.0786 15.685 12.2732 14.5612 15.1894 14.5612H15.6337C18.5499 14.5612 18.7445 15.685 18.7445 17.0714Z" fill="black" fill-opacity="0.7"/>
<path style="mix-blend-mode:screen" fill-rule="evenodd" clip-rule="evenodd" d="M18.7445 17.0714C18.7445 18.4575 17.4945 19.5816 15.4116 19.5816H14.9949C12.912 19.5816 12.0786 18.4571 12.0786 17.0714C12.0786 15.685 12.2732 14.5612 15.1894 14.5612H15.6337C18.5499 14.5612 18.7445 15.685 18.7445 17.0714Z" fill="url(#paint0_linear_77_16405)"/>
<path fill-rule="evenodd" clip-rule="evenodd" d="M28.0731 17.0714C28.0731 18.4575 26.8235 19.5816 24.7402 19.5816H24.3235C22.2406 19.5816 21.4072 18.4571 21.4072 17.0714C21.4072 15.685 21.6018 14.5612 24.5181 14.5612H24.9623C27.8781 14.5612 28.0731 15.685 28.0731 17.0714Z" fill="black" fill-opacity="0.7"/>
<path style="mix-blend-mode:screen" fill-rule="evenodd" clip-rule="evenodd" d="M28.0731 17.0714C28.0731 18.4575 26.8235 19.5816 24.7402 19.5816H24.3235C22.2406 19.5816 21.4072 18.4571 21.4072 17.0714C21.4072 15.685 21.6018 14.5612 24.5181 14.5612H24.9623C27.8781 14.5612 28.0731 15.685 28.0731 17.0714Z" fill="url(#paint1_linear_77_16405)"/>
<path d="M15.4114 20H14.9948C12.8905 20 11.6343 18.9051 11.6343 17.0714C11.6343 15.5896 11.9088 14.1429 15.1893 14.1429H15.6335C18.9141 14.1429 19.1886 15.5896 19.1886 17.0714C19.1886 18.7955 17.6356 20 15.4114 20ZM15.1893 14.9792C12.5227 14.9792 12.5227 15.9025 12.5227 17.0714C12.5227 18.0257 12.9514 19.1633 14.9948 19.1633H15.4114C17.1123 19.1633 18.3002 18.3031 18.3002 17.0714C18.3002 15.9025 18.3002 14.9792 15.6335 14.9792H15.1893Z" fill="#252C2F"/>
<path d="M24.74 20H24.3234C22.2191 20 20.9629 18.9051 20.9629 17.0714C20.9629 15.5896 21.2374 14.1429 24.5179 14.1429H24.9622C28.2427 14.1429 28.5172 15.5896 28.5172 17.0714C28.5172 18.7955 26.9642 20 24.74 20ZM24.5179 14.9792C21.8513 14.9792 21.8513 15.9025 21.8513 17.0714C21.8513 18.0257 22.2804 19.1633 24.3234 19.1633H24.74C26.4409 19.1633 27.6288 18.3031 27.6288 17.0714C27.6288 15.9025 27.6288 14.9792 24.9622 14.9792H24.5179Z" fill="#252C2F"/>
<path d="M10.7472 14.9796C10.8511 14.8817 11.9883 14.1429 15.1893 14.1429C17.8733 14.1429 18.4414 14.4115 19.3014 14.8173L19.3644 14.8472C19.4242 14.8676 19.7299 14.9678 20.0876 14.9788C20.4134 14.9653 20.6921 14.8801 20.7736 14.8528C21.7552 14.3925 22.716 14.1429 24.9621 14.1429C28.1631 14.1429 29.3003 14.8817 29.4042 14.9796C29.6499 14.9796 29.8484 15.1666 29.8484 15.398V15.8163C29.8484 16.0477 29.6499 16.2347 29.4042 16.2347C29.4042 16.2347 28.5158 16.2347 28.5158 16.6531C28.5158 17.0714 28.0716 16.0477 28.0716 15.8163V15.4089C27.5298 15.2089 26.56 14.9796 24.9621 14.9796C23.1817 14.9796 22.295 15.1412 21.5344 15.4435L21.5429 15.4632L21.1648 15.6072L21.5426 15.7512L21.2092 16.5268L20.7975 16.3698C20.7607 16.3558 20.6813 16.3306 20.5713 16.3044C20.2646 16.2315 19.9492 16.2093 19.6704 16.2645C19.5681 16.2847 19.4731 16.3151 19.386 16.3562L18.9887 16.5434L18.5913 15.795L18.9885 15.6079L18.9895 15.6074L18.6089 15.4624L18.621 15.4341C17.9651 15.1394 17.3603 14.9796 15.1893 14.9796C13.5914 14.9796 12.6217 15.2088 12.0798 15.4087V15.8163C12.0798 16.0477 11.6356 17.0714 11.6356 16.6531C11.6356 16.2347 10.7472 16.2347 10.7472 16.2347C10.502 16.2347 10.303 16.0477 10.303 15.8163V15.398C10.303 15.1666 10.502 14.9796 10.7472 14.9796Z" fill="#252C2F"/>
</g>
</g>
</g>
</g>
<defs>
<filter id="filter0_d_77_16405" x="10.303" y="14.1429" width="19.5454" height="7.85715" filterUnits="userSpaceOnUse" color-interpolation-filters="sRGB">
<feFlood flood-opacity="0" result="BackgroundImageFix"/>
<feColorMatrix in="SourceAlpha" type="matrix" values="0 0 0 0 0 0 0 0 0 0 0 0 0 0 0 0 0 0 127 0" result="hardAlpha"/>
<feOffset dy="2"/>
<feColorMatrix type="matrix" values="0 0 0 0 0 0 0 0 0 0 0 0 0 0 0 0 0 0 0.2 0"/>
<feBlend mode="normal" in2="BackgroundImageFix" result="effect1_dropShadow_77_16405"/>
<feBlend mode="normal" in="SourceGraphic" in2="effect1_dropShadow_77_16405" result="shape"/>
</filter>
<linearGradient id="paint0_linear_77_16405" x1="345.373" y1="14.5612" x2="345.373" y2="516.602" gradientUnits="userSpaceOnUse">
<stop stop-color="white" stop-opacity="0.5"/>
<stop offset="0.705058" stop-opacity="0.5"/>
</linearGradient>
<linearGradient id="paint1_linear_77_16405" x1="354.702" y1="14.5612" x2="354.702" y2="516.602" gradientUnits="userSpaceOnUse">
<stop stop-color="white" stop-opacity="0.5"/>
<stop offset="0.705058" stop-opacity="0.5"/>
</linearGradient>
<clipPath id="clip0_77_16405">
<rect width="40" height="40" fill="white" transform="translate(0 0.502014)"/>
</clipPath>
</defs>
</svg>
