<svg width="41" height="41" viewBox="0 0 41 41" fill="none" xmlns="http://www.w3.org/2000/svg">
<mask id="mask0_77_16900" style="mask-type:alpha" maskUnits="userSpaceOnUse" x="1" y="0" width="38" height="41">
<path d="M20.3622 40.0679C30.4037 40.0679 38.1464 32.5577 38.544 24.0626C38.7427 19.8175 38.5382 3.37993 38.5382 0.25102L2.17455 0.251007C2.17458 3.51027 1.74388 15.1187 2.18033 24.0626C2.57444 32.1387 9.72196 40.0679 20.3622 40.0679Z" fill="#E6E6E6"/>
</mask>
<g mask="url(#mask0_77_16900)">
<path d="M20.3544 40.251C30.396 40.251 38.5362 32.5759 38.5362 23.1082C38.5362 13.6404 30.396 5.9653 20.3544 5.9653C10.3129 5.9653 2.17261 13.6404 2.17261 23.1082C2.17261 32.5759 10.3129 40.251 20.3544 40.251Z" fill="#E6E6E6"/>
<mask id="mask1_77_16900" style="mask-type:luminance" maskUnits="userSpaceOnUse" x="2" y="5" width="37" height="36">
<path d="M20.3544 40.251C30.396 40.251 38.5362 32.5759 38.5362 23.1082C38.5362 13.6404 30.396 5.9653 20.3544 5.9653C10.3129 5.9653 2.17261 13.6404 2.17261 23.1082C2.17261 32.5759 10.3129 40.251 20.3544 40.251Z" fill="white"/>
</mask>
<g mask="url(#mask1_77_16900)">
<path d="M38.5362 5.9653H2.17261V40.251H38.5362V5.9653Z" fill="#9B51E0"/>
</g>
<mask id="mask2_77_16900" style="mask-type:luminance" maskUnits="userSpaceOnUse" x="0" y="0" width="41" height="41">
<path d="M1.8343 23.0597C1.8343 32.6114 10.0467 40.3545 20.1772 40.3545C30.3078 40.3545 38.5202 32.6114 38.5202 23.0597H40.3545V0H0V23.0597H1.8343Z" fill="white"/>
</mask>
<g mask="url(#mask2_77_16900)">
<path d="M23.846 26.0302V28.6805H24.4574C30.5357 28.6805 35.4632 33.3264 35.4632 39.0574V40.3545H4.8916V39.0574C4.8916 33.3264 9.81905 28.6805 15.8974 28.6805H16.5088V26.0302C13.8739 24.8501 11.98 22.4381 11.664 19.5836C10.7736 19.465 10.0888 18.7435 10.0888 17.8713V15.8536C10.0888 14.9966 10.7498 14.2852 11.6174 14.148V13.2593C11.6174 8.80191 15.4498 5.18845 20.1774 5.18845C24.905 5.18845 28.7374 8.80191 28.7374 13.2593V14.148C29.605 14.2852 30.266 14.9966 30.266 15.8536V17.8713C30.266 18.7435 29.5812 19.465 28.6908 19.5836C28.3748 22.4381 26.4809 24.8501 23.846 26.0302Z" fill="#D0C6AC"/>
<mask id="mask3_77_16900" style="mask-type:luminance" maskUnits="userSpaceOnUse" x="4" y="5" width="32" height="36">
<path d="M23.846 26.0302V28.6805H24.4574C30.5357 28.6805 35.4632 33.3264 35.4632 39.0574V40.3545H4.8916V39.0574C4.8916 33.3264 9.81905 28.6805 15.8974 28.6805H16.5088V26.0302C13.8739 24.8501 11.98 22.4381 11.664 19.5836C10.7736 19.465 10.0888 18.7435 10.0888 17.8713V15.8536C10.0888 14.9966 10.7498 14.2852 11.6174 14.148V13.2593C11.6174 8.80191 15.4498 5.18845 20.1774 5.18845C24.905 5.18845 28.7374 8.80191 28.7374 13.2593V14.148C29.605 14.2852 30.266 14.9966 30.266 15.8536V17.8713C30.266 18.7435 29.5812 19.465 28.6908 19.5836C28.3748 22.4381 26.4809 24.8501 23.846 26.0302Z" fill="white"/>
</mask>
<g mask="url(#mask3_77_16900)">
<path d="M45.2461 5.18845H4.8916V45.5429H45.2461V5.18845Z" fill="#AE5D29"/>
</g>
<mask id="mask4_77_16900" style="mask-type:luminance" maskUnits="userSpaceOnUse" x="4" y="5" width="32" height="36">
<path d="M23.846 26.0302V28.6805H24.4574C30.5357 28.6805 35.4632 33.3264 35.4632 39.0574V40.3545H4.8916V39.0574C4.8916 33.3264 9.81905 28.6805 15.8974 28.6805H16.5088V26.0302C13.8739 24.8501 11.98 22.4381 11.664 19.5836C10.7736 19.465 10.0888 18.7435 10.0888 17.8713V15.8536C10.0888 14.9966 10.7498 14.2852 11.6174 14.148V13.2593C11.6174 8.80191 15.4498 5.18845 20.1774 5.18845C24.905 5.18845 28.7374 8.80191 28.7374 13.2593V14.148C29.605 14.2852 30.266 14.9966 30.266 15.8536V17.8713C30.266 18.7435 29.5812 19.465 28.6908 19.5836C28.3748 22.4381 26.4809 24.8501 23.846 26.0302Z" fill="white"/>
</mask>
<g mask="url(#mask4_77_16900)">
<path fill-rule="evenodd" clip-rule="evenodd" d="M28.737 16.5742V19.889C28.737 24.3464 24.9046 27.9599 20.177 27.9599C15.4494 27.9599 11.6169 24.3464 11.6169 19.889V16.5742V18.736C11.6169 23.1934 15.4494 26.8069 20.177 26.8069C24.9046 26.8069 28.737 23.1934 28.737 18.736V16.5742Z" fill="black" fill-opacity="0.1"/>
</g>
<path fill-rule="evenodd" clip-rule="evenodd" d="M26.1877 28.8155C31.444 29.5981 35.4632 33.8889 35.4632 39.0648V40.3545H4.8916V39.0648C4.8916 33.8888 8.91091 29.598 14.1673 28.8154C14.3051 29.546 14.6923 30.2405 15.322 30.7759L19.7679 34.5561C20.0006 34.7539 20.3542 34.7539 20.5869 34.5561L25.0328 30.7759C25.0978 30.7206 25.1607 30.6631 25.2214 30.6036C25.7436 30.0911 26.0651 29.4663 26.1877 28.8155V28.8155Z" fill="#E6E6E6"/>
<mask id="mask5_77_16900" style="mask-type:luminance" maskUnits="userSpaceOnUse" x="4" y="28" width="32" height="13">
<path fill-rule="evenodd" clip-rule="evenodd" d="M26.1877 28.8155C31.444 29.5981 35.4632 33.8889 35.4632 39.0648V40.3545H4.8916V39.0648C4.8916 33.8888 8.91091 29.598 14.1673 28.8154C14.3051 29.546 14.6923 30.2405 15.322 30.7759L19.7679 34.5561C20.0006 34.7539 20.3542 34.7539 20.5869 34.5561L25.0328 30.7759C25.0978 30.7206 25.1607 30.6631 25.2214 30.6036C25.7436 30.0911 26.0651 29.4663 26.1877 28.8155V28.8155Z" fill="white"/>
</mask>
<g mask="url(#mask5_77_16900)">
<path d="M40.3545 24.5009H0V40.3545H40.3545V24.5009Z" fill="#FF488E"/>
</g>
<path fill-rule="evenodd" clip-rule="evenodd" d="M17.2912 21.4928C17.4529 22.8608 18.6835 23.9245 20.1775 23.9245C21.6762 23.9245 22.9097 22.8542 23.0653 21.4801C23.0778 21.3696 22.9468 21.1861 22.7826 21.1861C20.506 21.1861 18.7617 21.1861 17.5922 21.1861C17.4271 21.1861 17.275 21.356 17.2912 21.4928Z" fill="black" fill-opacity="0.7"/>
<mask id="mask6_77_16900" style="mask-type:luminance" maskUnits="userSpaceOnUse" x="17" y="21" width="7" height="3">
<path fill-rule="evenodd" clip-rule="evenodd" d="M17.2912 21.4928C17.4529 22.8608 18.6835 23.9245 20.1775 23.9245C21.6762 23.9245 22.9097 22.8542 23.0653 21.4801C23.0778 21.3696 22.9468 21.1861 22.7826 21.1861C20.506 21.1861 18.7617 21.1861 17.5922 21.1861C17.4271 21.1861 17.275 21.356 17.2912 21.4928Z" fill="white"/>
</mask>
<g mask="url(#mask6_77_16900)">
<path d="M21.8588 19.6008H18.6488C18.2267 19.6008 17.8845 19.9234 17.8845 20.3214V21.1861C17.8845 21.5841 18.2267 21.9067 18.6488 21.9067H21.8588C22.2809 21.9067 22.6231 21.5841 22.6231 21.1861V20.3214C22.6231 19.9234 22.2809 19.6008 21.8588 19.6008Z" fill="white"/>
</g>
<mask id="mask7_77_16900" style="mask-type:luminance" maskUnits="userSpaceOnUse" x="17" y="21" width="7" height="3">
<path fill-rule="evenodd" clip-rule="evenodd" d="M17.2912 21.4928C17.4529 22.8608 18.6835 23.9245 20.1775 23.9245C21.6762 23.9245 22.9097 22.8542 23.0653 21.4801C23.0778 21.3696 22.9468 21.1861 22.7826 21.1861C20.506 21.1861 18.7617 21.1861 17.5922 21.1861C17.4271 21.1861 17.275 21.356 17.2912 21.4928Z" fill="white"/>
</mask>
<g mask="url(#mask7_77_16900)">
<path d="M19.4129 25.9422C20.3415 25.9422 21.0943 25.2324 21.0943 24.3568C21.0943 23.4813 20.3415 22.7715 19.4129 22.7715C18.4843 22.7715 17.7314 23.4813 17.7314 24.3568C17.7314 25.2324 18.4843 25.9422 19.4129 25.9422Z" fill="#FF4F6D"/>
<path d="M20.9414 25.9422C21.8701 25.9422 22.6229 25.2324 22.6229 24.3568C22.6229 23.4813 21.8701 22.7715 20.9414 22.7715C20.0128 22.7715 19.26 23.4813 19.26 24.3568C19.26 25.2324 20.0128 25.9422 20.9414 25.9422Z" fill="#FF4F6D"/>
</g>
<path fill-rule="evenodd" clip-rule="evenodd" d="M18.343 18.736C18.343 19.3728 19.1643 19.889 20.1773 19.889C21.1904 19.889 22.0116 19.3728 22.0116 18.736" fill="black" fill-opacity="0.16"/>
<path d="M16.2028 17.0065C16.7093 17.0065 17.1199 16.6194 17.1199 16.1418C17.1199 15.6642 16.7093 15.2771 16.2028 15.2771C15.6963 15.2771 15.2856 15.6642 15.2856 16.1418C15.2856 16.6194 15.6963 17.0065 16.2028 17.0065Z" fill="black" fill-opacity="0.6"/>
<path d="M24.1515 17.0065C24.658 17.0065 25.0687 16.6194 25.0687 16.1418C25.0687 15.6642 24.658 15.2771 24.1515 15.2771C23.645 15.2771 23.2344 15.6642 23.2344 16.1418C23.2344 16.6194 23.645 17.0065 24.1515 17.0065Z" fill="black" fill-opacity="0.6"/>
<path fill-rule="evenodd" clip-rule="evenodd" d="M15.6751 12.7042C14.7874 12.7429 13.3524 13.351 13.3893 14.195C13.3906 14.2226 13.4336 14.2348 13.4546 14.2135C13.8757 13.787 16.8657 13.356 17.9188 13.5844C18.0152 13.6054 18.0884 13.5157 18.0274 13.4509C17.5043 12.8963 16.4703 12.6689 15.6751 12.7042Z" fill="black" fill-opacity="0.6"/>
<path fill-rule="evenodd" clip-rule="evenodd" d="M24.832 12.7042C25.7197 12.7429 27.1547 13.351 27.1177 14.195C27.1165 14.2226 27.0735 14.2348 27.0525 14.2135C26.6314 13.787 23.6414 13.356 22.5883 13.5844C22.4919 13.6054 22.4186 13.5157 22.4797 13.4509C23.0028 12.8963 24.0368 12.6689 24.832 12.7042Z" fill="black" fill-opacity="0.6"/>
<mask id="mask8_77_16900" style="mask-type:luminance" maskUnits="userSpaceOnUse" x="0" y="0" width="41" height="41">
<path d="M40.3545 0H0V40.3545H40.3545V0Z" fill="white"/>
</mask>
<g mask="url(#mask8_77_16900)">
<path fill-rule="evenodd" clip-rule="evenodd" d="M10.3998 10.9841C12.3775 6.21594 14.4678 3.83188 16.6708 3.83188C16.7532 3.83188 21.1424 3.79758 24.0164 3.77991C27.1736 5.12869 29.3492 7.97056 29.3492 11.2581V13.4035H16.6708L16.242 10.0628L15.649 13.4035H10.3948V11.2581C10.3948 11.1664 10.3965 11.0751 10.3998 10.9841Z" fill="black" fill-opacity="0.16"/>
<path fill-rule="evenodd" clip-rule="evenodd" d="M28.716 12.6828C28.7303 12.8732 28.7375 13.0655 28.7375 13.2593V18.736C28.7375 21.9556 26.7381 24.7349 23.8461 26.0302V27.285C26.6198 27.501 29.3063 27.864 30.8776 28.2481C32.3989 26.2937 34.3756 24.4721 34.3933 20.8979C34.4063 18.1617 30.1628 7.12366 28.279 4.90018C27.035 3.43187 23.8927 2.94722 20.1775 2.88245C16.4623 2.81769 13.44 3.6764 12.2289 5.0443C10.5962 6.88836 5.9487 18.1617 5.9617 20.8979C5.97936 24.4721 7.95611 26.2937 9.47743 28.2481C11.0487 27.864 13.7352 27.501 16.5089 27.285V26.0302C13.6169 24.7349 11.6174 21.9556 11.6174 18.736V13.2593C11.6174 13.0655 11.6247 12.8732 11.6389 12.6828H15.9546L16.5476 9.59227L16.9763 12.6828H28.716Z" fill="#E6E6E6"/>
<mask id="mask9_77_16900" style="mask-type:luminance" maskUnits="userSpaceOnUse" x="5" y="2" width="30" height="27">
<path fill-rule="evenodd" clip-rule="evenodd" d="M28.716 12.6828C28.7303 12.8732 28.7375 13.0655 28.7375 13.2593V18.736C28.7375 21.9556 26.7381 24.7349 23.8461 26.0302V27.285C26.6198 27.501 29.3063 27.864 30.8776 28.2481C32.3989 26.2937 34.3756 24.4721 34.3933 20.8979C34.4063 18.1617 30.1628 7.12366 28.279 4.90018C27.035 3.43187 23.8927 2.94722 20.1775 2.88245C16.4623 2.81769 13.44 3.6764 12.2289 5.0443C10.5962 6.88836 5.9487 18.1617 5.9617 20.8979C5.97936 24.4721 7.95611 26.2937 9.47743 28.2481C11.0487 27.864 13.7352 27.501 16.5089 27.285V26.0302C13.6169 24.7349 11.6174 21.9556 11.6174 18.736V13.2593C11.6174 13.0655 11.6247 12.8732 11.6389 12.6828H15.9546L16.5476 9.59227L16.9763 12.6828H28.716Z" fill="white"/>
</mask>
<g mask="url(#mask9_77_16900)">
<path d="M46.3162 2.73837H5.96167V43.0929H46.3162V2.73837Z" fill="#B58143"/>
</g>
<g filter="url(#filter0_d_77_16900)">
<path d="M15.4384 19.1684H15.0168C12.8879 19.1684 11.6169 18.0638 11.6169 16.2139C11.6169 14.7189 11.8947 13.2593 15.2137 13.2593H15.6631C18.9821 13.2593 19.2598 14.7189 19.2598 16.2139C19.2598 17.9532 17.6887 19.1684 15.4384 19.1684ZM15.1916 14.1241C12.2284 14.1241 12.2284 15.11 12.2284 16.3582C12.2284 17.3772 12.7047 18.5919 14.9754 18.5919H15.4384C17.3285 18.5919 18.6484 17.6734 18.6484 16.3582C18.6484 15.11 18.6484 14.1241 15.6852 14.1241H15.1916Z" fill="#252C2F"/>
<path d="M24.9159 19.1684H24.4944C22.3655 19.1684 21.0945 18.0638 21.0945 16.2139C21.0945 14.7189 21.3722 13.2593 24.6912 13.2593H25.1406C28.4596 13.2593 28.7374 14.7189 28.7374 16.2139C28.7374 17.9532 27.1662 19.1684 24.9159 19.1684ZM24.6691 14.1241C21.7059 14.1241 21.7059 15.11 21.7059 16.3582C21.7059 17.3772 22.1828 18.5919 24.4529 18.5919H24.9159C26.806 18.5919 28.1259 17.6734 28.1259 16.3582C28.1259 15.11 28.1259 14.1241 25.1627 14.1241H24.6691Z" fill="#252C2F"/>
<path d="M10.6933 14.0912C10.799 13.9938 11.9552 13.2593 15.2096 13.2593C17.9383 13.2593 18.5159 13.5264 19.3903 13.9298L19.4543 13.9596C19.5151 13.9798 19.8259 14.0794 20.1896 14.0903C20.5208 14.0769 20.8042 13.9923 20.887 13.9651C21.8849 13.5075 22.8618 13.2593 25.1453 13.2593C28.3998 13.2593 29.5559 13.9938 29.6616 14.0912C29.9114 14.0912 30.1132 14.2771 30.1132 14.5071V14.923C30.1132 15.153 29.9114 15.3389 29.6616 15.3389C29.6616 15.3389 28.6067 15.3389 28.6067 15.7548C28.6067 16.1707 28.3067 15.153 28.3067 14.923V14.5179C27.7559 14.3191 26.77 13.9491 25.1453 13.9491C23.3353 13.9491 22.4338 14.2518 21.6605 14.5523L21.6692 14.5719L21.6688 14.8582L21.3299 15.6292L20.9113 15.4732C20.8739 15.4593 20.7932 15.4342 20.6813 15.4082C20.3695 15.3357 20.0489 15.3136 19.7654 15.3685C19.6614 15.3886 19.5648 15.4188 19.4763 15.4596L19.0724 15.6457L18.6682 14.9018L18.6862 14.5711L18.6985 14.543C18.0317 14.25 17.4167 13.9491 15.2096 13.9491C13.585 13.9491 12.5991 14.319 12.0482 14.5177V14.923C12.0482 15.153 11.5966 16.1707 11.5966 15.7548C11.5966 15.3389 10.6933 15.3389 10.6933 15.3389C10.444 15.3389 10.2417 15.153 10.2417 14.923V14.5071C10.2417 14.2771 10.444 14.0912 10.6933 14.0912Z" fill="#252C2F"/>
</g>
</g>
</g>
</g>
<defs>
<filter id="filter0_d_77_16900" x="10.2417" y="13.2593" width="19.8716" height="7.90906" filterUnits="userSpaceOnUse" color-interpolation-filters="sRGB">
<feFlood flood-opacity="0" result="BackgroundImageFix"/>
<feColorMatrix in="SourceAlpha" type="matrix" values="0 0 0 0 0 0 0 0 0 0 0 0 0 0 0 0 0 0 127 0" result="hardAlpha"/>
<feOffset dy="2"/>
<feColorMatrix type="matrix" values="0 0 0 0 0 0 0 0 0 0 0 0 0 0 0 0 0 0 0.2 0"/>
<feBlend mode="normal" in2="BackgroundImageFix" result="effect1_dropShadow_77_16900"/>
<feBlend mode="normal" in="SourceGraphic" in2="effect1_dropShadow_77_16900" result="shape"/>
</filter>
</defs>
</svg>
