<svg width="41" height="40" viewBox="0 0 41 40" fill="none" xmlns="http://www.w3.org/2000/svg">
<mask id="mask0_3_1088" style="mask-type:alpha" maskUnits="userSpaceOnUse" x="2" y="0" width="38" height="40">
<path d="M20.7318 39.8169C30.7733 39.8169 38.516 32.3067 38.9136 23.8116C39.1123 19.5665 38.9078 3.12893 38.9078 1.29106e-05L2.54418 0C2.54421 3.25927 2.11351 14.8677 2.54996 23.8116C2.94407 31.8877 10.0916 39.8169 20.7318 39.8169Z" fill="#E6E6E6"/>
</mask>
<g mask="url(#mask0_3_1088)">
<path d="M20.7241 40C30.7656 40 38.9059 32.3249 38.9059 22.8572C38.9059 13.3894 30.7656 5.71429 20.7241 5.71429C10.6825 5.71429 2.54224 13.3894 2.54224 22.8572C2.54224 32.3249 10.6825 40 20.7241 40Z" fill="#E6E6E6"/>
<mask id="mask1_3_1088" style="mask-type:luminance" maskUnits="userSpaceOnUse" x="2" y="5" width="37" height="35">
<path d="M20.7241 40C30.7656 40 38.9059 32.3249 38.9059 22.8572C38.9059 13.3894 30.7656 5.71429 20.7241 5.71429C10.6825 5.71429 2.54224 13.3894 2.54224 22.8572C2.54224 32.3249 10.6825 40 20.7241 40Z" fill="white"/>
</mask>
<g mask="url(#mask1_3_1088)">
<path d="M38.9059 5.71429H2.54224V40H38.9059V5.71429Z" fill="#9B51E0"/>
</g>
<mask id="mask2_3_1088" style="mask-type:luminance" maskUnits="userSpaceOnUse" x="16" y="4" width="30" height="30">
<path d="M18.123 20.837C18.123 27.5898 23.929 33.0641 31.0911 33.0641C38.2531 33.0641 44.0591 27.5898 44.0591 20.837H45.356V4.5343H16.8262V20.837H18.123Z" fill="white"/>
</mask>
<g mask="url(#mask2_3_1088)">
<path d="M33.6848 22.9371V24.8108H34.117C38.4143 24.8108 41.8979 28.0954 41.8979 32.1471V33.0641H20.2844V32.1471C20.2844 28.0954 23.768 24.8108 28.0653 24.8108H28.4975V22.9371C26.6347 22.1028 25.2957 20.3976 25.0724 18.3795C24.4429 18.2956 23.9587 17.7856 23.9587 17.1689V15.7424C23.9587 15.1366 24.4261 14.6337 25.0394 14.5366V13.9084C25.0394 10.7571 27.7489 8.20242 31.0912 8.20242C34.4335 8.20242 37.1429 10.7571 37.1429 13.9084V14.5366C37.7563 14.6337 38.2236 15.1366 38.2236 15.7424V17.1689C38.2236 17.7856 37.7394 18.2956 37.11 18.3795C36.8866 20.3976 35.5476 22.1028 33.6848 22.9371Z" fill="#D0C6AC"/>
<mask id="mask3_3_1088" style="mask-type:luminance" maskUnits="userSpaceOnUse" x="20" y="8" width="22" height="26">
<path d="M33.6848 22.9371V24.8108H34.117C38.4143 24.8108 41.8979 28.0954 41.8979 32.1471V33.0641H20.2844V32.1471C20.2844 28.0954 23.768 24.8108 28.0653 24.8108H28.4975V22.9371C26.6347 22.1028 25.2957 20.3976 25.0724 18.3795C24.4429 18.2956 23.9587 17.7856 23.9587 17.1689V15.7424C23.9587 15.1366 24.4261 14.6337 25.0394 14.5366V13.9084C25.0394 10.7571 27.7489 8.20242 31.0912 8.20242C34.4335 8.20242 37.1429 10.7571 37.1429 13.9084V14.5366C37.7563 14.6337 38.2236 15.1366 38.2236 15.7424V17.1689C38.2236 17.7856 37.7394 18.2956 37.11 18.3795C36.8866 20.3976 35.5476 22.1028 33.6848 22.9371Z" fill="white"/>
</mask>
<g mask="url(#mask3_3_1088)">
<path d="M48.8142 8.20242H20.2844V36.7322H48.8142V8.20242Z" fill="#D08B5B"/>
</g>
<mask id="mask4_3_1088" style="mask-type:luminance" maskUnits="userSpaceOnUse" x="20" y="8" width="22" height="26">
<path d="M33.6848 22.9371V24.8108H34.117C38.4143 24.8108 41.8979 28.0954 41.8979 32.1471V33.0641H20.2844V32.1471C20.2844 28.0954 23.768 24.8108 28.0653 24.8108H28.4975V22.9371C26.6347 22.1028 25.2957 20.3976 25.0724 18.3795C24.4429 18.2956 23.9587 17.7856 23.9587 17.1689V15.7424C23.9587 15.1366 24.4261 14.6337 25.0394 14.5366V13.9084C25.0394 10.7571 27.7489 8.20242 31.0912 8.20242C34.4335 8.20242 37.1429 10.7571 37.1429 13.9084V14.5366C37.7563 14.6337 38.2236 15.1366 38.2236 15.7424V17.1689C38.2236 17.7856 37.7394 18.2956 37.11 18.3795C36.8866 20.3976 35.5476 22.1028 33.6848 22.9371Z" fill="white"/>
</mask>
<g mask="url(#mask4_3_1088)">
<path fill-rule="evenodd" clip-rule="evenodd" d="M37.1429 16.2519V18.5954C37.1429 21.7467 34.4334 24.3014 31.0911 24.3014C27.7488 24.3014 25.0393 21.7467 25.0393 18.5954V16.2519V17.7803C25.0393 20.9316 27.7488 23.4862 31.0911 23.4862C34.4334 23.4862 37.1429 20.9316 37.1429 17.7803V16.2519Z" fill="black" fill-opacity="0.1"/>
</g>
<path fill-rule="evenodd" clip-rule="evenodd" d="M34.7248 24.8381C38.738 25.1305 41.8979 28.2935 41.8979 32.1523V33.0641H20.2844V32.1523C20.2844 28.2583 23.5022 25.0729 27.5674 24.8309C27.5394 24.9406 27.5249 25.053 27.5249 25.1674C27.5249 26.3773 29.1458 27.3581 31.1452 27.3581C33.1446 27.3581 34.7655 26.3773 34.7655 25.1674C34.7655 25.0555 34.7516 24.9456 34.7248 24.8381L34.7248 24.8381Z" fill="#E6E6E6"/>
<mask id="mask5_3_1088" style="mask-type:luminance" maskUnits="userSpaceOnUse" x="20" y="24" width="22" height="10">
<path fill-rule="evenodd" clip-rule="evenodd" d="M34.7248 24.8381C38.738 25.1305 41.8979 28.2935 41.8979 32.1523V33.0641H20.2844V32.1523C20.2844 28.2583 23.5022 25.0729 27.5674 24.8309C27.5394 24.9406 27.5249 25.053 27.5249 25.1674C27.5249 26.3773 29.1458 27.3581 31.1452 27.3581C33.1446 27.3581 34.7655 26.3773 34.7655 25.1674C34.7655 25.0555 34.7516 24.9456 34.7248 24.8381L34.7248 24.8381Z" fill="white"/>
</mask>
<g mask="url(#mask5_3_1088)">
<path d="M45.356 21.856H16.8262V33.0641H45.356V21.856Z" fill="#FFDEB5"/>
</g>
<mask id="mask6_3_1088" style="mask-type:luminance" maskUnits="userSpaceOnUse" x="20" y="24" width="22" height="10">
<path fill-rule="evenodd" clip-rule="evenodd" d="M34.7248 24.8381C38.738 25.1305 41.8979 28.2935 41.8979 32.1523V33.0641H20.2844V32.1523C20.2844 28.2583 23.5022 25.0729 27.5674 24.8309C27.5394 24.9406 27.5249 25.053 27.5249 25.1674C27.5249 26.3773 29.1458 27.3581 31.1452 27.3581C33.1446 27.3581 34.7655 26.3773 34.7655 25.1674C34.7655 25.0555 34.7516 24.9456 34.7248 24.8381L34.7248 24.8381Z" fill="white"/>
</mask>
<g mask="url(#mask6_3_1088)">
<path fill-rule="evenodd" clip-rule="evenodd" d="M33.4644 29.4199C33.5071 29.5651 33.2236 29.692 33.1288 29.7682C32.966 29.899 32.7975 30.0367 32.6073 30.1297C32.5265 30.1692 32.4395 30.2013 32.3521 30.2249C32.2174 30.2613 32.2327 30.2358 32.1813 30.3437C32.0908 30.5333 32.0673 30.7853 31.9856 30.9868C31.8014 31.4406 31.3623 32.4949 30.6599 32.0321C30.4364 31.8849 30.3143 31.5994 30.1886 31.3764C30.0444 31.1204 29.9063 30.8151 29.8233 30.5357C29.7828 30.3996 29.8085 30.3533 29.7013 30.2896C29.6339 30.2497 29.5198 30.2394 29.4436 30.2102C29.2816 30.148 29.1397 30.0638 29.0019 29.9625C28.8681 29.8641 28.3416 29.4581 28.7715 29.3827C28.9687 29.3481 29.2272 29.3609 29.4271 29.3705C29.6462 29.3809 29.8673 29.4285 30.0622 29.5269C30.2611 29.6275 30.2028 29.5983 30.409 29.5421C30.0501 29.4275 29.6905 29.2367 29.449 28.9531C29.3185 28.8 29.0168 28.1733 29.2436 28.0295C29.5159 27.8567 29.5387 28.5742 29.6152 28.6986C29.7874 28.9782 30.1024 29.0837 30.3763 29.2385C30.1882 29.0686 30.0478 28.8814 29.9793 28.6406C29.9496 28.5362 29.8684 28.2852 29.9233 28.1836C29.9804 28.0776 30.1148 28.0709 30.1889 28.1611C30.2557 28.2423 30.2389 28.4292 30.2617 28.5271C30.2996 28.6889 30.3613 28.8134 30.4759 28.9388C30.6386 29.1166 30.8452 29.2621 31.0886 29.3185C31.6426 29.4467 31.8364 28.8999 31.9107 28.4784C31.9289 28.3752 31.9021 28.204 32.0242 28.1545C32.172 28.0945 32.2291 28.2305 32.2334 28.336C32.2429 28.5717 32.1193 28.9327 31.9993 29.1353C32.3009 28.9589 32.5401 28.679 32.6368 28.352C32.6726 28.231 32.6435 27.9611 32.7637 27.8932C32.9301 27.799 32.983 27.9866 32.9772 28.0992C32.9427 28.763 32.4046 29.3667 31.7356 29.5327C31.8997 29.61 31.8781 29.6274 32.0435 29.5351C32.1391 29.4816 32.2428 29.4403 32.3489 29.4096C32.5078 29.3637 32.6791 29.3402 32.8439 29.3265C32.9757 29.3155 33.4139 29.2433 33.4644 29.4199ZM31.5084 30.2744C31.6013 30.0565 31.2387 30.0486 31.2034 30.2841C31.1585 30.5841 31.5012 30.6077 31.5084 30.2744ZM31.2998 31.193C31.371 30.9693 30.9187 30.9778 30.8789 31.1757C30.8317 31.4092 31.2469 31.352 31.2998 31.193ZM30.7349 30.5168C30.986 30.5168 31.0884 30.2045 30.8426 30.1233C30.5302 30.0201 30.4303 30.5168 30.7349 30.5168Z" fill="white"/>
</g>
<path fill-rule="evenodd" clip-rule="evenodd" d="M29.5781 19.7162C29.5781 20.504 30.2555 21.1427 31.0911 21.1427C31.9266 21.1427 32.604 20.504 32.604 19.7162" fill="black" fill-opacity="0.7"/>
<path fill-rule="evenodd" clip-rule="evenodd" d="M29.7944 17.7803C29.7944 18.2305 30.375 18.5954 31.0912 18.5954C31.8074 18.5954 32.3881 18.2305 32.3881 17.7803" fill="black" fill-opacity="0.16"/>
<path d="M28.2815 16.5576C28.6396 16.5576 28.9299 16.2839 28.9299 15.9462C28.9299 15.6086 28.6396 15.3349 28.2815 15.3349C27.9234 15.3349 27.6331 15.6086 27.6331 15.9462C27.6331 16.2839 27.9234 16.5576 28.2815 16.5576Z" fill="black" fill-opacity="0.6"/>
<path d="M33.9011 16.5576C34.2592 16.5576 34.5495 16.2839 34.5495 15.9462C34.5495 15.6086 34.2592 15.3349 33.9011 15.3349C33.543 15.3349 33.2527 15.6086 33.2527 15.9462C33.2527 16.2839 33.543 16.5576 33.9011 16.5576Z" fill="black" fill-opacity="0.6"/>
<path fill-rule="evenodd" clip-rule="evenodd" d="M28.4146 14.9702L28.3162 15.0113C27.7497 15.2233 26.8911 15.1344 26.3661 14.8968C26.3048 14.8691 26.3467 14.7793 26.4095 14.7839C28.0217 14.9012 29.1071 13.954 29.4759 13.3126C29.4868 13.2936 29.5199 13.2914 29.528 13.3092C29.7774 13.8511 29.0471 14.7341 28.4146 14.9702Z" fill="black" fill-opacity="0.6"/>
<path fill-rule="evenodd" clip-rule="evenodd" d="M33.7675 14.9702L33.8659 15.0113C34.4324 15.2233 35.2911 15.1344 35.8161 14.8968C35.8773 14.8691 35.8355 14.7793 35.7727 14.7839C34.1604 14.9012 33.075 13.954 32.7062 13.3126C32.6953 13.2936 32.6623 13.2914 32.6541 13.3092C32.4048 13.8511 33.135 14.7341 33.7675 14.9702Z" fill="black" fill-opacity="0.6"/>
<mask id="mask7_3_1088" style="mask-type:luminance" maskUnits="userSpaceOnUse" x="16" y="4" width="30" height="30">
<path d="M45.356 4.5343H16.8262V33.0641H45.356V4.5343Z" fill="white"/>
</mask>
<g mask="url(#mask7_3_1088)">
<path fill-rule="evenodd" clip-rule="evenodd" d="M26.5425 10.1752H35.6391C37.6111 9.1025 37.9813 7.19888 36.5862 5.54567C36.2389 5.13411 35.6391 6.74286 33.7958 6.8422C31.9525 6.94154 32.1294 6.20022 30.1679 6.47778C28.2063 6.75534 28.423 8.24097 27.143 8.59743C26.2897 8.83507 26.0895 9.36098 26.5425 10.1752Z" fill="#252E32"/>
<mask id="mask8_3_1088" style="mask-type:luminance" maskUnits="userSpaceOnUse" x="26" y="5" width="12" height="6">
<path fill-rule="evenodd" clip-rule="evenodd" d="M26.5425 10.1752H35.6391C37.6111 9.1025 37.9813 7.19888 36.5862 5.54567C36.2389 5.13411 35.6391 6.74286 33.7958 6.8422C31.9525 6.94154 32.1294 6.20022 30.1679 6.47778C28.2063 6.75534 28.423 8.24097 27.143 8.59743C26.2897 8.83507 26.0895 9.36098 26.5425 10.1752Z" fill="white"/>
</mask>
<g mask="url(#mask8_3_1088)">
<path d="M45.2478 4.5343H16.718V33.0641H45.2478V4.5343Z" fill="#A55728"/>
</g>
<g filter="url(#filter0_d_3_1088)">
<path fill-rule="evenodd" clip-rule="evenodd" d="M29.2808 14.7516C29.5371 14.7538 29.6582 14.794 29.7019 15.046C29.7461 15.3013 29.7031 15.5883 29.6521 15.8397C29.5743 16.2237 29.4448 16.5998 29.1434 16.8804C28.9846 17.0282 28.791 17.146 28.585 17.2264C28.4756 17.2691 28.3601 17.3 28.2446 17.3234C28.2109 17.3302 27.9227 17.3676 28.0995 17.3486C27.687 17.393 27.2395 17.3912 26.895 17.1437C26.5132 16.8694 26.2518 16.4353 26.1368 16.0029C26.0696 15.7499 25.9282 15.1448 26.1865 14.9425C26.4823 14.7107 29.2808 14.7516 29.2808 14.7516ZM26.6838 14.0603C26.0959 14.0793 25.7035 14.1768 25.4135 14.7306C24.8821 15.7455 25.7917 17.2676 26.8064 17.6824C27.9926 18.1674 29.3179 17.6307 29.945 16.6601C30.2771 16.1462 30.445 15.3678 30.4342 14.7749C30.4205 14.0181 29.8598 13.9971 29.2008 14.0137L26.6838 14.0603Z" fill="#D6EAF2"/>
<path fill-rule="evenodd" clip-rule="evenodd" d="M32.8935 14.7513C32.6372 14.7536 32.516 14.7938 32.4723 15.0458C32.4281 15.3011 32.4711 15.5881 32.5221 15.8395C32.6 16.2234 32.7295 16.5996 33.0309 16.8802C33.1896 17.028 33.3833 17.1458 33.5893 17.2262C33.6986 17.2689 33.8141 17.2997 33.9296 17.3231C33.9634 17.33 34.2515 17.3674 34.0748 17.3484C34.4873 17.3928 34.9348 17.391 35.2792 17.1435C35.661 16.8691 35.9225 16.4351 36.0374 16.0027C36.1047 15.7497 36.246 15.1446 35.9878 14.9423C35.692 14.7105 32.8935 14.7513 32.8935 14.7513ZM35.4904 14.06C36.0784 14.0791 36.4708 14.1765 36.7607 14.7303C37.2921 15.7453 36.3826 17.2674 35.3679 17.6822C34.1816 18.1672 32.8564 17.6305 32.2292 16.6599C31.8971 16.1459 31.7292 15.3676 31.74 14.7746C31.7538 14.0178 32.3144 13.9968 32.9734 14.0135L35.4904 14.06Z" fill="#D6EAF2"/>
<path fill-rule="evenodd" clip-rule="evenodd" d="M25.7089 14.5123C25.3402 14.5318 24.9188 14.5365 24.5734 14.6868C24.2077 14.8459 24.1511 15.2063 24.6122 15.256C24.8199 15.2784 25.0278 15.2414 25.2323 15.207C25.3998 15.1788 25.6273 15.1879 25.7856 15.1276C26.0805 15.0152 26.0615 14.4932 25.7089 14.5123Z" fill="#D6EAF2"/>
<path fill-rule="evenodd" clip-rule="evenodd" d="M36.4656 14.5123C36.8343 14.5318 37.2557 14.5365 37.6011 14.6868C37.9669 14.8459 38.0234 15.2063 37.5623 15.256C37.3546 15.2784 37.1467 15.2414 36.9422 15.207C36.7747 15.1788 36.5472 15.1879 36.389 15.1276C36.094 15.0152 36.113 14.4932 36.4656 14.5123Z" fill="#D6EAF2"/>
<path fill-rule="evenodd" clip-rule="evenodd" d="M32.1834 14.7248C31.973 14.4904 31.4249 14.3551 31.0791 14.3551C30.7333 14.3551 30.2013 14.4904 29.991 14.7248C29.8849 14.843 29.8813 15.0011 30.0651 15.0751C30.294 15.1674 30.4984 15.0001 30.6816 14.9126C30.9159 14.8006 31.2759 14.8129 31.4928 14.9126C31.6774 14.9974 31.8803 15.1674 32.1092 15.0751C32.293 15.0011 32.2894 14.843 32.1834 14.7248Z" fill="#D6EAF2"/>
</g>
</g>
</g>
<mask id="mask9_3_1088" style="mask-type:luminance" maskUnits="userSpaceOnUse" x="-4" y="0" width="29" height="28">
<path d="M-2.13537 15.7557C-2.13537 22.282 3.47583 27.5725 10.3976 27.5725C17.3194 27.5725 22.9306 22.282 22.9306 15.7557H24.1839V0H-3.38867V15.7557H-2.13537Z" fill="white"/>
</mask>
<g mask="url(#mask9_3_1088)">
<path d="M12.9041 17.7854V19.5962H13.3219C17.4749 19.5962 20.8417 22.7705 20.8417 26.6863V27.5725H-0.0466309V26.6863C-0.0466309 22.7705 3.32009 19.5962 7.47315 19.5962H7.89092V17.7854C6.09062 16.979 4.79655 15.331 4.58066 13.3807C3.97231 13.2996 3.50438 12.8067 3.50438 12.2107V10.8321C3.50438 10.2466 3.95604 9.76049 4.54879 9.66673V9.05955C4.54879 6.01397 7.16735 3.54504 10.3975 3.54504C13.6277 3.54504 16.2462 6.01397 16.2462 9.05955V9.66673C16.839 9.76049 17.2906 10.2466 17.2906 10.8321V12.2107C17.2906 12.8067 16.8227 13.2996 16.2144 13.3807C15.9985 15.331 14.7044 16.979 12.9041 17.7854Z" fill="#D0C6AC"/>
<mask id="mask10_3_1088" style="mask-type:luminance" maskUnits="userSpaceOnUse" x="-1" y="3" width="22" height="25">
<path d="M12.9041 17.7854V19.5962H13.3219C17.4749 19.5962 20.8417 22.7705 20.8417 26.6863V27.5725H-0.0466309V26.6863C-0.0466309 22.7705 3.32009 19.5962 7.47315 19.5962H7.89092V17.7854C6.09062 16.979 4.79655 15.331 4.58066 13.3807C3.97231 13.2996 3.50438 12.8067 3.50438 12.2107V10.8321C3.50438 10.2466 3.95604 9.76049 4.54879 9.66673V9.05955C4.54879 6.01397 7.16735 3.54504 10.3975 3.54504C13.6277 3.54504 16.2462 6.01397 16.2462 9.05955V9.66673C16.839 9.76049 17.2906 10.2466 17.2906 10.8321V12.2107C17.2906 12.8067 16.8227 13.2996 16.2144 13.3807C15.9985 15.331 14.7044 16.979 12.9041 17.7854Z" fill="white"/>
</mask>
<g mask="url(#mask10_3_1088)">
<path d="M27.5259 3.54504H-0.0466309V31.1176H27.5259V3.54504Z" fill="#D08B5B"/>
</g>
<mask id="mask11_3_1088" style="mask-type:luminance" maskUnits="userSpaceOnUse" x="-1" y="3" width="22" height="25">
<path d="M12.9041 17.7854V19.5962H13.3219C17.4749 19.5962 20.8417 22.7705 20.8417 26.6863V27.5725H-0.0466309V26.6863C-0.0466309 22.7705 3.32009 19.5962 7.47315 19.5962H7.89092V17.7854C6.09062 16.979 4.79655 15.331 4.58066 13.3807C3.97231 13.2996 3.50438 12.8067 3.50438 12.2107V10.8321C3.50438 10.2466 3.95604 9.76049 4.54879 9.66673V9.05955C4.54879 6.01397 7.16735 3.54504 10.3975 3.54504C13.6277 3.54504 16.2462 6.01397 16.2462 9.05955V9.66673C16.839 9.76049 17.2906 10.2466 17.2906 10.8321V12.2107C17.2906 12.8067 16.8227 13.2996 16.2144 13.3807C15.9985 15.331 14.7044 16.979 12.9041 17.7854Z" fill="white"/>
</mask>
<g mask="url(#mask11_3_1088)">
<path fill-rule="evenodd" clip-rule="evenodd" d="M16.2463 11.3244V13.5893C16.2463 16.6349 13.6277 19.1038 10.3975 19.1038C7.16739 19.1038 4.54883 16.6349 4.54883 13.5893V11.3244V12.8015C4.54883 15.8471 7.16739 18.316 10.3975 18.316C13.6277 18.316 16.2463 15.8471 16.2463 12.8015V11.3244Z" fill="black" fill-opacity="0.1"/>
</g>
<path fill-rule="evenodd" clip-rule="evenodd" d="M14.5041 19.6884C18.0955 20.2231 20.8417 23.1549 20.8417 26.6914V27.5725H-0.0466309V26.6914C-0.0466309 23.1548 2.69959 20.2231 6.29106 19.6884C6.38525 20.1876 6.64978 20.6621 7.08005 21.0279L10.1177 23.6107C10.2767 23.7459 10.5183 23.7459 10.6773 23.6107L13.715 21.0279C13.7594 20.9901 13.8024 20.9508 13.8439 20.9101C14.2007 20.56 14.4203 20.1331 14.5041 19.6884Z" fill="#E6E6E6"/>
<mask id="mask12_3_1088" style="mask-type:luminance" maskUnits="userSpaceOnUse" x="-1" y="19" width="22" height="9">
<path fill-rule="evenodd" clip-rule="evenodd" d="M14.5041 19.6884C18.0955 20.2231 20.8417 23.1549 20.8417 26.6914V27.5725H-0.0466309V26.6914C-0.0466309 23.1548 2.69959 20.2231 6.29106 19.6884C6.38525 20.1876 6.64978 20.6621 7.08005 21.0279L10.1177 23.6107C10.2767 23.7459 10.5183 23.7459 10.6773 23.6107L13.715 21.0279C13.7594 20.9901 13.8024 20.9508 13.8439 20.9101C14.2007 20.56 14.4203 20.1331 14.5041 19.6884Z" fill="white"/>
</mask>
<g mask="url(#mask12_3_1088)">
<path d="M24.1839 16.7405H-3.38867V27.5725H24.1839V16.7405Z" fill="white"/>
</g>
<path d="M8.9353 14.771C8.9353 15.3 9.57847 15.6573 10.3975 15.6573C11.2165 15.6573 11.8597 15.3 11.8597 14.771C11.8597 14.6622 11.7605 14.5741 11.6508 14.5741C11.5158 14.5741 11.4555 14.6632 11.4419 14.771C11.3121 15.0603 10.9911 15.2354 10.3975 15.2634C9.80391 15.2354 9.48283 15.0603 9.35307 14.771C9.33947 14.6632 9.2792 14.5741 9.14419 14.5741C9.03449 14.5741 8.9353 14.6622 8.9353 14.771Z" fill="black" fill-opacity="0.6"/>
<path fill-rule="evenodd" clip-rule="evenodd" d="M9.14429 12.8016C9.14429 13.2367 9.70541 13.5894 10.3976 13.5894C11.0898 13.5894 11.6509 13.2367 11.6509 12.8016" fill="black" fill-opacity="0.16"/>
<path d="M8.30435 9.84735C8.03792 9.84735 7.77435 10.0423 7.62983 10.2236C7.48472 10.0423 7.22173 9.84735 6.95531 9.84735C6.382 9.84735 6.01099 10.1757 6.01099 10.5998C6.01099 11.164 6.47177 11.4989 6.95531 11.8539C7.12799 11.9757 7.45461 12.2873 7.49493 12.3556C7.53524 12.4238 7.71488 12.4262 7.76473 12.3556C7.81459 12.2849 8.13138 11.9757 8.30435 11.8539C8.7876 11.4989 9.24867 11.164 9.24867 10.5998C9.24867 10.1757 8.87766 9.84735 8.30435 9.84735Z" fill="#FF5353" fill-opacity="0.8"/>
<path d="M13.8397 9.84735C13.5733 9.84735 13.3097 10.0423 13.1652 10.2236C13.0201 10.0423 12.7571 9.84735 12.4907 9.84735C11.9174 9.84735 11.5464 10.1757 11.5464 10.5998C11.5464 11.164 12.0072 11.4989 12.4907 11.8539C12.6634 11.9757 12.99 12.2873 13.0303 12.3556C13.0706 12.4238 13.2503 12.4262 13.3001 12.3556C13.35 12.2849 13.6668 11.9757 13.8397 11.8539C14.323 11.4989 14.7841 11.164 14.7841 10.5998C14.7841 10.1757 14.4131 9.84735 13.8397 9.84735Z" fill="#FF5353" fill-opacity="0.8"/>
<path fill-rule="evenodd" clip-rule="evenodd" d="M7.32132 8.68029C6.71483 8.7067 5.73432 9.12222 5.75958 9.69888C5.76042 9.71775 5.78982 9.72604 5.80419 9.71152C6.09191 9.42011 8.13483 9.12563 8.85439 9.28168C8.92024 9.29598 8.97028 9.23473 8.92856 9.19048C8.57115 8.81153 7.86467 8.65612 7.32132 8.68029Z" fill="black" fill-opacity="0.6"/>
<path fill-rule="evenodd" clip-rule="evenodd" d="M13.5781 8.68029C14.1846 8.7067 15.1651 9.12222 15.1398 9.69888C15.139 9.71775 15.1096 9.72604 15.0952 9.71152C14.8075 9.42011 12.7646 9.12563 12.045 9.28168C11.9792 9.29598 11.9291 9.23473 11.9708 9.19048C12.3283 8.81153 13.0347 8.65612 13.5781 8.68029Z" fill="black" fill-opacity="0.6"/>
<mask id="mask13_3_1088" style="mask-type:luminance" maskUnits="userSpaceOnUse" x="-4" y="0" width="29" height="28">
<path d="M24.1839 0H-3.38867V27.5725H24.1839V0Z" fill="white"/>
</mask>
<g mask="url(#mask13_3_1088)">
<path fill-rule="evenodd" clip-rule="evenodd" d="M12.5927 16.3593C12.1889 16.91 11.8867 16.5383 11.4564 16.2359C11.1973 16.0538 10.8113 15.8274 10.4503 15.8386C10.0893 15.8274 9.70329 16.0538 9.4442 16.2359C9.01389 16.5383 8.71176 16.91 8.30786 16.3593C8.00472 15.946 8.13156 15.251 8.41481 14.8599C8.81784 14.3034 9.3646 14.5726 9.97593 14.5091C10.1422 14.4918 10.3091 14.4483 10.4503 14.3771C10.5915 14.4483 10.7584 14.4918 10.9247 14.5091C11.5361 14.5726 12.0828 14.3034 12.4858 14.8599C12.769 15.251 12.8959 15.946 12.5927 16.3593ZM16.2872 9.65039C15.9295 11.0364 15.7652 12.4504 15.5059 13.8524C15.4518 14.1446 15.3927 14.4358 15.3298 14.7267C15.3167 14.7877 15.3036 15.0145 15.2398 15.0432C15.0465 15.1303 14.6525 14.6673 14.5471 14.5627C14.2825 14.3002 14.0202 14.0353 13.6979 13.8293C13.0468 13.4131 12.2844 13.167 11.4912 13.1086C11.1592 13.0841 10.7105 13.1267 10.3977 13.3048C10.0849 13.1267 9.63606 13.0841 9.30412 13.1086C8.51084 13.167 7.74849 13.4131 7.09734 13.8293C6.77508 14.0353 6.51277 14.3002 6.24813 14.5627C6.14277 14.6673 5.74877 15.1303 5.55544 15.0432C5.49162 15.0145 5.47861 14.7877 5.46542 14.7267C5.40261 14.4358 5.34344 14.1446 5.2894 13.8524C5.0301 12.4504 4.86577 11.0364 4.5081 9.65039C4.40403 9.65039 4.31273 11.4966 4.30112 11.6686C4.25385 12.3672 4.19866 13.0502 4.26919 13.7495C4.39078 14.9556 4.51752 16.4681 5.4923 17.3892C6.37308 18.2215 7.65191 18.3955 8.75491 18.9208C8.89693 18.9884 9.08531 19.072 9.28846 19.1404C9.50246 19.2943 9.92689 19.3993 10.4158 19.3993C10.9287 19.3993 11.3706 19.2838 11.573 19.1174C11.7507 19.0539 11.9139 18.981 12.0404 18.9208C13.1433 18.3953 14.4222 18.2215 15.303 17.3892C16.2777 16.4681 16.4045 14.9556 16.5261 13.7495C16.5966 13.0502 16.5414 12.3672 16.4942 11.6686C16.4825 11.4966 16.3912 9.65039 16.2872 9.65039Z" fill="#252E32"/>
<mask id="mask14_3_1088" style="mask-type:luminance" maskUnits="userSpaceOnUse" x="4" y="9" width="13" height="11">
<path fill-rule="evenodd" clip-rule="evenodd" d="M12.5927 16.3593C12.1889 16.91 11.8867 16.5383 11.4564 16.2359C11.1973 16.0538 10.8113 15.8274 10.4503 15.8386C10.0893 15.8274 9.70329 16.0538 9.4442 16.2359C9.01389 16.5383 8.71176 16.91 8.30786 16.3593C8.00472 15.946 8.13156 15.251 8.41481 14.8599C8.81784 14.3034 9.3646 14.5726 9.97593 14.5091C10.1422 14.4918 10.3091 14.4483 10.4503 14.3771C10.5915 14.4483 10.7584 14.4918 10.9247 14.5091C11.5361 14.5726 12.0828 14.3034 12.4858 14.8599C12.769 15.251 12.8959 15.946 12.5927 16.3593ZM16.2872 9.65039C15.9295 11.0364 15.7652 12.4504 15.5059 13.8524C15.4518 14.1446 15.3927 14.4358 15.3298 14.7267C15.3167 14.7877 15.3036 15.0145 15.2398 15.0432C15.0465 15.1303 14.6525 14.6673 14.5471 14.5627C14.2825 14.3002 14.0202 14.0353 13.6979 13.8293C13.0468 13.4131 12.2844 13.167 11.4912 13.1086C11.1592 13.0841 10.7105 13.1267 10.3977 13.3048C10.0849 13.1267 9.63606 13.0841 9.30412 13.1086C8.51084 13.167 7.74849 13.4131 7.09734 13.8293C6.77508 14.0353 6.51277 14.3002 6.24813 14.5627C6.14277 14.6673 5.74877 15.1303 5.55544 15.0432C5.49162 15.0145 5.47861 14.7877 5.46542 14.7267C5.40261 14.4358 5.34344 14.1446 5.2894 13.8524C5.0301 12.4504 4.86577 11.0364 4.5081 9.65039C4.40403 9.65039 4.31273 11.4966 4.30112 11.6686C4.25385 12.3672 4.19866 13.0502 4.26919 13.7495C4.39078 14.9556 4.51752 16.4681 5.4923 17.3892C6.37308 18.2215 7.65191 18.3955 8.75491 18.9208C8.89693 18.9884 9.08531 19.072 9.28846 19.1404C9.50246 19.2943 9.92689 19.3993 10.4158 19.3993C10.9287 19.3993 11.3706 19.2838 11.573 19.1174C11.7507 19.0539 11.9139 18.981 12.0404 18.9208C13.1433 18.3953 14.4222 18.2215 15.303 17.3892C16.2777 16.4681 16.4045 14.9556 16.5261 13.7495C16.5966 13.0502 16.5414 12.3672 16.4942 11.6686C16.4825 11.4966 16.3912 9.65039 16.2872 9.65039Z" fill="white"/>
</mask>
<g mask="url(#mask14_3_1088)">
<path d="M25.855 7.09009H-1.71753V31.1176H25.855V7.09009Z" fill="#4A312C"/>
</g>
<path fill-rule="evenodd" clip-rule="evenodd" d="M8.5114 2.79046C8.4084 2.81227 8.3073 2.83511 8.20822 2.85868C6.63199 3.23366 5.69953 4.29849 4.8995 5.87374C4.50668 6.64723 4.27382 7.56191 4.238 8.41764C4.22394 8.75362 4.27199 9.10043 4.368 9.42393C4.40322 9.54268 4.59312 9.95437 4.64526 9.62172C4.66261 9.51097 4.59909 9.35819 4.59295 9.24051C4.58489 9.08608 4.59355 8.92964 4.60471 8.77544C4.62559 8.48716 4.68009 8.20435 4.7771 7.92953C4.91571 7.53683 5.09216 7.11104 5.36225 6.7797C6.03077 5.95967 6.50874 4.25459 10.3976 4.10346C14.2865 3.95232 15.489 6.64312 15.8477 7.21816C16.2723 7.89902 16.0769 8.73531 16.2066 9.47322C16.2559 9.75383 16.3679 9.74754 16.4293 9.49656C16.5334 9.07021 16.5826 8.62727 16.5494 8.18897C16.4744 7.19953 16.0893 4.59927 13.9809 3.44717C13.4125 3.13658 12.8456 2.92343 12.2898 2.7851C12.6093 2.49247 12.7998 2.12383 12.7998 1.72328C12.7998 0.77154 11.7243 0 10.3976 0C9.07097 0 7.99549 0.77154 7.99549 1.72328C7.99549 2.12629 8.18832 2.49698 8.5114 2.79046Z" fill="#28354B"/>
<mask id="mask15_3_1088" style="mask-type:luminance" maskUnits="userSpaceOnUse" x="4" y="0" width="13" height="10">
<path fill-rule="evenodd" clip-rule="evenodd" d="M8.5114 2.79046C8.4084 2.81227 8.3073 2.83511 8.20822 2.85868C6.63199 3.23366 5.69953 4.29849 4.8995 5.87374C4.50668 6.64723 4.27382 7.56191 4.238 8.41764C4.22394 8.75362 4.27199 9.10043 4.368 9.42393C4.40322 9.54268 4.59312 9.95437 4.64526 9.62172C4.66261 9.51097 4.59909 9.35819 4.59295 9.24051C4.58489 9.08608 4.59355 8.92964 4.60471 8.77544C4.62559 8.48716 4.68009 8.20435 4.7771 7.92953C4.91571 7.53683 5.09216 7.11104 5.36225 6.7797C6.03077 5.95967 6.50874 4.25459 10.3976 4.10346C14.2865 3.95232 15.489 6.64312 15.8477 7.21816C16.2723 7.89902 16.0769 8.73531 16.2066 9.47322C16.2559 9.75383 16.3679 9.74754 16.4293 9.49656C16.5334 9.07021 16.5826 8.62727 16.5494 8.18897C16.4744 7.19953 16.0893 4.59927 13.9809 3.44717C13.4125 3.13658 12.8456 2.92343 12.2898 2.7851C12.6093 2.49247 12.7998 2.12383 12.7998 1.72328C12.7998 0.77154 11.7243 0 10.3976 0C9.07097 0 7.99549 0.77154 7.99549 1.72328C7.99549 2.12629 8.18832 2.49698 8.5114 2.79046Z" fill="white"/>
</mask>
<g mask="url(#mask15_3_1088)">
<path d="M24.0794 0H-3.49316V27.5725H24.0794V0Z" fill="#ECDCBF"/>
</g>
<g filter="url(#filter1_d_3_1088)">
<path fill-rule="evenodd" clip-rule="evenodd" d="M9.53214 11.0782C9.53214 12.0337 8.67049 12.8086 7.2347 12.8086H6.94748C5.51169 12.8086 4.93726 12.0334 4.93726 11.0782C4.93726 10.1225 5.07137 9.34793 7.0816 9.34793H7.3878C9.39803 9.34793 9.53214 10.1225 9.53214 11.0782Z" fill="black" fill-opacity="0.7"/>
<path style="mix-blend-mode:screen" fill-rule="evenodd" clip-rule="evenodd" d="M9.53214 11.0782C9.53214 12.0337 8.67049 12.8086 7.2347 12.8086H6.94748C5.51169 12.8086 4.93726 12.0334 4.93726 11.0782C4.93726 10.1225 5.07137 9.34793 7.0816 9.34793H7.3878C9.39803 9.34793 9.53214 10.1225 9.53214 11.0782Z" fill="url(#paint0_linear_3_1088)"/>
<path fill-rule="evenodd" clip-rule="evenodd" d="M15.9623 11.0782C15.9623 12.0337 15.101 12.8086 13.6649 12.8086H13.3777C11.9419 12.8086 11.3674 12.0334 11.3674 11.0782C11.3674 10.1225 11.5015 9.34793 13.5118 9.34793H13.818C15.8279 9.34793 15.9623 10.1225 15.9623 11.0782Z" fill="black" fill-opacity="0.7"/>
<path style="mix-blend-mode:screen" fill-rule="evenodd" clip-rule="evenodd" d="M15.9623 11.0782C15.9623 12.0337 15.101 12.8086 13.6649 12.8086H13.3777C11.9419 12.8086 11.3674 12.0334 11.3674 11.0782C11.3674 10.1225 11.5015 9.34793 13.5118 9.34793H13.818C15.8279 9.34793 15.9623 10.1225 15.9623 11.0782Z" fill="url(#paint1_linear_3_1088)"/>
<path d="M7.23475 13.097H6.94753C5.49705 13.097 4.6311 12.3423 4.6311 11.0783C4.6311 10.0568 4.82034 9.05957 7.08165 9.05957H7.38785C9.64916 9.05957 9.8384 10.0568 9.8384 11.0783C9.8384 12.2667 8.76791 13.097 7.23475 13.097ZM7.08165 9.63605C5.24351 9.63605 5.24351 10.2725 5.24351 11.0783C5.24351 11.7361 5.539 12.5202 6.94753 12.5202H7.23475C8.4072 12.5202 9.22599 11.9273 9.22599 11.0783C9.22599 10.2725 9.22599 9.63605 7.38785 9.63605H7.08165Z" fill="#252C2F"/>
<path d="M13.6649 13.097H13.3777C11.9272 13.097 11.0613 12.3423 11.0613 11.0783C11.0613 10.0568 11.2505 9.05957 13.5118 9.05957H13.818C16.0793 9.05957 16.2686 10.0568 16.2686 11.0783C16.2686 12.2667 15.1981 13.097 13.6649 13.097ZM13.5118 9.63605C11.6737 9.63605 11.6737 10.2725 11.6737 11.0783C11.6737 11.7361 11.9695 12.5202 13.3777 12.5202H13.6649C14.8374 12.5202 15.6562 11.9273 15.6562 11.0783C15.6562 10.2725 15.6562 9.63605 13.818 9.63605H13.5118Z" fill="#252C2F"/>
<path d="M4.01958 9.63634C4.09123 9.56886 4.87511 9.05957 7.08162 9.05957C8.9317 9.05957 9.32333 9.24471 9.91614 9.52445L9.95953 9.5451C10.0007 9.55914 10.2115 9.62817 10.458 9.63577C10.6827 9.62647 10.8748 9.56777 10.9309 9.54896C11.6075 9.23166 12.2698 9.05957 13.8181 9.05957C16.0246 9.05957 16.8085 9.56886 16.8801 9.63634C17.0495 9.63634 17.1863 9.76525 17.1863 9.92473V10.2131C17.1863 10.3726 17.0495 10.5015 16.8801 10.5015C16.8801 10.5015 16.2677 10.5015 16.2677 10.7899C16.2677 11.0783 15.9615 10.3726 15.9615 10.2131V9.93223C15.5881 9.79442 14.9196 9.63634 13.8181 9.63634C12.5909 9.63634 11.9797 9.74772 11.4554 9.95609L11.4612 9.96972L11.2006 10.0689L11.461 10.1682L11.2312 10.7028L10.9474 10.5946C10.922 10.585 10.8673 10.5676 10.7915 10.5496C10.58 10.4993 10.3627 10.484 10.1705 10.522C10.0999 10.536 10.0345 10.5569 9.97444 10.5852L9.7006 10.7143L9.4266 10.1984L9.70045 10.0694L9.70111 10.0691L9.43877 9.96914L9.44713 9.94966C8.99499 9.7465 8.57807 9.63634 7.08162 9.63634C5.98017 9.63634 5.3117 9.79433 4.93819 9.93214V10.2131C4.93819 10.3726 4.63199 11.0783 4.63199 10.7899C4.63199 10.5015 4.01958 10.5015 4.01958 10.5015C3.85056 10.5015 3.71338 10.3726 3.71338 10.2131V9.92473C3.71338 9.76525 3.85056 9.63634 4.01958 9.63634Z" fill="#252C2F"/>
</g>
</g>
</g>
<mask id="mask16_3_1088" style="mask-type:luminance" maskUnits="userSpaceOnUse" x="5" y="16" width="28" height="27">
<path d="M7.15837 31.292C7.15837 37.5566 12.5446 42.6351 19.1889 42.6351C25.8332 42.6351 31.2194 37.5566 31.2194 31.292H32.4225V16.168H5.95532V31.292H7.15837Z" fill="white"/>
</mask>
<g mask="url(#mask16_3_1088)">
<path d="M21.5951 33.2403V34.9785H21.9961C25.9827 34.9785 29.2144 38.0256 29.2144 41.7843V42.6351H9.16357V41.7843C9.16357 38.0256 12.3953 34.9785 16.3819 34.9785H16.7829V33.2403C15.0548 32.4663 13.8126 30.8843 13.6054 29.0122C13.0214 28.9343 12.5722 28.4612 12.5722 27.8891V26.5657C12.5722 26.0037 13.0058 25.5371 13.5748 25.4471V24.8643C13.5748 21.9408 16.0883 19.5709 19.189 19.5709C22.2897 19.5709 24.8032 21.9408 24.8032 24.8643V25.4471C25.3722 25.5371 25.8058 26.0037 25.8058 26.5657V27.8891C25.8058 28.4612 25.3566 28.9343 24.7727 29.0122C24.5654 30.8843 23.3232 32.4663 21.5951 33.2403Z" fill="#D0C6AC"/>
<mask id="mask17_3_1088" style="mask-type:luminance" maskUnits="userSpaceOnUse" x="9" y="19" width="21" height="24">
<path d="M21.5951 33.2403V34.9785H21.9961C25.9827 34.9785 29.2144 38.0256 29.2144 41.7843V42.6351H9.16357V41.7843C9.16357 38.0256 12.3953 34.9785 16.3819 34.9785H16.7829V33.2403C15.0548 32.4663 13.8126 30.8843 13.6054 29.0122C13.0214 28.9343 12.5722 28.4612 12.5722 27.8891V26.5657C12.5722 26.0037 13.0058 25.5371 13.5748 25.4471V24.8643C13.5748 21.9408 16.0883 19.5709 19.189 19.5709C22.2897 19.5709 24.8032 21.9408 24.8032 24.8643V25.4471C25.3722 25.5371 25.8058 26.0037 25.8058 26.5657V27.8891C25.8058 28.4612 25.3566 28.9343 24.7727 29.0122C24.5654 30.8843 23.3232 32.4663 21.5951 33.2403Z" fill="white"/>
</mask>
<g mask="url(#mask17_3_1088)">
<path d="M35.6307 19.5709H9.16357V46.038H35.6307V19.5709Z" fill="#FFDBB4"/>
</g>
<mask id="mask18_3_1088" style="mask-type:luminance" maskUnits="userSpaceOnUse" x="9" y="19" width="21" height="24">
<path d="M21.5951 33.2403V34.9785H21.9961C25.9827 34.9785 29.2144 38.0256 29.2144 41.7843V42.6351H9.16357V41.7843C9.16357 38.0256 12.3953 34.9785 16.3819 34.9785H16.7829V33.2403C15.0548 32.4663 13.8126 30.8843 13.6054 29.0122C13.0214 28.9343 12.5722 28.4612 12.5722 27.8891V26.5657C12.5722 26.0037 13.0058 25.5371 13.5748 25.4471V24.8643C13.5748 21.9408 16.0883 19.5709 19.189 19.5709C22.2897 19.5709 24.8032 21.9408 24.8032 24.8643V25.4471C25.3722 25.5371 25.8058 26.0037 25.8058 26.5657V27.8891C25.8058 28.4612 25.3566 28.9343 24.7727 29.0122C24.5654 30.8843 23.3232 32.4663 21.5951 33.2403Z" fill="white"/>
</mask>
<g mask="url(#mask18_3_1088)">
<path fill-rule="evenodd" clip-rule="evenodd" d="M24.8032 27.0384V29.2124C24.8032 32.1359 22.2896 34.5059 19.1889 34.5059C16.0883 34.5059 13.5747 32.1359 13.5747 29.2124V27.0384V28.4562C13.5747 31.3797 16.0883 33.7497 19.1889 33.7497C22.2896 33.7497 24.8032 31.3797 24.8032 28.4562V27.0384Z" fill="black" fill-opacity="0.1"/>
</g>
<path fill-rule="evenodd" clip-rule="evenodd" d="M16.5014 34.9834H16.3819C12.3953 34.9834 9.16357 38.0305 9.16357 41.7893V42.6351H29.2144V41.7893C29.2144 38.0305 25.9827 34.9834 21.9961 34.9834H21.8766C21.8893 35.0764 21.8959 35.171 21.8959 35.267C21.8959 36.5721 20.684 37.6301 19.189 37.6301C17.694 37.6301 16.4821 36.5721 16.4821 35.267C16.4821 35.171 16.4887 35.0764 16.5014 34.9834Z" fill="#E6E6E6"/>
<mask id="mask19_3_1088" style="mask-type:luminance" maskUnits="userSpaceOnUse" x="9" y="34" width="21" height="9">
<path fill-rule="evenodd" clip-rule="evenodd" d="M16.5014 34.9834H16.3819C12.3953 34.9834 9.16357 38.0305 9.16357 41.7893V42.6351H29.2144V41.7893C29.2144 38.0305 25.9827 34.9834 21.9961 34.9834H21.8766C21.8893 35.0764 21.8959 35.171 21.8959 35.267C21.8959 36.5721 20.684 37.6301 19.189 37.6301C17.694 37.6301 16.4821 36.5721 16.4821 35.267C16.4821 35.171 16.4887 35.0764 16.5014 34.9834Z" fill="white"/>
</mask>
<g mask="url(#mask19_3_1088)">
<path d="M32.4227 32.2373H5.95557V42.6351H32.4227V32.2373Z" fill="#3C4F5C"/>
</g>
<path fill-rule="evenodd" clip-rule="evenodd" d="M21.5952 34.3433C22.2149 34.774 22.5977 35.3667 22.5977 36.021C22.5977 36.7021 22.1829 37.3165 21.5179 37.7507L20.9515 37.33L20.4924 37.3614L20.5926 37.0635L20.5848 37.0577C21.1964 36.7607 21.5952 36.2736 21.5952 35.7231V34.3433ZM16.783 34.2764C16.1045 34.7115 15.6802 35.3321 15.6802 36.021C15.6802 36.7203 16.1174 37.3493 16.8139 37.7852L17.4267 37.33L17.8858 37.3614L17.7855 37.0635L17.7933 37.0577C17.1817 36.7607 16.783 36.2736 16.783 35.7231V34.2764Z" fill="#F2F2F2"/>
<path fill-rule="evenodd" clip-rule="evenodd" d="M17.2959 30.2644C17.402 31.1616 18.2091 31.8592 19.189 31.8592C20.1719 31.8592 20.9809 31.1573 21.0829 30.2561C21.0912 30.1835 21.0052 30.0632 20.8976 30.0632C19.4044 30.0632 18.2604 30.0632 17.4933 30.0632C17.385 30.0632 17.2853 30.1746 17.2959 30.2644Z" fill="black" fill-opacity="0.7"/>
<mask id="mask20_3_1088" style="mask-type:luminance" maskUnits="userSpaceOnUse" x="17" y="30" width="5" height="2">
<path fill-rule="evenodd" clip-rule="evenodd" d="M17.2959 30.2644C17.402 31.1616 18.2091 31.8592 19.189 31.8592C20.1719 31.8592 20.9809 31.1573 21.0829 30.2561C21.0912 30.1835 21.0052 30.0632 20.8976 30.0632C19.4044 30.0632 18.2604 30.0632 17.4933 30.0632C17.385 30.0632 17.2853 30.1746 17.2959 30.2644Z" fill="white"/>
</mask>
<g mask="url(#mask20_3_1088)">
<path d="M20.2917 29.0234H18.1863C17.9095 29.0234 17.6851 29.235 17.6851 29.4961V30.0632C17.6851 30.3242 17.9095 30.5358 18.1863 30.5358H20.2917C20.5685 30.5358 20.7929 30.3242 20.7929 30.0632V29.4961C20.7929 29.235 20.5685 29.0234 20.2917 29.0234Z" fill="white"/>
</g>
<mask id="mask21_3_1088" style="mask-type:luminance" maskUnits="userSpaceOnUse" x="17" y="30" width="5" height="2">
<path fill-rule="evenodd" clip-rule="evenodd" d="M17.2959 30.2644C17.402 31.1616 18.2091 31.8592 19.189 31.8592C20.1719 31.8592 20.9809 31.1573 21.0829 30.2561C21.0912 30.1835 21.0052 30.0632 20.8976 30.0632C19.4044 30.0632 18.2604 30.0632 17.4933 30.0632C17.385 30.0632 17.2853 30.1746 17.2959 30.2644Z" fill="white"/>
</mask>
<g mask="url(#mask21_3_1088)">
<path d="M18.6878 33.1826C19.2968 33.1826 19.7906 32.717 19.7906 32.1428C19.7906 31.5685 19.2968 31.103 18.6878 31.103C18.0787 31.103 17.585 31.5685 17.585 32.1428C17.585 32.717 18.0787 33.1826 18.6878 33.1826Z" fill="#FF4F6D"/>
<path d="M19.6902 33.1826C20.2993 33.1826 20.793 32.717 20.793 32.1428C20.793 31.5685 20.2993 31.103 19.6902 31.103C19.0811 31.103 18.5874 31.5685 18.5874 32.1428C18.5874 32.717 19.0811 33.1826 19.6902 33.1826Z" fill="#FF4F6D"/>
</g>
<path fill-rule="evenodd" clip-rule="evenodd" d="M17.9858 28.4563C17.9858 28.8739 18.5245 29.2125 19.1889 29.2125C19.8533 29.2125 20.3919 28.8739 20.3919 28.4563" fill="black" fill-opacity="0.16"/>
<path d="M17.1797 25.6205C16.9239 25.6205 16.6709 25.8077 16.5322 25.9817C16.3929 25.8077 16.1405 25.6205 15.8847 25.6205C15.3344 25.6205 14.9783 25.9357 14.9783 26.3428C14.9783 26.8844 15.4206 27.2058 15.8847 27.5466C16.0505 27.6635 16.364 27.9626 16.4027 28.0282C16.4414 28.0937 16.6139 28.096 16.6617 28.0282C16.7096 27.9603 17.0137 27.6635 17.1797 27.5466C17.6436 27.2058 18.0862 26.8844 18.0862 26.3428C18.0862 25.9357 17.73 25.6205 17.1797 25.6205Z" fill="#FF5353" fill-opacity="0.8"/>
<path d="M22.4932 25.6205C22.2374 25.6205 21.9844 25.8077 21.8457 25.9817C21.7064 25.8077 21.454 25.6205 21.1982 25.6205C20.6479 25.6205 20.2917 25.9357 20.2917 26.3428C20.2917 26.8844 20.7341 27.2058 21.1982 27.5466C21.364 27.6635 21.6775 27.9626 21.7162 28.0282C21.7549 28.0937 21.9273 28.096 21.9752 28.0282C22.023 27.9603 22.3271 27.6635 22.4932 27.5466C22.957 27.2058 23.3996 26.8844 23.3996 26.3428C23.3996 25.9357 23.0435 25.6205 22.4932 25.6205Z" fill="#FF5353" fill-opacity="0.8"/>
<path fill-rule="evenodd" clip-rule="evenodd" d="M16.236 24.5002C15.6538 24.5256 14.7126 24.9244 14.7369 25.478C14.7377 25.4961 14.7659 25.504 14.7797 25.4901C15.0559 25.2104 17.0169 24.9277 17.7076 25.0775C17.7708 25.0912 17.8188 25.0324 17.7788 24.99C17.4357 24.6262 16.7576 24.477 16.236 24.5002Z" fill="black" fill-opacity="0.6"/>
<path fill-rule="evenodd" clip-rule="evenodd" d="M22.2418 24.5002C22.824 24.5256 23.7652 24.9244 23.7409 25.478C23.7401 25.4961 23.7119 25.504 23.6981 25.4901C23.4219 25.2104 21.4609 24.9277 20.7702 25.0775C20.707 25.0912 20.659 25.0324 20.699 24.99C21.0421 24.6262 21.7202 24.477 22.2418 24.5002Z" fill="black" fill-opacity="0.6"/>
<mask id="mask22_3_1088" style="mask-type:luminance" maskUnits="userSpaceOnUse" x="5" y="16" width="28" height="27">
<path d="M32.4225 16.168H5.95532V42.6351H32.4225V16.168Z" fill="white"/>
</mask>
<g mask="url(#mask22_3_1088)">
<path fill-rule="evenodd" clip-rule="evenodd" d="M20.9361 32.2532C20.6841 32.4701 20.4157 32.5676 20.0764 32.4994C20.018 32.4877 19.78 32.0704 19.1888 32.0704C18.5977 32.0704 18.3597 32.4877 18.3013 32.4994C17.962 32.5676 17.6936 32.4701 17.4416 32.2532C16.9678 31.8455 16.5739 31.2834 16.8106 30.67C16.934 30.3503 17.1346 29.9993 17.4996 29.8974C17.8894 29.7887 18.4366 29.8972 18.8294 29.8229C18.9567 29.7989 19.0957 29.7561 19.1888 29.6851C19.282 29.7561 19.421 29.7989 19.5482 29.8229C19.941 29.8972 20.4883 29.7887 20.878 29.8974C21.2431 29.9993 21.4437 30.3503 21.5671 30.67C21.8038 31.2834 21.4099 31.8455 20.9361 32.2532ZM24.8112 25.4315C24.4693 26.2255 24.6014 27.214 24.5381 28.0475C24.4867 28.725 24.3356 29.7405 23.6976 30.178C23.3713 30.4018 22.7774 30.7778 22.3511 30.6729C22.0576 30.6007 22.0263 29.8071 21.6406 29.5099C21.2031 29.173 20.6569 29.0249 20.1061 29.0478C19.8684 29.0577 19.3878 29.0553 19.1889 29.2276C18.9899 29.0553 18.5093 29.0577 18.2716 29.0478C17.7208 29.0249 17.1746 29.173 16.7371 29.5099C16.3514 29.8071 16.3201 30.6007 16.0267 30.6729C15.6003 30.7778 15.0064 30.4018 14.6801 30.178C14.042 29.7405 13.891 28.725 13.8396 28.0475C13.7763 27.214 13.9084 26.2255 13.5665 25.4315C13.4002 25.4315 13.5099 26.956 13.5099 26.956V28.8802C13.513 30.3253 14.4704 32.4883 16.5931 33.3142C17.1122 33.5162 18.2881 33.8442 19.1889 33.8442C20.0896 33.8442 21.2655 33.5474 21.7846 33.3454C23.9073 32.5195 24.8647 30.3253 24.8679 28.8802V26.956C24.8679 26.956 24.9776 25.4315 24.8112 25.4315Z" fill="#331B0C"/>
<mask id="mask23_3_1088" style="mask-type:luminance" maskUnits="userSpaceOnUse" x="13" y="25" width="12" height="9">
<path fill-rule="evenodd" clip-rule="evenodd" d="M20.9361 32.2532C20.6841 32.4701 20.4157 32.5676 20.0764 32.4994C20.018 32.4877 19.78 32.0704 19.1888 32.0704C18.5977 32.0704 18.3597 32.4877 18.3013 32.4994C17.962 32.5676 17.6936 32.4701 17.4416 32.2532C16.9678 31.8455 16.5739 31.2834 16.8106 30.67C16.934 30.3503 17.1346 29.9993 17.4996 29.8974C17.8894 29.7887 18.4366 29.8972 18.8294 29.8229C18.9567 29.7989 19.0957 29.7561 19.1888 29.6851C19.282 29.7561 19.421 29.7989 19.5482 29.8229C19.941 29.8972 20.4883 29.7887 20.878 29.8974C21.2431 29.9993 21.4437 30.3503 21.5671 30.67C21.8038 31.2834 21.4099 31.8455 20.9361 32.2532ZM24.8112 25.4315C24.4693 26.2255 24.6014 27.214 24.5381 28.0475C24.4867 28.725 24.3356 29.7405 23.6976 30.178C23.3713 30.4018 22.7774 30.7778 22.3511 30.6729C22.0576 30.6007 22.0263 29.8071 21.6406 29.5099C21.2031 29.173 20.6569 29.0249 20.1061 29.0478C19.8684 29.0577 19.3878 29.0553 19.1889 29.2276C18.9899 29.0553 18.5093 29.0577 18.2716 29.0478C17.7208 29.0249 17.1746 29.173 16.7371 29.5099C16.3514 29.8071 16.3201 30.6007 16.0267 30.6729C15.6003 30.7778 15.0064 30.4018 14.6801 30.178C14.042 29.7405 13.891 28.725 13.8396 28.0475C13.7763 27.214 13.9084 26.2255 13.5665 25.4315C13.4002 25.4315 13.5099 26.956 13.5099 26.956V28.8802C13.513 30.3253 14.4704 32.4883 16.5931 33.3142C17.1122 33.5162 18.2881 33.8442 19.1889 33.8442C20.0896 33.8442 21.2655 33.5474 21.7846 33.3454C23.9073 32.5195 24.8647 30.3253 24.8679 28.8802V26.956C24.8679 26.956 24.9776 25.4315 24.8112 25.4315Z" fill="white"/>
</mask>
<g mask="url(#mask23_3_1088)">
<path d="M34.0265 22.9738H7.55933V46.038H34.0265V22.9738Z" fill="#A55728"/>
</g>
<path fill-rule="evenodd" clip-rule="evenodd" d="M24.8536 25.514C25.2943 25.6824 25.6051 26.0899 25.6051 26.5658V27.7946C25.6051 28.2944 25.2623 28.7187 24.7862 28.8699C24.7014 29.9046 24.3011 30.8559 23.6758 31.6384C23.6968 31.7147 23.717 31.7921 23.7316 31.8751C23.7868 32.1895 23.7195 32.451 23.8965 32.7346C23.9424 32.8083 24.0151 32.8525 24.0491 32.9373C24.1026 33.071 24.0258 33.3715 24.2445 33.3716C24.556 33.3716 24.3823 32.8077 24.3043 32.6736C24.1515 32.4116 24.0576 32.3475 24.0654 32.0078C24.2404 32.1174 24.8204 32.3269 25.0126 32.2267C25.457 31.9953 24.3447 31.7601 24.2669 31.7112C24.4378 31.5538 24.6335 31.4702 24.788 31.2627C24.9142 31.0931 25.0292 30.8471 25.244 30.8372C25.363 30.8317 25.711 31.1098 25.8165 30.919C25.9132 30.7441 25.7048 30.7185 25.6233 30.6565C25.4727 30.5421 25.4388 30.656 25.4755 30.4549C25.5843 30.5649 25.7551 30.4954 25.8007 30.3588C25.8499 30.2116 25.6877 30.1676 25.6908 30.074C25.6896 30.1105 25.7743 29.5905 25.761 29.6072C25.8471 29.4999 26.1528 29.5332 26.3036 29.5486C26.5338 29.5721 26.5206 29.5786 26.63 29.7789C26.7183 29.941 26.9505 30.2683 27.0016 29.8395C27.0138 29.7369 26.9145 29.5177 26.8562 29.4295C26.7933 29.3342 26.6039 29.2741 26.5643 29.2C26.4696 29.0232 26.7813 28.6296 26.7286 28.3631C26.8382 28.4026 27.1153 29.0179 27.2498 28.5142C27.3206 28.2495 26.5975 27.6687 26.8974 27.579C27.1269 27.5104 27.3597 27.7893 27.4238 27.9612C27.4711 28.0886 27.4498 28.3619 27.5308 28.4673C27.8352 28.8645 27.8727 28.2082 27.8473 28.035C27.7913 27.6545 27.6484 27.3746 27.2836 27.2307C27.4135 27.0787 27.249 26.9578 27.1558 26.8626C27.3089 26.7061 28.3024 26.8725 28.0789 26.4536C28.025 26.3523 27.8302 26.3344 27.7314 26.2972C27.4816 26.2034 27.2316 26.0126 27.104 25.7715C27.2886 25.728 27.8338 25.8469 27.7622 25.4883C27.7058 25.2064 27.2205 25.2929 27.0325 25.3361C27.2022 25.24 27.5311 25.3196 27.5773 25.0581C27.6306 24.7572 27.2477 24.7673 27.068 24.8311C27.0257 24.5137 27.6225 24.2799 27.7912 24.037C27.8482 23.955 27.9386 23.927 27.866 23.7882C27.735 23.5383 27.3968 23.8908 27.2853 23.9857C27.3731 23.8318 27.6182 23.1914 27.581 23.0289C27.5263 22.7902 27.3451 22.7817 27.2012 22.9753C27.1078 23.1009 27.0819 23.4197 27.0326 23.5827C26.8282 23.4374 26.8178 23.606 26.8073 23.3756C26.8005 23.2263 27.008 22.9313 27.0611 22.7851C27.1068 22.6594 27.2283 22.4297 27.1556 22.3081C26.9777 22.011 26.8075 22.4188 26.7607 22.5587C26.6816 22.2363 26.9826 21.9862 27.0718 21.6673C27.126 21.4737 27.2699 20.9509 27.0206 20.858C26.6803 20.7312 26.8001 21.3265 26.7521 21.5196C26.7156 21.6671 26.6597 21.9051 26.5377 21.9777C26.5201 21.9882 26.2549 22.0101 26.2422 21.996C26.0684 21.8049 26.5467 21.3865 26.5714 21.2065C26.5938 21.0429 26.5273 20.9395 26.3647 20.9297C26.2836 20.9248 26.1522 21.0431 26.1146 21.0354C25.9663 21.005 26.1595 20.3654 26.1735 20.1879C26.1885 19.9985 26.1641 19.5099 25.8243 19.7356C25.8471 19.4807 25.8608 19.2406 25.8979 18.9896C25.9174 18.8574 26.0381 18.7396 25.8604 18.6336C25.6442 18.5046 25.5245 18.7746 25.4752 18.933C25.3904 19.2058 25.5655 19.6301 25.1586 19.6388C24.6909 19.6488 25.0139 19.1916 25.0368 18.8951C25.0496 18.7305 24.9353 18.2881 24.7098 18.5866C24.62 18.7056 24.6509 19.1249 24.6011 19.2656C24.4902 19.219 24.6745 18.8387 24.5781 18.7396C24.3715 18.5272 24.1982 18.8366 24.0668 18.8995C24.0583 18.763 24.0481 18.6263 24.042 18.4895C24.0327 18.2816 24.1678 17.844 24.0306 17.7005C23.7963 17.4558 23.6474 17.7413 23.5789 17.939C23.5174 18.1171 23.509 18.2929 23.2548 18.3171C23.2756 18.0603 23.0284 17.5197 23.151 17.3031C23.2064 17.2053 23.3193 17.2747 23.3694 17.1652C23.4518 16.9853 23.317 16.909 23.1704 16.9032C22.4894 16.8762 23.0138 17.7666 22.7725 17.9894C22.6623 17.891 22.7797 17.7896 22.6657 17.6495C22.5431 17.4987 22.3476 17.5115 22.1727 17.5797C22.167 17.4272 22.4096 16.3584 21.8639 16.8408C21.7283 16.961 21.7662 17.1615 21.6941 17.3027C21.6244 17.4392 21.4546 17.6428 21.3591 17.7536C21.308 17.5582 21.3864 17.316 21.4413 17.1235C21.4795 16.9897 21.7353 16.5748 21.6807 16.4388C21.5223 16.0449 21.0468 16.6958 20.9215 16.801C20.763 16.9342 20.1315 17.3724 19.9289 17.2396C19.8586 17.1936 19.9219 17.0231 19.826 16.944C19.7789 16.9052 19.5776 16.8871 19.5202 16.8921C19.5561 16.7509 19.4855 16.5682 19.3142 16.617C19.0987 16.6785 19.192 16.9798 19.0554 17.0898C18.8019 17.2945 18.5007 16.8902 18.2289 16.9016C18.2704 16.7357 18.5783 16.1395 18.0887 16.3208C17.9638 16.3671 17.8751 16.6376 17.844 16.75C17.7647 17.037 17.8218 17.0896 17.4923 17.1706C17.518 17.0042 17.4722 16.7974 17.5573 16.6487C17.6271 16.5269 17.989 16.2097 17.6036 16.1702C17.1284 16.1214 17.1751 16.8953 17.1169 17.157C16.6952 16.916 16.4177 17.2607 16.1665 17.5589C16.2113 17.4248 16.3222 16.0884 15.8693 16.4967C15.7398 16.6136 15.883 16.7866 15.8743 16.92C15.8665 17.041 15.8242 17.1489 15.7745 17.262C15.6947 17.4436 15.602 17.6294 15.4764 17.7842C15.3187 17.9788 15.3746 17.9941 15.1936 17.862C14.9505 17.6849 14.8351 17.2359 14.8471 16.9616C14.856 16.7574 14.967 16.3427 14.608 16.4387C14.2564 16.533 14.4427 17.1925 14.4781 17.4268C14.5163 17.6809 14.5418 17.9407 14.4965 18.1994C14.1973 17.9111 14.1537 18.5115 14.0937 18.6139C13.9956 18.7819 13.8062 18.8641 13.6591 18.9788C13.5789 18.7146 13.9003 18.4913 13.8365 18.2812C13.7169 17.8875 13.3783 18.4434 13.3039 18.5525C13.2419 18.6435 13.0398 19.1614 12.9666 19.2078C12.864 19.273 12.2042 18.9689 12.1374 18.911C12.0148 18.8047 12.0595 18.5071 11.9053 18.4394C11.4321 18.2317 11.7116 18.9814 11.8046 19.1364C12.047 19.5414 12.157 20.0303 12.1002 20.5074C12.0142 20.4789 11.9082 20.3835 11.8528 20.3111C11.7449 20.1703 11.7841 19.9457 11.6715 19.8397C11.3419 19.5297 11.3032 20.1117 11.33 20.2926C11.3802 20.6317 11.5597 20.7416 11.7088 21.0237C11.846 21.2837 11.6642 21.5973 11.6258 21.8862C11.282 21.5743 9.80164 21.8349 10.1825 22.3118C10.3808 22.5606 10.6155 22.087 10.844 22.099C11.2534 22.1204 11.4691 22.5996 11.4422 22.9353C11.3924 22.7558 11.1995 22.5797 11.0667 22.7988C10.9767 22.9475 11.1303 23.2015 11.2044 23.3491C11.1136 23.3071 10.6659 23.1109 10.5783 23.1449C10.2334 23.2786 10.7086 23.5373 10.8326 23.589C11.2561 23.7655 11.5231 23.9595 11.6547 24.4389C11.4173 24.3673 11.4587 24.2614 11.2986 24.1513C11.1516 24.0502 11.1241 24.1023 10.9888 24.0693C10.752 24.0115 10.4432 23.9344 10.1757 24.0392C9.97821 24.1166 9.64561 24.3521 9.58362 24.5733C9.50767 24.8449 9.66824 24.9142 9.87473 24.7758C10.1204 24.6115 10.1652 24.2933 10.5347 24.3069C10.712 24.3134 10.8877 24.401 10.9999 24.5267C11.0836 24.6206 11.1325 24.7565 11.2124 24.8571C11.2829 24.946 11.4695 25.0706 11.5089 25.1647C11.651 25.5046 11.381 25.807 11.1998 26.0451C11.1578 25.9927 10.8513 25.879 10.7877 25.8676C10.493 25.8145 10.383 25.943 10.5673 26.1996C10.6254 26.2805 10.7475 26.3145 10.8115 26.3881C10.8828 26.4702 10.923 26.596 10.9938 26.6852C11.1335 26.8614 11.3061 26.952 11.4728 27.0937C11.4113 27.1325 11.4181 27.0348 11.3623 27.055C11.3218 27.0698 11.2513 27.0403 11.2002 27.0564C11.1172 27.0823 11.1282 27.2187 11.0751 27.2387C10.7444 27.3629 10.4107 26.897 10.114 26.8819C9.95227 26.8736 9.81581 26.9758 9.89348 27.1675C9.94745 27.301 10.1812 27.3734 10.2981 27.4291C10.6235 27.5845 10.9475 27.7002 11.2954 27.5809C11.5759 27.8114 11.9129 27.9251 12.2654 27.9284C12.0637 28.0227 11.8643 28.1397 11.7939 28.3746C11.6747 28.2584 11.382 27.7175 11.2292 28.1419C11.1244 28.4337 11.6024 28.7914 11.8227 28.9228C11.5665 28.9942 11.3538 29.0086 11.0931 28.9802C10.9571 28.9655 10.6584 28.7936 10.7685 29.1454C10.887 29.525 11.5947 29.3544 11.8192 29.2887C11.8275 29.1755 10.7395 30.4333 11.5025 30.1857C11.7207 30.115 11.7417 29.713 12.0457 29.6779C12.3969 29.6372 12.4322 29.9687 12.6354 30.2115C12.7367 30.3327 13.2038 30.6052 13.1817 30.7092C13.1626 30.7992 12.9061 30.8506 12.8516 30.9765C12.7881 31.123 12.8168 31.2361 12.905 31.362C13.0591 31.5825 13.3421 31.6164 13.5658 31.7027C13.883 31.8251 13.998 31.9736 14.1402 32.2904C13.8895 32.3017 13.1758 32.986 13.6131 33.1078C13.776 33.1532 13.7507 33.0165 13.8185 32.9409C13.8459 32.8922 13.8734 32.8436 13.9009 32.7949C13.9468 32.6817 13.9976 32.6747 14.0532 32.774C14.0656 32.7712 14.2146 32.8108 14.2484 32.8128C14.4196 32.8226 14.5342 32.7001 14.6761 32.6339C14.7787 32.586 14.8791 32.5943 14.9564 32.484C14.9474 32.4967 15.0118 32.2466 15.013 32.2442C15.0406 32.184 15.1117 32.1925 15.1443 32.1276C14.2672 31.2688 13.6949 30.1313 13.5915 28.8699C13.1154 28.7187 12.7726 28.2944 12.7726 27.7946V26.5658C12.7726 26.0899 13.0834 25.6824 13.5242 25.514C13.5775 25.5495 13.6515 25.5142 13.6749 25.4345C13.6285 25.2921 14.0053 22.8016 14.9782 22.1379C15.3409 21.9074 17.2849 21.8903 19.2202 21.8915C21.1347 21.8928 23.0407 21.9099 23.3995 22.1379C24.3724 22.8016 24.7492 25.2921 24.7029 25.4345C24.7262 25.5142 24.8003 25.5495 24.8536 25.514Z" fill="#2E3257"/>
<mask id="mask24_3_1088" style="mask-type:luminance" maskUnits="userSpaceOnUse" x="9" y="16" width="20" height="18">
<path fill-rule="evenodd" clip-rule="evenodd" d="M24.8536 25.514C25.2943 25.6824 25.6051 26.0899 25.6051 26.5658V27.7946C25.6051 28.2944 25.2623 28.7187 24.7862 28.8699C24.7014 29.9046 24.3011 30.8559 23.6758 31.6384C23.6968 31.7147 23.717 31.7921 23.7316 31.8751C23.7868 32.1895 23.7195 32.451 23.8965 32.7346C23.9424 32.8083 24.0151 32.8525 24.0491 32.9373C24.1026 33.071 24.0258 33.3715 24.2445 33.3716C24.556 33.3716 24.3823 32.8077 24.3043 32.6736C24.1515 32.4116 24.0576 32.3475 24.0654 32.0078C24.2404 32.1174 24.8204 32.3269 25.0126 32.2267C25.457 31.9953 24.3447 31.7601 24.2669 31.7112C24.4378 31.5538 24.6335 31.4702 24.788 31.2627C24.9142 31.0931 25.0292 30.8471 25.244 30.8372C25.363 30.8317 25.711 31.1098 25.8165 30.919C25.9132 30.7441 25.7048 30.7185 25.6233 30.6565C25.4727 30.5421 25.4388 30.656 25.4755 30.4549C25.5843 30.5649 25.7551 30.4954 25.8007 30.3588C25.8499 30.2116 25.6877 30.1676 25.6908 30.074C25.6896 30.1105 25.7743 29.5905 25.761 29.6072C25.8471 29.4999 26.1528 29.5332 26.3036 29.5486C26.5338 29.5721 26.5206 29.5786 26.63 29.7789C26.7183 29.941 26.9505 30.2683 27.0016 29.8395C27.0138 29.7369 26.9145 29.5177 26.8562 29.4295C26.7933 29.3342 26.6039 29.2741 26.5643 29.2C26.4696 29.0232 26.7813 28.6296 26.7286 28.3631C26.8382 28.4026 27.1153 29.0179 27.2498 28.5142C27.3206 28.2495 26.5975 27.6687 26.8974 27.579C27.1269 27.5104 27.3597 27.7893 27.4238 27.9612C27.4711 28.0886 27.4498 28.3619 27.5308 28.4673C27.8352 28.8645 27.8727 28.2082 27.8473 28.035C27.7913 27.6545 27.6484 27.3746 27.2836 27.2307C27.4135 27.0787 27.249 26.9578 27.1558 26.8626C27.3089 26.7061 28.3024 26.8725 28.0789 26.4536C28.025 26.3523 27.8302 26.3344 27.7314 26.2972C27.4816 26.2034 27.2316 26.0126 27.104 25.7715C27.2886 25.728 27.8338 25.8469 27.7622 25.4883C27.7058 25.2064 27.2205 25.2929 27.0325 25.3361C27.2022 25.24 27.5311 25.3196 27.5773 25.0581C27.6306 24.7572 27.2477 24.7673 27.068 24.8311C27.0257 24.5137 27.6225 24.2799 27.7912 24.037C27.8482 23.955 27.9386 23.927 27.866 23.7882C27.735 23.5383 27.3968 23.8908 27.2853 23.9857C27.3731 23.8318 27.6182 23.1914 27.581 23.0289C27.5263 22.7902 27.3451 22.7817 27.2012 22.9753C27.1078 23.1009 27.0819 23.4197 27.0326 23.5827C26.8282 23.4374 26.8178 23.606 26.8073 23.3756C26.8005 23.2263 27.008 22.9313 27.0611 22.7851C27.1068 22.6594 27.2283 22.4297 27.1556 22.3081C26.9777 22.011 26.8075 22.4188 26.7607 22.5587C26.6816 22.2363 26.9826 21.9862 27.0718 21.6673C27.126 21.4737 27.2699 20.9509 27.0206 20.858C26.6803 20.7312 26.8001 21.3265 26.7521 21.5196C26.7156 21.6671 26.6597 21.9051 26.5377 21.9777C26.5201 21.9882 26.2549 22.0101 26.2422 21.996C26.0684 21.8049 26.5467 21.3865 26.5714 21.2065C26.5938 21.0429 26.5273 20.9395 26.3647 20.9297C26.2836 20.9248 26.1522 21.0431 26.1146 21.0354C25.9663 21.005 26.1595 20.3654 26.1735 20.1879C26.1885 19.9985 26.1641 19.5099 25.8243 19.7356C25.8471 19.4807 25.8608 19.2406 25.8979 18.9896C25.9174 18.8574 26.0381 18.7396 25.8604 18.6336C25.6442 18.5046 25.5245 18.7746 25.4752 18.933C25.3904 19.2058 25.5655 19.6301 25.1586 19.6388C24.6909 19.6488 25.0139 19.1916 25.0368 18.8951C25.0496 18.7305 24.9353 18.2881 24.7098 18.5866C24.62 18.7056 24.6509 19.1249 24.6011 19.2656C24.4902 19.219 24.6745 18.8387 24.5781 18.7396C24.3715 18.5272 24.1982 18.8366 24.0668 18.8995C24.0583 18.763 24.0481 18.6263 24.042 18.4895C24.0327 18.2816 24.1678 17.844 24.0306 17.7005C23.7963 17.4558 23.6474 17.7413 23.5789 17.939C23.5174 18.1171 23.509 18.2929 23.2548 18.3171C23.2756 18.0603 23.0284 17.5197 23.151 17.3031C23.2064 17.2053 23.3193 17.2747 23.3694 17.1652C23.4518 16.9853 23.317 16.909 23.1704 16.9032C22.4894 16.8762 23.0138 17.7666 22.7725 17.9894C22.6623 17.891 22.7797 17.7896 22.6657 17.6495C22.5431 17.4987 22.3476 17.5115 22.1727 17.5797C22.167 17.4272 22.4096 16.3584 21.8639 16.8408C21.7283 16.961 21.7662 17.1615 21.6941 17.3027C21.6244 17.4392 21.4546 17.6428 21.3591 17.7536C21.308 17.5582 21.3864 17.316 21.4413 17.1235C21.4795 16.9897 21.7353 16.5748 21.6807 16.4388C21.5223 16.0449 21.0468 16.6958 20.9215 16.801C20.763 16.9342 20.1315 17.3724 19.9289 17.2396C19.8586 17.1936 19.9219 17.0231 19.826 16.944C19.7789 16.9052 19.5776 16.8871 19.5202 16.8921C19.5561 16.7509 19.4855 16.5682 19.3142 16.617C19.0987 16.6785 19.192 16.9798 19.0554 17.0898C18.8019 17.2945 18.5007 16.8902 18.2289 16.9016C18.2704 16.7357 18.5783 16.1395 18.0887 16.3208C17.9638 16.3671 17.8751 16.6376 17.844 16.75C17.7647 17.037 17.8218 17.0896 17.4923 17.1706C17.518 17.0042 17.4722 16.7974 17.5573 16.6487C17.6271 16.5269 17.989 16.2097 17.6036 16.1702C17.1284 16.1214 17.1751 16.8953 17.1169 17.157C16.6952 16.916 16.4177 17.2607 16.1665 17.5589C16.2113 17.4248 16.3222 16.0884 15.8693 16.4967C15.7398 16.6136 15.883 16.7866 15.8743 16.92C15.8665 17.041 15.8242 17.1489 15.7745 17.262C15.6947 17.4436 15.602 17.6294 15.4764 17.7842C15.3187 17.9788 15.3746 17.9941 15.1936 17.862C14.9505 17.6849 14.8351 17.2359 14.8471 16.9616C14.856 16.7574 14.967 16.3427 14.608 16.4387C14.2564 16.533 14.4427 17.1925 14.4781 17.4268C14.5163 17.6809 14.5418 17.9407 14.4965 18.1994C14.1973 17.9111 14.1537 18.5115 14.0937 18.6139C13.9956 18.7819 13.8062 18.8641 13.6591 18.9788C13.5789 18.7146 13.9003 18.4913 13.8365 18.2812C13.7169 17.8875 13.3783 18.4434 13.3039 18.5525C13.2419 18.6435 13.0398 19.1614 12.9666 19.2078C12.864 19.273 12.2042 18.9689 12.1374 18.911C12.0148 18.8047 12.0595 18.5071 11.9053 18.4394C11.4321 18.2317 11.7116 18.9814 11.8046 19.1364C12.047 19.5414 12.157 20.0303 12.1002 20.5074C12.0142 20.4789 11.9082 20.3835 11.8528 20.3111C11.7449 20.1703 11.7841 19.9457 11.6715 19.8397C11.3419 19.5297 11.3032 20.1117 11.33 20.2926C11.3802 20.6317 11.5597 20.7416 11.7088 21.0237C11.846 21.2837 11.6642 21.5973 11.6258 21.8862C11.282 21.5743 9.80164 21.8349 10.1825 22.3118C10.3808 22.5606 10.6155 22.087 10.844 22.099C11.2534 22.1204 11.4691 22.5996 11.4422 22.9353C11.3924 22.7558 11.1995 22.5797 11.0667 22.7988C10.9767 22.9475 11.1303 23.2015 11.2044 23.3491C11.1136 23.3071 10.6659 23.1109 10.5783 23.1449C10.2334 23.2786 10.7086 23.5373 10.8326 23.589C11.2561 23.7655 11.5231 23.9595 11.6547 24.4389C11.4173 24.3673 11.4587 24.2614 11.2986 24.1513C11.1516 24.0502 11.1241 24.1023 10.9888 24.0693C10.752 24.0115 10.4432 23.9344 10.1757 24.0392C9.97821 24.1166 9.64561 24.3521 9.58362 24.5733C9.50767 24.8449 9.66824 24.9142 9.87473 24.7758C10.1204 24.6115 10.1652 24.2933 10.5347 24.3069C10.712 24.3134 10.8877 24.401 10.9999 24.5267C11.0836 24.6206 11.1325 24.7565 11.2124 24.8571C11.2829 24.946 11.4695 25.0706 11.5089 25.1647C11.651 25.5046 11.381 25.807 11.1998 26.0451C11.1578 25.9927 10.8513 25.879 10.7877 25.8676C10.493 25.8145 10.383 25.943 10.5673 26.1996C10.6254 26.2805 10.7475 26.3145 10.8115 26.3881C10.8828 26.4702 10.923 26.596 10.9938 26.6852C11.1335 26.8614 11.3061 26.952 11.4728 27.0937C11.4113 27.1325 11.4181 27.0348 11.3623 27.055C11.3218 27.0698 11.2513 27.0403 11.2002 27.0564C11.1172 27.0823 11.1282 27.2187 11.0751 27.2387C10.7444 27.3629 10.4107 26.897 10.114 26.8819C9.95227 26.8736 9.81581 26.9758 9.89348 27.1675C9.94745 27.301 10.1812 27.3734 10.2981 27.4291C10.6235 27.5845 10.9475 27.7002 11.2954 27.5809C11.5759 27.8114 11.9129 27.9251 12.2654 27.9284C12.0637 28.0227 11.8643 28.1397 11.7939 28.3746C11.6747 28.2584 11.382 27.7175 11.2292 28.1419C11.1244 28.4337 11.6024 28.7914 11.8227 28.9228C11.5665 28.9942 11.3538 29.0086 11.0931 28.9802C10.9571 28.9655 10.6584 28.7936 10.7685 29.1454C10.887 29.525 11.5947 29.3544 11.8192 29.2887C11.8275 29.1755 10.7395 30.4333 11.5025 30.1857C11.7207 30.115 11.7417 29.713 12.0457 29.6779C12.3969 29.6372 12.4322 29.9687 12.6354 30.2115C12.7367 30.3327 13.2038 30.6052 13.1817 30.7092C13.1626 30.7992 12.9061 30.8506 12.8516 30.9765C12.7881 31.123 12.8168 31.2361 12.905 31.362C13.0591 31.5825 13.3421 31.6164 13.5658 31.7027C13.883 31.8251 13.998 31.9736 14.1402 32.2904C13.8895 32.3017 13.1758 32.986 13.6131 33.1078C13.776 33.1532 13.7507 33.0165 13.8185 32.9409C13.8459 32.8922 13.8734 32.8436 13.9009 32.7949C13.9468 32.6817 13.9976 32.6747 14.0532 32.774C14.0656 32.7712 14.2146 32.8108 14.2484 32.8128C14.4196 32.8226 14.5342 32.7001 14.6761 32.6339C14.7787 32.586 14.8791 32.5943 14.9564 32.484C14.9474 32.4967 15.0118 32.2466 15.013 32.2442C15.0406 32.184 15.1117 32.1925 15.1443 32.1276C14.2672 31.2688 13.6949 30.1313 13.5915 28.8699C13.1154 28.7187 12.7726 28.2944 12.7726 27.7946V26.5658C12.7726 26.0899 13.0834 25.6824 13.5242 25.514C13.5775 25.5495 13.6515 25.5142 13.6749 25.4345C13.6285 25.2921 14.0053 22.8016 14.9782 22.1379C15.3409 21.9074 17.2849 21.8903 19.2202 21.8915C21.1347 21.8928 23.0407 21.9099 23.3995 22.1379C24.3724 22.8016 24.7492 25.2921 24.7029 25.4345C24.7262 25.5142 24.8003 25.5495 24.8536 25.514Z" fill="white"/>
</mask>
<g mask="url(#mask24_3_1088)">
<path d="M35.9312 16.168H9.46411V42.6351H35.9312V16.168Z" fill="#B58143"/>
</g>
<g filter="url(#filter2_d_3_1088)">
<path d="M19.1888 25.442C18.0822 25.442 17.9226 24.5833 15.6469 24.4617C13.3726 24.3649 12.6537 25.0013 12.6498 25.442C12.6535 25.8478 12.5367 26.9024 14.0121 28.1377C15.4931 29.604 17.0103 29.1068 17.5541 28.6278C18.0995 28.4065 18.7216 26.4202 19.1888 26.4222C19.6559 26.4243 20.278 28.4065 20.8235 28.6278C21.3673 29.1068 22.8845 29.604 24.3654 28.1377C25.8409 26.9024 25.724 25.8478 25.7277 25.442C25.7238 25.0013 25.005 24.3649 22.7307 24.4617C20.4549 24.5833 20.2953 25.442 19.1888 25.442Z" fill="#F4F4F4"/>
<path d="M18.0991 26.4222C18.1373 25.6984 16.8044 24.9251 15.3745 24.9518C13.9453 24.9801 13.7593 25.8454 13.7398 26.1772C13.7048 26.946 14.5786 28.6741 16.1919 28.6278C17.8051 28.5797 18.077 26.8999 18.0991 26.4222Z" fill="#2F383B"/>
<path d="M20.2786 26.4222C20.2404 25.6984 21.5733 24.9251 23.0032 24.9518C24.4324 24.9801 24.6184 25.8454 24.6379 26.1772C24.6729 26.946 23.799 28.6741 22.1858 28.6278C20.5726 28.5797 20.3007 26.8999 20.2786 26.4222Z" fill="#2F383B"/>
</g>
</g>
</g>
</g>
<defs>
<filter id="filter0_d_3_1088" x="24.2827" y="14.0103" width="13.6091" height="5.85358" filterUnits="userSpaceOnUse" color-interpolation-filters="sRGB">
<feFlood flood-opacity="0" result="BackgroundImageFix"/>
<feColorMatrix in="SourceAlpha" type="matrix" values="0 0 0 0 0 0 0 0 0 0 0 0 0 0 0 0 0 0 127 0" result="hardAlpha"/>
<feOffset dy="2"/>
<feColorMatrix type="matrix" values="0 0 0 0 0 0 0 0 0 0 0 0 0 0 0 0 0 0 0.2 0"/>
<feBlend mode="normal" in2="BackgroundImageFix" result="effect1_dropShadow_3_1088"/>
<feBlend mode="normal" in="SourceGraphic" in2="effect1_dropShadow_3_1088" result="shape"/>
</filter>
<filter id="filter1_d_3_1088" x="3.71338" y="9.05957" width="13.4729" height="6.03741" filterUnits="userSpaceOnUse" color-interpolation-filters="sRGB">
<feFlood flood-opacity="0" result="BackgroundImageFix"/>
<feColorMatrix in="SourceAlpha" type="matrix" values="0 0 0 0 0 0 0 0 0 0 0 0 0 0 0 0 0 0 127 0" result="hardAlpha"/>
<feOffset dy="2"/>
<feColorMatrix type="matrix" values="0 0 0 0 0 0 0 0 0 0 0 0 0 0 0 0 0 0 0.2 0"/>
<feBlend mode="normal" in2="BackgroundImageFix" result="effect1_dropShadow_3_1088"/>
<feBlend mode="normal" in="SourceGraphic" in2="effect1_dropShadow_3_1088" result="shape"/>
</filter>
<filter id="filter2_d_3_1088" x="12.6489" y="24.4519" width="13.0798" height="6.6604" filterUnits="userSpaceOnUse" color-interpolation-filters="sRGB">
<feFlood flood-opacity="0" result="BackgroundImageFix"/>
<feColorMatrix in="SourceAlpha" type="matrix" values="0 0 0 0 0 0 0 0 0 0 0 0 0 0 0 0 0 0 127 0" result="hardAlpha"/>
<feOffset dy="2"/>
<feColorMatrix type="matrix" values="0 0 0 0 0 0 0 0 0 0 0 0 0 0 0 0 0 0 0.16 0"/>
<feBlend mode="normal" in2="BackgroundImageFix" result="effect1_dropShadow_3_1088"/>
<feBlend mode="normal" in="SourceGraphic" in2="effect1_dropShadow_3_1088" result="shape"/>
</filter>
<linearGradient id="paint0_linear_3_1088" x1="234.682" y1="9.34793" x2="234.682" y2="355.411" gradientUnits="userSpaceOnUse">
<stop stop-color="white" stop-opacity="0.5"/>
<stop offset="0.705058" stop-opacity="0.5"/>
</linearGradient>
<linearGradient id="paint1_linear_3_1088" x1="241.112" y1="9.34793" x2="241.112" y2="355.411" gradientUnits="userSpaceOnUse">
<stop stop-color="white" stop-opacity="0.5"/>
<stop offset="0.705058" stop-opacity="0.5"/>
</linearGradient>
</defs>
</svg>
