<svg width="41" height="41" viewBox="0 0 41 41" fill="none" xmlns="http://www.w3.org/2000/svg">
<mask id="mask0_77_17460" style="mask-type:alpha" maskUnits="userSpaceOnUse" x="1" y="0" width="38" height="41">
<path d="M20.3622 40.674C30.4037 40.674 38.1464 33.1638 38.544 24.6687C38.7427 20.4236 38.5382 3.98606 38.5382 0.857145L2.17455 0.857132C2.17458 4.1164 1.74388 15.7248 2.18033 24.6687C2.57444 32.7448 9.72196 40.674 20.3622 40.674Z" fill="#E6E6E6"/>
</mask>
<g mask="url(#mask0_77_17460)">
<path d="M20.3544 40.8571C30.396 40.8571 38.5362 33.182 38.5362 23.7143C38.5362 14.2465 30.396 6.57143 20.3544 6.57143C10.3129 6.57143 2.17261 14.2465 2.17261 23.7143C2.17261 33.182 10.3129 40.8571 20.3544 40.8571Z" fill="#E6E6E6"/>
<mask id="mask1_77_17460" style="mask-type:luminance" maskUnits="userSpaceOnUse" x="2" y="6" width="37" height="35">
<path d="M20.3544 40.8571C30.396 40.8571 38.5362 33.182 38.5362 23.7143C38.5362 14.2465 30.396 6.57143 20.3544 6.57143C10.3129 6.57143 2.17261 14.2465 2.17261 23.7143C2.17261 33.182 10.3129 40.8571 20.3544 40.8571Z" fill="white"/>
</mask>
<g mask="url(#mask1_77_17460)">
<path d="M38.5362 6.57143H2.17261V40.8571H38.5362V6.57143Z" fill="#9B51E0"/>
</g>
<mask id="mask2_77_17460" style="mask-type:luminance" maskUnits="userSpaceOnUse" x="0" y="0" width="41" height="41">
<path d="M1.8343 23.6658C1.8343 33.2175 10.0467 40.9606 20.1772 40.9606C30.3078 40.9606 38.5202 33.2175 38.5202 23.6658H40.3545V0.606125H0V23.6658H1.8343Z" fill="white"/>
</mask>
<g mask="url(#mask2_77_17460)">
<path d="M32.3546 21.751V23.4622H32.7494C36.6741 23.4622 39.8557 26.462 39.8557 30.1625V31H20.116V30.1625C20.116 26.462 23.2976 23.4622 27.2223 23.4622H27.6171V21.751C25.9158 20.9889 24.6928 19.4316 24.4888 17.5885C23.9139 17.5118 23.4717 17.046 23.4717 16.4828V15.18C23.4717 14.6267 23.8986 14.1673 24.4587 14.0787V13.5049C24.4587 10.6268 26.9333 8.29364 29.9858 8.29364C33.0384 8.29364 35.513 10.6268 35.513 13.5049V14.0787C36.0731 14.1673 36.5 14.6267 36.5 15.18V16.4828C36.5 17.046 36.0578 17.5118 35.4829 17.5885C35.2788 19.4316 34.0559 20.9889 32.3546 21.751Z" fill="#D0C6AC"/>
<mask id="mask3_77_17460" style="mask-type:luminance" maskUnits="userSpaceOnUse" x="20" y="8" width="20" height="23">
<path d="M32.3546 21.751V23.4622H32.7494C36.6741 23.4622 39.8557 26.462 39.8557 30.1625V31H20.116V30.1625C20.116 26.462 23.2976 23.4622 27.2223 23.4622H27.6171V21.751C25.9158 20.9889 24.6928 19.4316 24.4888 17.5885C23.9139 17.5118 23.4717 17.046 23.4717 16.4828V15.18C23.4717 14.6267 23.8986 14.1673 24.4587 14.0787V13.5049C24.4587 10.6268 26.9333 8.29364 29.9858 8.29364C33.0384 8.29364 35.513 10.6268 35.513 13.5049V14.0787C36.0731 14.1673 36.5 14.6267 36.5 15.18V16.4828C36.5 17.046 36.0578 17.5118 35.4829 17.5885C35.2788 19.4316 34.0559 20.9889 32.3546 21.751Z" fill="white"/>
</mask>
<g mask="url(#mask3_77_17460)">
<path d="M46.1724 8.29364H20.116V34.3501H46.1724V8.29364Z" fill="#FFDBB4"/>
</g>
<mask id="mask4_77_17460" style="mask-type:luminance" maskUnits="userSpaceOnUse" x="20" y="8" width="20" height="23">
<path d="M32.3546 21.751V23.4622H32.7494C36.6741 23.4622 39.8557 26.462 39.8557 30.1625V31H20.116V30.1625C20.116 26.462 23.2976 23.4622 27.2223 23.4622H27.6171V21.751C25.9158 20.9889 24.6928 19.4316 24.4888 17.5885C23.9139 17.5118 23.4717 17.046 23.4717 16.4828V15.18C23.4717 14.6267 23.8986 14.1673 24.4587 14.0787V13.5049C24.4587 10.6268 26.9333 8.29364 29.9858 8.29364C33.0384 8.29364 35.513 10.6268 35.513 13.5049V14.0787C36.0731 14.1673 36.5 14.6267 36.5 15.18V16.4828C36.5 17.046 36.0578 17.5118 35.4829 17.5885C35.2788 19.4316 34.0559 20.9889 32.3546 21.751Z" fill="white"/>
</mask>
<g mask="url(#mask4_77_17460)">
<path fill-rule="evenodd" clip-rule="evenodd" d="M35.513 15.6453V17.7856C35.513 20.6638 33.0384 22.9969 29.9859 22.9969C26.9333 22.9969 24.4587 20.6638 24.4587 17.7856V15.6453V17.0412C24.4587 19.9193 26.9333 22.2525 29.9859 22.2525C33.0384 22.2525 35.513 19.9193 35.513 17.0412V15.6453Z" fill="black" fill-opacity="0.1"/>
</g>
<path fill-rule="evenodd" clip-rule="evenodd" d="M33.8666 23.5494C37.2606 24.0547 39.8557 26.8252 39.8557 30.1673V31H20.116V30.1673C20.116 26.8252 22.7112 24.0546 26.1052 23.5494C26.1942 24.0211 26.4442 24.4695 26.8508 24.8152L29.7214 27.256C29.8717 27.3838 30.1 27.3838 30.2502 27.256L33.1209 24.8152C33.1629 24.7795 33.2035 24.7424 33.2427 24.7039C33.5799 24.373 33.7874 23.9696 33.8666 23.5494V23.5494Z" fill="#E6E6E6"/>
<mask id="mask5_77_17460" style="mask-type:luminance" maskUnits="userSpaceOnUse" x="20" y="23" width="20" height="8">
<path fill-rule="evenodd" clip-rule="evenodd" d="M33.8666 23.5494C37.2606 24.0547 39.8557 26.8252 39.8557 30.1673V31H20.116V30.1673C20.116 26.8252 22.7112 24.0546 26.1052 23.5494C26.1942 24.0211 26.4442 24.4695 26.8508 24.8152L29.7214 27.256C29.8717 27.3838 30.1 27.3838 30.2502 27.256L33.1209 24.8152C33.1629 24.7795 33.2035 24.7424 33.2427 24.7039C33.5799 24.373 33.7874 23.9696 33.8666 23.5494V23.5494Z" fill="white"/>
</mask>
<g mask="url(#mask5_77_17460)">
<path d="M43.014 20.7635H16.9575V31H43.014V20.7635Z" fill="#262E33"/>
</g>
<path fill-rule="evenodd" clip-rule="evenodd" d="M28.604 20.1121C28.604 19.3926 29.2226 18.8093 29.9858 18.8093C30.7489 18.8093 31.3676 19.3926 31.3676 20.1121" fill="black" fill-opacity="0.7"/>
<path fill-rule="evenodd" clip-rule="evenodd" d="M28.8015 17.0412C28.8015 17.4523 29.3318 17.7856 29.9859 17.7856C30.64 17.7856 31.1703 17.4523 31.1703 17.0412" fill="black" fill-opacity="0.16"/>
<path d="M27.4196 16.6689C28.1828 16.6689 28.8014 16.0856 28.8014 15.3661C28.8014 14.6466 28.1828 14.0633 27.4196 14.0633C26.6565 14.0633 26.0378 14.6466 26.0378 15.3661C26.0378 16.0856 26.6565 16.6689 27.4196 16.6689Z" fill="white"/>
<path d="M32.5522 16.6689C33.3153 16.6689 33.934 16.0856 33.934 15.3661C33.934 14.6466 33.3153 14.0633 32.5522 14.0633C31.7891 14.0633 31.1704 14.6466 31.1704 15.3661C31.1704 16.0856 31.7891 16.6689 32.5522 16.6689Z" fill="white"/>
<path d="M27.4198 15.9245C27.7469 15.9245 28.012 15.6745 28.012 15.3661C28.012 15.0578 27.7469 14.8078 27.4198 14.8078C27.0928 14.8078 26.8276 15.0578 26.8276 15.3661C26.8276 15.6745 27.0928 15.9245 27.4198 15.9245Z" fill="black" fill-opacity="0.7"/>
<path d="M32.5522 15.9245C32.8792 15.9245 33.1443 15.6745 33.1443 15.3661C33.1443 15.0578 32.8792 14.8078 32.5522 14.8078C32.2251 14.8078 31.96 15.0578 31.96 15.3661C31.96 15.6745 32.2251 15.9245 32.5522 15.9245Z" fill="black" fill-opacity="0.7"/>
<path d="M26.0355 14.1683C26.1831 13.282 27.4255 12.6775 28.3241 13.0677C28.4231 13.1106 28.5404 13.0698 28.586 12.9764C28.6316 12.8831 28.5882 12.7725 28.4892 12.7295C27.3554 12.2373 25.8342 12.9775 25.6455 14.1105C25.6286 14.2121 25.7022 14.3073 25.8099 14.3232C25.9176 14.3392 26.0186 14.2698 26.0355 14.1683Z" fill="black" fill-opacity="0.6"/>
<path d="M33.9362 14.1683C33.7886 13.282 32.5462 12.6775 31.6476 13.0677C31.5486 13.1106 31.4313 13.0698 31.3857 12.9764C31.3401 12.8831 31.3834 12.7725 31.4825 12.7295C32.6163 12.2373 34.1375 12.9775 34.3262 14.1105C34.3431 14.2121 34.2695 14.3073 34.1618 14.3232C34.0541 14.3392 33.9531 14.2698 33.9362 14.1683Z" fill="black" fill-opacity="0.6"/>
<path fill-rule="evenodd" clip-rule="evenodd" d="M36.0715 8.88519C36.3479 9.5367 36.5 10.2478 36.5 10.9924V11.7368H23.4717V10.9924C23.4717 10.2455 23.6247 9.53242 23.9027 8.8793C23.2707 7.62646 23.1479 6.59744 23.5345 5.79225C24.2752 5.58038 25.1333 5.74847 26.1085 6.29651C27.0729 5.67755 28.2378 5.31577 29.4924 5.31577H30.4793C31.735 5.31577 32.9009 5.67819 33.8657 6.29815C34.8422 5.7488 35.7012 5.58017 36.4427 5.79225C36.8298 6.5987 36.7061 7.62968 36.0715 8.88519Z" fill="#D8D8D8"/>
<mask id="mask6_77_17460" style="mask-type:luminance" maskUnits="userSpaceOnUse" x="23" y="5" width="14" height="7">
<path fill-rule="evenodd" clip-rule="evenodd" d="M36.0715 8.88519C36.3479 9.5367 36.5 10.2478 36.5 10.9924V11.7368H23.4717V10.9924C23.4717 10.2455 23.6247 9.53242 23.9027 8.8793C23.2707 7.62646 23.1479 6.59744 23.5345 5.79225C24.2752 5.58038 25.1333 5.74847 26.1085 6.29651C27.0729 5.67755 28.2378 5.31577 29.4924 5.31577H30.4793C31.735 5.31577 32.9009 5.67819 33.8657 6.29815C34.8422 5.7488 35.7012 5.58017 36.4427 5.79225C36.8298 6.5987 36.7061 7.62968 36.0715 8.88519Z" fill="white"/>
</mask>
<g mask="url(#mask6_77_17460)">
<path d="M49.3309 5.31577H23.2744V31.3722H49.3309V5.31577Z" fill="#A7FFC4"/>
</g>
<path fill-rule="evenodd" clip-rule="evenodd" d="M26.1085 6.29651C25.1258 6.92727 24.3514 7.82511 23.9027 8.8793C23.2707 7.62646 23.1479 6.59744 23.5345 5.79225C24.2752 5.58038 25.1333 5.74847 26.1085 6.29651L26.1085 6.29651ZM36.0715 8.88518C35.6236 7.82937 34.8491 6.93 33.8657 6.29815C34.8422 5.7488 35.7012 5.58017 36.4427 5.79225C36.8298 6.5987 36.7061 7.62968 36.0715 8.88518Z" fill="black" fill-opacity="0.24"/>
<path fill-rule="evenodd" clip-rule="evenodd" d="M25.4321 6.80091C24.9907 7.18128 24.6095 7.62282 24.3038 8.11131C24.015 7.35676 23.9656 6.83462 24.1555 6.5449C24.4172 6.43821 24.8427 6.52354 25.4321 6.80091ZM35.6466 8.07717C35.3431 7.60004 34.9674 7.16842 34.5337 6.79576C35.1065 6.53038 35.5213 6.45006 35.7781 6.5548C35.9643 6.83885 35.9205 7.34631 35.6466 8.07717Z" fill="white" fill-opacity="0.3"/>
<path fill-rule="evenodd" clip-rule="evenodd" d="M23.5 10.6621C25.0737 9.57944 27.2381 9.0381 29.9932 9.0381C32.7481 9.0381 34.9083 9.57938 36.4736 10.6619V10.6619C36.6764 10.8022 36.7962 11.0251 36.7962 11.2622V14.0977C36.7962 14.3033 36.6194 14.4699 36.4014 14.4699C36.3268 14.4699 36.2538 14.45 36.1907 14.4125C34.5482 13.4352 32.5064 12.9466 30.0654 12.9466C27.6057 12.9466 25.5091 13.4427 23.7754 14.435V14.435C23.5891 14.5417 23.3462 14.4857 23.2331 14.31C23.1956 14.2517 23.1758 14.1849 23.1758 14.1168L23.1758 11.2635C23.1758 11.0257 23.2962 10.8023 23.5 10.6621Z" fill="black"/>
<path fill-rule="evenodd" clip-rule="evenodd" d="M23.5 10.6621C25.0737 9.57944 27.2381 9.0381 29.9932 9.0381C32.7481 9.0381 34.9083 9.57938 36.4736 10.6619V10.6619C36.6764 10.8022 36.7962 11.0251 36.7962 11.2622V14.0977C36.7962 14.3033 36.6194 14.4699 36.4014 14.4699C36.3268 14.4699 36.2538 14.45 36.1907 14.4125C34.5482 13.4352 32.5064 12.9466 30.0654 12.9466C27.6057 12.9466 25.5091 13.4427 23.7754 14.435V14.435C23.5891 14.5417 23.3462 14.4857 23.2331 14.31C23.1956 14.2517 23.1758 14.1849 23.1758 14.1168L23.1758 11.2635C23.1758 11.0257 23.2962 10.8023 23.5 10.6621Z" fill="#F4F4F4"/>
<path fill-rule="evenodd" clip-rule="evenodd" d="M28.1282 18.8779C28.3436 18.726 29.631 18.6677 29.863 18.5384C29.9355 18.498 29.9917 18.4571 30.035 18.4166C30.0783 18.4571 30.1345 18.498 30.207 18.5384C30.439 18.6677 31.7264 18.726 31.9418 18.8779C32.16 19.0318 32.3192 19.3848 32.3018 19.6609C32.2809 19.9921 31.8966 20.7824 30.9403 20.8734C30.7316 20.6545 30.4038 20.5132 30.035 20.5132C29.6662 20.5132 29.3384 20.6545 29.1297 20.8734C28.1734 20.7824 27.7891 19.9921 27.7682 19.6609C27.7508 19.3848 27.91 19.0318 28.1282 18.8779ZM31.8749 20.4756C31.875 20.4756 31.8752 20.4755 31.8753 20.4755C31.8752 20.4755 31.875 20.4756 31.8749 20.4756ZM28.1938 20.4752C28.1942 20.4753 28.1949 20.4756 28.1954 20.4758C28.1949 20.4756 28.1944 20.4754 28.1938 20.4752ZM35.9927 16.8537C35.9544 16.2995 35.8363 15.7525 35.7333 15.2066C35.7055 15.0597 35.5546 14.0633 35.4866 14.0633C35.4637 14.911 35.3847 15.7458 35.2828 16.5889C35.2523 16.8409 35.2204 17.093 35.1994 17.3459C35.1825 17.5502 35.2127 17.797 35.1602 17.9946C35.0932 18.2465 34.7575 18.4816 34.4965 18.5683C33.8451 18.7848 33.3017 17.8887 32.7454 17.6266C32.0231 17.2864 30.7815 17.2053 30.0431 17.6488C29.2885 17.2053 28.0469 17.2864 27.3246 17.6266C26.7683 17.8887 26.2249 18.7848 25.5735 18.5683C25.3125 18.4816 24.9767 18.2465 24.9098 17.9946C24.8573 17.797 24.8875 17.5502 24.8706 17.3459C24.8496 17.093 24.8177 16.8409 24.7872 16.5889C24.6854 15.7458 24.6063 14.911 24.5834 14.0633C24.5154 14.0633 24.3644 15.0597 24.3367 15.2066C24.2337 15.7525 24.1156 16.2995 24.0773 16.8537C24.0379 17.4232 24.0849 17.9873 24.2088 18.5453C24.2679 18.8119 24.337 19.0769 24.411 19.3401C24.4933 19.6326 24.3795 20.202 24.4163 20.5022C24.486 21.0702 24.7698 22.178 25.0885 22.6667C25.2426 22.9029 25.4231 23.0503 25.6248 23.2407C25.8188 23.4239 25.8999 23.7079 26.1094 23.903C26.4998 24.2667 27.0687 24.4832 27.653 24.5364C28.1772 24.9558 29.0486 25.2303 30.035 25.2303C31.0214 25.2303 31.8928 24.9558 32.417 24.5364C33.0013 24.4832 33.5702 24.2667 33.9606 23.903C34.1701 23.7079 34.2511 23.4239 34.4452 23.2407C34.6468 23.0503 34.8274 22.9029 34.9815 22.6667C35.3001 22.178 35.584 21.0702 35.6537 20.5022C35.6905 20.202 35.5767 19.6326 35.659 19.3401C35.733 19.0769 35.8021 18.8119 35.8612 18.5453C35.985 17.9873 36.0321 17.4232 35.9927 16.8537Z" fill="#5E7AA9"/>
<mask id="mask7_77_17460" style="mask-type:luminance" maskUnits="userSpaceOnUse" x="24" y="14" width="13" height="12">
<path fill-rule="evenodd" clip-rule="evenodd" d="M28.1282 18.8779C28.3436 18.726 29.631 18.6677 29.863 18.5384C29.9355 18.498 29.9917 18.4571 30.035 18.4166C30.0783 18.4571 30.1345 18.498 30.207 18.5384C30.439 18.6677 31.7264 18.726 31.9418 18.8779C32.16 19.0318 32.3192 19.3848 32.3018 19.6609C32.2809 19.9921 31.8966 20.7824 30.9403 20.8734C30.7316 20.6545 30.4038 20.5132 30.035 20.5132C29.6662 20.5132 29.3384 20.6545 29.1297 20.8734C28.1734 20.7824 27.7891 19.9921 27.7682 19.6609C27.7508 19.3848 27.91 19.0318 28.1282 18.8779ZM31.8749 20.4756C31.875 20.4756 31.8752 20.4755 31.8753 20.4755C31.8752 20.4755 31.875 20.4756 31.8749 20.4756ZM28.1938 20.4752C28.1942 20.4753 28.1949 20.4756 28.1954 20.4758C28.1949 20.4756 28.1944 20.4754 28.1938 20.4752ZM35.9927 16.8537C35.9544 16.2995 35.8363 15.7525 35.7333 15.2066C35.7055 15.0597 35.5546 14.0633 35.4866 14.0633C35.4637 14.911 35.3847 15.7458 35.2828 16.5889C35.2523 16.8409 35.2204 17.093 35.1994 17.3459C35.1825 17.5502 35.2127 17.797 35.1602 17.9946C35.0932 18.2465 34.7575 18.4816 34.4965 18.5683C33.8451 18.7848 33.3017 17.8887 32.7454 17.6266C32.0231 17.2864 30.7815 17.2053 30.0431 17.6488C29.2885 17.2053 28.0469 17.2864 27.3246 17.6266C26.7683 17.8887 26.2249 18.7848 25.5735 18.5683C25.3125 18.4816 24.9767 18.2465 24.9098 17.9946C24.8573 17.797 24.8875 17.5502 24.8706 17.3459C24.8496 17.093 24.8177 16.8409 24.7872 16.5889C24.6854 15.7458 24.6063 14.911 24.5834 14.0633C24.5154 14.0633 24.3644 15.0597 24.3367 15.2066C24.2337 15.7525 24.1156 16.2995 24.0773 16.8537C24.0379 17.4232 24.0849 17.9873 24.2088 18.5453C24.2679 18.8119 24.337 19.0769 24.411 19.3401C24.4933 19.6326 24.3795 20.202 24.4163 20.5022C24.486 21.0702 24.7698 22.178 25.0885 22.6667C25.2426 22.9029 25.4231 23.0503 25.6248 23.2407C25.8188 23.4239 25.8999 23.7079 26.1094 23.903C26.4998 24.2667 27.0687 24.4832 27.653 24.5364C28.1772 24.9558 29.0486 25.2303 30.035 25.2303C31.0214 25.2303 31.8928 24.9558 32.417 24.5364C33.0013 24.4832 33.5702 24.2667 33.9606 23.903C34.1701 23.7079 34.2511 23.4239 34.4452 23.2407C34.6468 23.0503 34.8274 22.9029 34.9815 22.6667C35.3001 22.178 35.584 21.0702 35.6537 20.5022C35.6905 20.202 35.5767 19.6326 35.659 19.3401C35.733 19.0769 35.8021 18.8119 35.8612 18.5453C35.985 17.9873 36.0321 17.4232 35.9927 16.8537Z" fill="white"/>
</mask>
<g mask="url(#mask7_77_17460)">
<path d="M44.5933 11.6438H18.5369V34.3501H44.5933V11.6438Z" fill="#ECDCBF"/>
</g>
<g filter="url(#filter0_d_77_17460)">
<path fill-rule="evenodd" clip-rule="evenodd" d="M28.3326 14.275C28.5666 14.2771 28.6773 14.3138 28.7172 14.544C28.7576 14.7771 28.7183 15.0392 28.6717 15.2688C28.6006 15.6195 28.4823 15.963 28.2071 16.2193C28.0621 16.3543 27.8852 16.4619 27.6971 16.5353C27.5972 16.5743 27.4917 16.6025 27.3863 16.6239C27.3554 16.6301 27.0922 16.6643 27.2537 16.6469C26.8769 16.6875 26.4682 16.6859 26.1536 16.4598C25.8049 16.2092 25.5662 15.8128 25.4612 15.4179C25.3997 15.1868 25.2707 14.6342 25.5065 14.4494C25.7767 14.2377 28.3326 14.275 28.3326 14.275ZM25.9607 13.6436C25.4238 13.6611 25.0654 13.75 24.8006 14.2558C24.3152 15.1828 25.1459 16.573 26.0727 16.9518C27.1561 17.3947 28.3664 16.9045 28.9392 16.0181C29.2426 15.5487 29.3959 14.8378 29.386 14.2963C29.3734 13.6051 28.8614 13.5859 28.2595 13.6011L25.9607 13.6436Z" fill="#D6EAF2"/>
<path fill-rule="evenodd" clip-rule="evenodd" d="M31.632 14.2748C31.398 14.2769 31.2873 14.3136 31.2474 14.5438C31.207 14.7769 31.2463 15.039 31.2929 15.2687C31.364 15.6193 31.4823 15.9628 31.7575 16.2191C31.9025 16.3541 32.0794 16.4617 32.2675 16.5352C32.3674 16.5741 32.4729 16.6023 32.5784 16.6237C32.6092 16.6299 32.8724 16.6641 32.711 16.6467C33.0877 16.6873 33.4964 16.6857 33.811 16.4596C34.1597 16.209 34.3985 15.8126 34.5035 15.4177C34.5649 15.1866 34.6939 14.634 34.4581 14.4492C34.1879 14.2375 31.632 14.2748 31.632 14.2748ZM34.0039 13.6434C34.5409 13.6609 34.8992 13.7499 35.1641 14.2557C35.6494 15.1826 34.8187 16.5728 33.8919 16.9516C32.8085 17.3945 31.5982 16.9044 31.0254 16.0179C30.7221 15.5485 30.5687 14.8376 30.5786 14.2961C30.5912 13.6049 31.1032 13.5858 31.7051 13.601L34.0039 13.6434Z" fill="#D6EAF2"/>
<path fill-rule="evenodd" clip-rule="evenodd" d="M25.0703 14.0565C24.7336 14.0743 24.3488 14.0786 24.0333 14.2158C23.6993 14.3612 23.6476 14.6904 24.0688 14.7357C24.2585 14.7562 24.4483 14.7224 24.6351 14.691C24.7881 14.6652 24.9958 14.6736 25.1404 14.6184C25.4097 14.5158 25.3924 14.0391 25.0703 14.0565Z" fill="#D6EAF2"/>
<path fill-rule="evenodd" clip-rule="evenodd" d="M34.8945 14.0565C35.2313 14.0743 35.6161 14.0786 35.9315 14.2158C36.2656 14.3612 36.3172 14.6904 35.8961 14.7357C35.7064 14.7562 35.5165 14.7224 35.3297 14.691C35.1768 14.6652 34.969 14.6736 34.8245 14.6184C34.5551 14.5158 34.5724 14.0391 34.8945 14.0565Z" fill="#D6EAF2"/>
<path fill-rule="evenodd" clip-rule="evenodd" d="M30.9838 14.2506C30.7917 14.0365 30.2911 13.913 29.9753 13.913C29.6594 13.913 29.1735 14.0365 28.9815 14.2506C28.8846 14.3585 28.8813 14.5029 29.0492 14.5705C29.2582 14.6548 29.4449 14.502 29.6122 14.4221C29.8262 14.3198 30.155 14.331 30.353 14.4221C30.5216 14.4995 30.707 14.6548 30.9161 14.5705C31.0839 14.5029 31.0806 14.3585 30.9838 14.2506Z" fill="#D6EAF2"/>
</g>
<path d="M14.7797 24.4247V26.0816H15.162C18.962 26.0816 22.0425 28.9861 22.0425 32.5689V33.3798H2.92993V32.5689C2.92993 28.9861 6.01044 26.0816 9.81045 26.0816H10.1927V24.4247C8.54545 23.6869 7.36139 22.179 7.16385 20.3945C6.60722 20.3203 6.17906 19.8692 6.17906 19.3239V18.0625C6.17906 17.5268 6.59233 17.082 7.13469 16.9962V16.4407C7.13469 13.654 9.53065 11.395 12.4862 11.395C15.4418 11.395 17.8377 13.654 17.8377 16.4407V16.9962C18.3801 17.082 18.7933 17.5268 18.7933 18.0625V19.3239C18.7933 19.8692 18.3652 20.3203 17.8086 20.3945C17.611 22.179 16.427 23.6869 14.7797 24.4247Z" fill="#D0C6AC"/>
<mask id="mask8_77_17460" style="mask-type:luminance" maskUnits="userSpaceOnUse" x="2" y="11" width="21" height="23">
<path d="M14.7797 24.4247V26.0816H15.162C18.962 26.0816 22.0425 28.9861 22.0425 32.5689V33.3798H2.92993V32.5689C2.92993 28.9861 6.01044 26.0816 9.81045 26.0816H10.1927V24.4247C8.54545 23.6869 7.36139 22.179 7.16385 20.3945C6.60722 20.3203 6.17906 19.8692 6.17906 19.3239V18.0625C6.17906 17.5268 6.59233 17.082 7.13469 16.9962V16.4407C7.13469 13.654 9.53065 11.395 12.4862 11.395C15.4418 11.395 17.8377 13.654 17.8377 16.4407V16.9962C18.3801 17.082 18.7933 17.5268 18.7933 18.0625V19.3239C18.7933 19.8692 18.3652 20.3203 17.8086 20.3945C17.611 22.179 16.427 23.6869 14.7797 24.4247Z" fill="white"/>
</mask>
<g mask="url(#mask8_77_17460)">
<path d="M28.1585 11.395H2.92993V36.6235H28.1585V11.395Z" fill="#D08B5B"/>
</g>
<mask id="mask9_77_17460" style="mask-type:luminance" maskUnits="userSpaceOnUse" x="2" y="11" width="21" height="23">
<path d="M14.7797 24.4247V26.0816H15.162C18.962 26.0816 22.0425 28.9861 22.0425 32.5689V33.3798H2.92993V32.5689C2.92993 28.9861 6.01044 26.0816 9.81045 26.0816H10.1927V24.4247C8.54545 23.6869 7.36139 22.179 7.16385 20.3945C6.60722 20.3203 6.17906 19.8692 6.17906 19.3239V18.0625C6.17906 17.5268 6.59233 17.082 7.13469 16.9962V16.4407C7.13469 13.654 9.53065 11.395 12.4862 11.395C15.4418 11.395 17.8377 13.654 17.8377 16.4407V16.9962C18.3801 17.082 18.7933 17.5268 18.7933 18.0625V19.3239C18.7933 19.8692 18.3652 20.3203 17.8086 20.3945C17.611 22.179 16.427 23.6869 14.7797 24.4247Z" fill="white"/>
</mask>
<g mask="url(#mask9_77_17460)">
<path fill-rule="evenodd" clip-rule="evenodd" d="M17.8378 18.513V20.5853C17.8378 23.372 15.4418 25.6311 12.4863 25.6311C9.53072 25.6311 7.13477 23.372 7.13477 20.5853V18.513V19.8645C7.13477 22.6512 9.53072 24.9102 12.4863 24.9102C15.4418 24.9102 17.8378 22.6512 17.8378 19.8645V18.513Z" fill="black" fill-opacity="0.1"/>
</g>
<path fill-rule="evenodd" clip-rule="evenodd" d="M15.7316 26.1082C19.2651 26.3812 22.0425 29.1716 22.0425 32.5736V33.3798H2.92993V32.5736C2.92993 29.1408 5.75782 26.3307 9.33697 26.1014C9.33409 26.135 9.33263 26.1689 9.33263 26.203C9.33263 27.2719 10.7659 28.1384 12.534 28.1384C14.302 28.1384 15.7353 27.2719 15.7353 26.203C15.7353 26.1712 15.7341 26.1396 15.7316 26.1082Z" fill="#E6E6E6"/>
<mask id="mask10_77_17460" style="mask-type:luminance" maskUnits="userSpaceOnUse" x="2" y="26" width="21" height="8">
<path fill-rule="evenodd" clip-rule="evenodd" d="M15.7316 26.1082C19.2651 26.3812 22.0425 29.1716 22.0425 32.5736V33.3798H2.92993V32.5736C2.92993 29.1408 5.75782 26.3307 9.33697 26.1014C9.33409 26.135 9.33263 26.1689 9.33263 26.203C9.33263 27.2719 10.7659 28.1384 12.534 28.1384C14.302 28.1384 15.7353 27.2719 15.7353 26.203C15.7353 26.1712 15.7341 26.1396 15.7316 26.1082Z" fill="white"/>
</mask>
<g mask="url(#mask10_77_17460)">
<path d="M25.1006 23.4686H-0.12793V33.3798H25.1006V23.4686Z" fill="#262E33"/>
</g>
<mask id="mask11_77_17460" style="mask-type:luminance" maskUnits="userSpaceOnUse" x="2" y="26" width="21" height="8">
<path fill-rule="evenodd" clip-rule="evenodd" d="M15.7316 26.1082C19.2651 26.3812 22.0425 29.1716 22.0425 32.5736V33.3798H2.92993V32.5736C2.92993 29.1408 5.75782 26.3307 9.33697 26.1014C9.33409 26.135 9.33263 26.1689 9.33263 26.203C9.33263 27.2719 10.7659 28.1384 12.534 28.1384C14.302 28.1384 15.7353 27.2719 15.7353 26.203C15.7353 26.1712 15.7341 26.1396 15.7316 26.1082Z" fill="white"/>
</mask>
<g mask="url(#mask11_77_17460)">
<g opacity="0.6">
<path d="M12.5337 28.7631C14.6256 28.7631 16.3214 27.6774 16.3214 26.3382C16.3214 24.9989 14.6256 23.9132 12.5337 23.9132C10.4419 23.9132 8.74609 24.9989 8.74609 26.3382C8.74609 27.6774 10.4419 28.7631 12.5337 28.7631Z" fill="black" fill-opacity="0.16"/>
</g>
</g>
<path fill-rule="evenodd" clip-rule="evenodd" d="M9.5032 26.0926C5.84577 26.2441 2.92993 29.0878 2.92993 32.5736L2.92993 33.3798H9.55832C9.23332 32.2914 9.04595 31.0109 9.04595 29.6406C9.04595 28.3497 9.21222 27.1386 9.5032 26.0926ZM15.5096 33.3798H22.0425V32.5736C22.0425 29.1186 19.178 26.2945 15.5661 26.0972C15.8562 27.1422 16.022 28.3516 16.022 29.6406C16.022 31.0109 15.8347 32.2914 15.5096 33.3798Z" fill="#3A4C5A"/>
<path fill-rule="evenodd" clip-rule="evenodd" d="M17.1687 31.2174L18.0819 30.5716C18.2198 30.4741 18.4098 30.4757 18.5459 30.5755L19.1755 31.0372L17.1687 31.2174Z" fill="#E6E6E6"/>
<path fill-rule="evenodd" clip-rule="evenodd" d="M9.52383 25.9915C9.14158 27.7335 9.30085 30.1962 10.0016 33.3798H8.47264L7.13477 30.1362L7.70814 29.3253L7.13477 28.7846L8.95046 26.0816C9.14423 26.0248 9.33535 25.9947 9.52383 25.9915Z" fill="#2F4351"/>
<path fill-rule="evenodd" clip-rule="evenodd" d="M15.4486 25.9915C15.8308 27.7335 15.6716 30.1962 14.9708 33.3798H16.4998L17.8376 30.1362L17.2643 29.3253L17.8376 28.7846L16.022 26.0816C15.8282 26.0248 15.6371 25.9947 15.4486 25.9915Z" fill="#2F4351"/>
<path fill-rule="evenodd" clip-rule="evenodd" d="M10.097 21.6313C10.2318 22.4983 11.2497 23.1983 12.4861 23.1983C13.7254 23.1983 14.7458 22.494 14.8752 21.553C14.8848 21.517 14.8537 21.3963 14.6674 21.3963C12.7574 21.3963 11.3145 21.3963 10.3048 21.3963C10.1337 21.3963 10.0846 21.508 10.097 21.6313Z" fill="black" fill-opacity="0.7"/>
<mask id="mask12_77_17460" style="mask-type:luminance" maskUnits="userSpaceOnUse" x="10" y="21" width="5" height="3">
<path fill-rule="evenodd" clip-rule="evenodd" d="M10.097 21.6313C10.2318 22.4983 11.2497 23.1983 12.4861 23.1983C13.7254 23.1983 14.7458 22.494 14.8752 21.553C14.8848 21.517 14.8537 21.3963 14.6674 21.3963C12.7574 21.3963 11.3145 21.3963 10.3048 21.3963C10.1337 21.3963 10.0846 21.508 10.097 21.6313Z" fill="white"/>
</mask>
<g mask="url(#mask12_77_17460)">
<path d="M13.5374 20.4052H11.5305C11.2667 20.4052 11.0527 20.6069 11.0527 20.8557V21.3963C11.0527 21.6451 11.2667 21.8468 11.5305 21.8468H13.5374C13.8013 21.8468 14.0152 21.6451 14.0152 21.3963V20.8557C14.0152 20.6069 13.8013 20.4052 13.5374 20.4052Z" fill="white"/>
</g>
<path fill-rule="evenodd" clip-rule="evenodd" d="M13.6315 22.3646C13.6325 22.372 13.633 22.3797 13.633 22.3874V23.1983C13.633 23.7457 13.1624 24.1894 12.5818 24.1894H12.4862C11.9057 24.1894 11.4351 23.7457 11.4351 23.1983V22.3874C11.4351 22.3797 11.4356 22.372 11.4366 22.3646C11.4356 22.3572 11.4351 22.3498 11.4351 22.3423C11.4351 22.1682 11.7132 22.027 12.0562 22.027C12.2483 22.027 12.4201 22.0713 12.534 22.1408C12.648 22.0713 12.8197 22.027 13.0118 22.027C13.3549 22.027 13.633 22.1682 13.633 22.3423C13.633 22.3498 13.6325 22.3572 13.6315 22.3646Z" fill="#FF4F6D"/>
<path fill-rule="evenodd" clip-rule="evenodd" d="M11.3394 19.8645C11.3394 20.2626 11.8528 20.5853 12.4861 20.5853C13.1194 20.5853 13.6329 20.2626 13.6329 19.8645" fill="black" fill-opacity="0.16"/>
<path d="M10.0016 18.7833C10.3183 18.7833 10.575 18.5413 10.575 18.2427C10.575 17.9441 10.3183 17.7021 10.0016 17.7021C9.68493 17.7021 9.42822 17.9441 9.42822 18.2427C9.42822 18.5413 9.68493 18.7833 10.0016 18.7833Z" fill="black" fill-opacity="0.6"/>
<path fill-rule="evenodd" clip-rule="evenodd" d="M13.8822 18.509C14.0329 18.1559 14.4116 17.8917 14.8724 17.8613C15.3315 17.8311 15.7442 18.0414 15.9463 18.3692C16.0064 18.4666 15.9377 18.5541 15.8577 18.4979C15.61 18.3239 15.2694 18.2275 14.9013 18.2518C14.5448 18.2753 14.2304 18.4076 14.0115 18.602C13.9314 18.6731 13.8381 18.6122 13.8822 18.509Z" fill="black" fill-opacity="0.6"/>
<path fill-rule="evenodd" clip-rule="evenodd" d="M9.67167 16.0936C9.11674 16.1178 8.21959 16.498 8.2427 17.0256C8.24346 17.0429 8.27037 17.0505 8.28351 17.0372C8.54678 16.7705 10.416 16.5011 11.0744 16.6439C11.1347 16.657 11.1804 16.6009 11.1423 16.5604C10.8153 16.2137 10.1688 16.0715 9.67167 16.0936Z" fill="black" fill-opacity="0.6"/>
<path fill-rule="evenodd" clip-rule="evenodd" d="M15.3962 16.0936C15.9511 16.1178 16.8483 16.498 16.8252 17.0256C16.8244 17.0429 16.7975 17.0505 16.7844 17.0372C16.5211 16.7705 14.6518 16.5011 13.9935 16.6439C13.9332 16.657 13.8874 16.6009 13.9256 16.5604C14.2526 16.2137 14.899 16.0715 15.3962 16.0936Z" fill="black" fill-opacity="0.6"/>
<mask id="mask13_77_17460" style="mask-type:luminance" maskUnits="userSpaceOnUse" x="-1" y="8" width="27" height="26">
<path d="M25.1004 8.15128H-0.128174V33.3798H25.1004V8.15128Z" fill="white"/>
</mask>
<g mask="url(#mask13_77_17460)">
<path fill-rule="evenodd" clip-rule="evenodd" d="M9.90469 10.6529C10.6719 10.5504 11.5112 10.4939 12.3908 10.4939C13.3806 10.4939 14.3195 10.5655 15.162 10.6936C17.3076 11.6427 18.7935 13.6979 18.7935 16.0803V17.616C17.6909 17.5825 16.3883 16.3293 15.6829 14.5304C14.7141 14.7139 13.5898 14.8188 12.3908 14.8188C11.2477 14.8188 10.1726 14.7234 9.23538 14.5556C8.53729 16.317 7.267 17.5491 6.1792 17.614V16.0803C6.1792 13.6632 7.70858 11.583 9.90469 10.6529Z" fill="black" fill-opacity="0.16"/>
<path fill-rule="evenodd" clip-rule="evenodd" d="M6.82179 17.0911C6.4412 17.267 6.17916 17.6359 6.17916 18.0625V19.2338C6.17916 19.7761 6.60259 20.2252 7.15472 20.3031C7.32131 22.1274 8.51751 23.6743 10.1928 24.4247V26.0816H9.81055C9.65896 26.0816 9.50852 26.0862 9.35937 26.0953C8.88952 25.8689 8.45092 25.5931 8.05128 25.2751C7.6395 25.3895 7.20362 25.4509 6.75254 25.4509C4.2192 25.4509 2.16553 23.5145 2.16553 21.126C2.16553 19.8277 2.77226 18.663 3.73296 17.8702C3.22795 17.2161 2.93003 16.4107 2.93003 15.5396C2.93003 13.5719 4.45055 11.9389 6.44424 11.6284C7.04102 10.1236 8.57978 9.05229 10.3839 9.05229C11.1498 9.05229 11.8678 9.24535 12.4863 9.58267C13.1048 9.24535 13.8228 9.05229 14.5887 9.05229C16.3928 9.05229 17.9316 10.1236 18.5284 11.6284C20.5221 11.9389 22.0426 13.5719 22.0426 15.5396C22.0426 16.4107 21.7447 17.2161 21.2396 17.8702C22.2003 18.663 22.8071 19.8277 22.8071 21.126C22.8071 23.5145 20.7534 25.4509 18.2201 25.4509C17.769 25.4509 17.3331 25.3895 16.9213 25.2751C16.5217 25.5931 16.0831 25.8689 15.6132 26.0953C15.4641 26.0862 15.3136 26.0816 15.1621 26.0816H14.7798V24.4247C16.4551 23.6743 17.6513 22.1274 17.8179 20.3031C18.37 20.2252 18.7934 19.7761 18.7934 19.2338V18.0625C18.7934 17.6821 18.5851 17.3476 18.2702 17.1549C18.1676 17.1195 18.0643 17.0752 17.961 17.0224C17.9208 17.0116 17.8797 17.0028 17.8378 16.9962V16.9554C17.0083 16.4776 16.1908 15.4653 15.6829 14.17C14.7141 14.3535 13.5898 14.4584 12.3907 14.4584C11.2477 14.4584 10.1726 14.363 9.23534 14.1952C8.73591 15.4553 7.94361 16.4445 7.13479 16.9293V16.9962C7.0371 17.0117 6.9436 17.0388 6.85594 17.0759C6.84456 17.0811 6.83317 17.0861 6.82179 17.0911Z" fill="#314756"/>
<mask id="mask14_77_17460" style="mask-type:luminance" maskUnits="userSpaceOnUse" x="2" y="9" width="21" height="18">
<path fill-rule="evenodd" clip-rule="evenodd" d="M6.82179 17.0911C6.4412 17.267 6.17916 17.6359 6.17916 18.0625V19.2338C6.17916 19.7761 6.60259 20.2252 7.15472 20.3031C7.32131 22.1274 8.51751 23.6743 10.1928 24.4247V26.0816H9.81055C9.65896 26.0816 9.50852 26.0862 9.35937 26.0953C8.88952 25.8689 8.45092 25.5931 8.05128 25.2751C7.6395 25.3895 7.20362 25.4509 6.75254 25.4509C4.2192 25.4509 2.16553 23.5145 2.16553 21.126C2.16553 19.8277 2.77226 18.663 3.73296 17.8702C3.22795 17.2161 2.93003 16.4107 2.93003 15.5396C2.93003 13.5719 4.45055 11.9389 6.44424 11.6284C7.04102 10.1236 8.57978 9.05229 10.3839 9.05229C11.1498 9.05229 11.8678 9.24535 12.4863 9.58267C13.1048 9.24535 13.8228 9.05229 14.5887 9.05229C16.3928 9.05229 17.9316 10.1236 18.5284 11.6284C20.5221 11.9389 22.0426 13.5719 22.0426 15.5396C22.0426 16.4107 21.7447 17.2161 21.2396 17.8702C22.2003 18.663 22.8071 19.8277 22.8071 21.126C22.8071 23.5145 20.7534 25.4509 18.2201 25.4509C17.769 25.4509 17.3331 25.3895 16.9213 25.2751C16.5217 25.5931 16.0831 25.8689 15.6132 26.0953C15.4641 26.0862 15.3136 26.0816 15.1621 26.0816H14.7798V24.4247C16.4551 23.6743 17.6513 22.1274 17.8179 20.3031C18.37 20.2252 18.7934 19.7761 18.7934 19.2338V18.0625C18.7934 17.6821 18.5851 17.3476 18.2702 17.1549C18.1676 17.1195 18.0643 17.0752 17.961 17.0224C17.9208 17.0116 17.8797 17.0028 17.8378 16.9962V16.9554C17.0083 16.4776 16.1908 15.4653 15.6829 14.17C14.7141 14.3535 13.5898 14.4584 12.3907 14.4584C11.2477 14.4584 10.1726 14.363 9.23534 14.1952C8.73591 15.4553 7.94361 16.4445 7.13479 16.9293V16.9962C7.0371 17.0117 6.9436 17.0388 6.85594 17.0759C6.84456 17.0811 6.83317 17.0861 6.82179 17.0911Z" fill="white"/>
</mask>
<g mask="url(#mask14_77_17460)">
<path d="M27.3941 9.05229H2.16553V34.2809H27.3941V9.05229Z" fill="#2C1B18"/>
</g>
<path fill-rule="evenodd" clip-rule="evenodd" d="M10.6877 21.6429C10.8963 21.4958 12.1428 21.4394 12.3675 21.3142C12.4376 21.2751 12.492 21.2355 12.534 21.1962C12.5759 21.2355 12.6304 21.2751 12.7005 21.3142C12.9252 21.4394 14.1716 21.4958 14.3802 21.6429C14.5915 21.7919 14.7457 22.1337 14.7288 22.401C14.7085 22.7217 14.3364 23.4869 13.4105 23.575C13.2084 23.363 12.8911 23.2263 12.534 23.2263C12.1769 23.2263 11.8595 23.363 11.6574 23.575C10.7316 23.4869 10.3595 22.7217 10.3392 22.401C10.3223 22.1337 10.4765 21.7919 10.6877 21.6429ZM14.3154 23.1899C14.3156 23.1898 14.3157 23.1897 14.3158 23.1897C14.3157 23.1897 14.3156 23.1898 14.3154 23.1899ZM10.7513 23.1894C10.7517 23.1896 10.7524 23.1898 10.7529 23.19C10.7524 23.1898 10.7518 23.1896 10.7513 23.1894ZM18.3024 19.683C18.2653 19.1464 18.151 18.6168 18.0512 18.0883C18.0243 17.946 17.8782 16.9813 17.8124 16.9813C17.7902 17.802 17.7137 18.6103 17.615 19.4266C17.5855 19.6706 17.5546 19.9147 17.5343 20.1595C17.5179 20.3573 17.5472 20.5963 17.4964 20.7877C17.4315 21.0316 17.1065 21.2592 16.8537 21.3432C16.223 21.5528 15.6969 20.6852 15.1582 20.4314C14.4589 20.1019 13.2568 20.0235 12.5418 20.4529C11.8112 20.0235 10.609 20.1019 9.90973 20.4314C9.37109 20.6852 8.84498 21.5528 8.21429 21.3432C7.96151 21.2592 7.63644 21.0316 7.57164 20.7877C7.52079 20.5963 7.55003 20.3573 7.53366 20.1595C7.51335 19.9147 7.48243 19.6706 7.45294 19.4266C7.35433 18.6103 7.2778 17.802 7.25562 16.9813C7.18975 16.9813 7.0436 17.946 7.01676 18.0883C6.91701 18.6168 6.80269 19.1464 6.76559 19.683C6.72745 20.2344 6.77298 20.7806 6.89288 21.3209C6.95013 21.579 7.01701 21.8356 7.08871 22.0904C7.1684 22.3736 7.05815 22.9249 7.09382 23.2156C7.16133 23.7656 7.43612 24.8381 7.7447 25.3113C7.89385 25.54 8.06867 25.6827 8.26391 25.867C8.45179 26.0444 8.53028 26.3194 8.73308 26.5084C9.11112 26.8605 9.66191 27.0701 10.2276 27.1216C10.7352 27.5277 11.5789 27.7935 12.534 27.7935C13.4891 27.7935 14.3327 27.5277 14.8403 27.1216C15.406 27.0701 15.9568 26.8605 16.3349 26.5084C16.5377 26.3194 16.6162 26.0444 16.8041 25.867C16.9993 25.6827 17.1741 25.54 17.3233 25.3113C17.6318 24.8381 17.9067 23.7656 17.9741 23.2156C18.0098 22.9249 17.8996 22.3736 17.9793 22.0904C18.051 21.8356 18.1178 21.579 18.1751 21.3209C18.295 20.7806 18.3405 20.2344 18.3024 19.683Z" fill="#5E7AA9"/>
<mask id="mask15_77_17460" style="mask-type:luminance" maskUnits="userSpaceOnUse" x="6" y="16" width="13" height="12">
<path fill-rule="evenodd" clip-rule="evenodd" d="M10.6877 21.6429C10.8963 21.4958 12.1428 21.4394 12.3675 21.3142C12.4376 21.2751 12.492 21.2355 12.534 21.1962C12.5759 21.2355 12.6304 21.2751 12.7005 21.3142C12.9252 21.4394 14.1716 21.4958 14.3802 21.6429C14.5915 21.7919 14.7457 22.1337 14.7288 22.401C14.7085 22.7217 14.3364 23.4869 13.4105 23.575C13.2084 23.363 12.8911 23.2263 12.534 23.2263C12.1769 23.2263 11.8595 23.363 11.6574 23.575C10.7316 23.4869 10.3595 22.7217 10.3392 22.401C10.3223 22.1337 10.4765 21.7919 10.6877 21.6429ZM14.3154 23.1899C14.3156 23.1898 14.3157 23.1897 14.3158 23.1897C14.3157 23.1897 14.3156 23.1898 14.3154 23.1899ZM10.7513 23.1894C10.7517 23.1896 10.7524 23.1898 10.7529 23.19C10.7524 23.1898 10.7518 23.1896 10.7513 23.1894ZM18.3024 19.683C18.2653 19.1464 18.151 18.6168 18.0512 18.0883C18.0243 17.946 17.8782 16.9813 17.8124 16.9813C17.7902 17.802 17.7137 18.6103 17.615 19.4266C17.5855 19.6706 17.5546 19.9147 17.5343 20.1595C17.5179 20.3573 17.5472 20.5963 17.4964 20.7877C17.4315 21.0316 17.1065 21.2592 16.8537 21.3432C16.223 21.5528 15.6969 20.6852 15.1582 20.4314C14.4589 20.1019 13.2568 20.0235 12.5418 20.4529C11.8112 20.0235 10.609 20.1019 9.90973 20.4314C9.37109 20.6852 8.84498 21.5528 8.21429 21.3432C7.96151 21.2592 7.63644 21.0316 7.57164 20.7877C7.52079 20.5963 7.55003 20.3573 7.53366 20.1595C7.51335 19.9147 7.48243 19.6706 7.45294 19.4266C7.35433 18.6103 7.2778 17.802 7.25562 16.9813C7.18975 16.9813 7.0436 17.946 7.01676 18.0883C6.91701 18.6168 6.80269 19.1464 6.76559 19.683C6.72745 20.2344 6.77298 20.7806 6.89288 21.3209C6.95013 21.579 7.01701 21.8356 7.08871 22.0904C7.1684 22.3736 7.05815 22.9249 7.09382 23.2156C7.16133 23.7656 7.43612 24.8381 7.7447 25.3113C7.89385 25.54 8.06867 25.6827 8.26391 25.867C8.45179 26.0444 8.53028 26.3194 8.73308 26.5084C9.11112 26.8605 9.66191 27.0701 10.2276 27.1216C10.7352 27.5277 11.5789 27.7935 12.534 27.7935C13.4891 27.7935 14.3327 27.5277 14.8403 27.1216C15.406 27.0701 15.9568 26.8605 16.3349 26.5084C16.5377 26.3194 16.6162 26.0444 16.8041 25.867C16.9993 25.6827 17.1741 25.54 17.3233 25.3113C17.6318 24.8381 17.9067 23.7656 17.9741 23.2156C18.0098 22.9249 17.8996 22.3736 17.9793 22.0904C18.051 21.8356 18.1178 21.579 18.1751 21.3209C18.295 20.7806 18.3405 20.2344 18.3024 19.683Z" fill="white"/>
</mask>
<g mask="url(#mask15_77_17460)">
<path d="M26.6294 14.6386H1.40088V36.6235H26.6294V14.6386Z" fill="#D6B370"/>
</g>
<g filter="url(#filter1_d_77_17460)">
<path fill-rule="evenodd" clip-rule="evenodd" d="M10.9581 17.0964C11.1981 17.0985 11.3115 17.1368 11.3524 17.377C11.3938 17.6203 11.3535 17.8938 11.3058 18.1334C11.2329 18.4993 11.1117 18.8578 10.8295 19.1252C10.6808 19.2661 10.4996 19.3783 10.3067 19.455C10.2043 19.4957 10.0962 19.5251 9.98811 19.5474C9.95651 19.5539 9.68672 19.5895 9.85219 19.5714C9.46604 19.6137 9.0471 19.612 8.7246 19.3761C8.36719 19.1147 8.12242 18.701 8.0148 18.2889C7.95183 18.0478 7.81951 17.4711 8.06128 17.2783C8.33821 17.0575 10.9581 17.0964 10.9581 17.0964Z" fill="black" fill-opacity="0.7"/>
<path style="mix-blend-mode:screen" fill-rule="evenodd" clip-rule="evenodd" d="M10.9581 17.0964C11.1981 17.0985 11.3115 17.1368 11.3524 17.377C11.3938 17.6203 11.3535 17.8938 11.3058 18.1334C11.2329 18.4993 11.1117 18.8578 10.8295 19.1252C10.6808 19.2661 10.4996 19.3783 10.3067 19.455C10.2043 19.4957 10.0962 19.5251 9.98811 19.5474C9.95651 19.5539 9.68672 19.5895 9.85219 19.5714C9.46604 19.6137 9.0471 19.612 8.7246 19.3761C8.36719 19.1147 8.12242 18.701 8.0148 18.2889C7.95183 18.0478 7.81951 17.4711 8.06128 17.2783C8.33821 17.0575 10.9581 17.0964 10.9581 17.0964Z" fill="url(#paint0_linear_77_17460)"/>
<path fill-rule="evenodd" clip-rule="evenodd" d="M14.0074 17.0961C13.7675 17.0983 13.6541 17.1366 13.6132 17.3768C13.5718 17.6201 13.612 17.8936 13.6598 18.1332C13.7327 18.4991 13.8539 18.8576 14.1361 19.125C14.2847 19.2658 14.466 19.3781 14.6588 19.4548C14.7612 19.4954 14.8693 19.5248 14.9774 19.5471C15.009 19.5536 15.2788 19.5893 15.1134 19.5712C15.4995 19.6135 15.9184 19.6118 16.2409 19.3759C16.5984 19.1145 16.8431 18.7008 16.9508 18.2887C17.0137 18.0476 17.146 17.4709 16.9043 17.2781C16.6273 17.0572 14.0074 17.0961 14.0074 17.0961Z" fill="black" fill-opacity="0.7"/>
<path style="mix-blend-mode:screen" fill-rule="evenodd" clip-rule="evenodd" d="M14.0074 17.0961C13.7675 17.0983 13.6541 17.1366 13.6132 17.3768C13.5718 17.6201 13.612 17.8936 13.6598 18.1332C13.7327 18.4991 13.8539 18.8576 14.1361 19.125C14.2847 19.2658 14.466 19.3781 14.6588 19.4548C14.7612 19.4954 14.8693 19.5248 14.9774 19.5471C15.009 19.5536 15.2788 19.5893 15.1134 19.5712C15.4995 19.6135 15.9184 19.6118 16.2409 19.3759C16.5984 19.1145 16.8431 18.7008 16.9508 18.2887C17.0137 18.0476 17.146 17.4709 16.9043 17.2781C16.6273 17.0572 14.0074 17.0961 14.0074 17.0961Z" fill="url(#paint1_linear_77_17460)"/>
<path fill-rule="evenodd" clip-rule="evenodd" d="M10.8855 17.1863C11.1121 17.1883 11.2193 17.2238 11.2579 17.4467C11.297 17.6724 11.259 17.9262 11.2138 18.1486C11.145 18.4881 11.0305 18.8207 10.764 19.0688C10.6236 19.1995 10.4523 19.3037 10.2702 19.3748C10.1735 19.4126 10.0713 19.4398 9.96924 19.4605C9.93938 19.4666 9.68455 19.4997 9.84085 19.4828C9.4761 19.5221 9.08039 19.5205 8.77576 19.3016C8.43816 19.0591 8.20697 18.6752 8.10531 18.2928C8.04583 18.0691 7.92085 17.534 8.14921 17.3551C8.41079 17.1502 10.8855 17.1863 10.8855 17.1863ZM8.58898 16.575C8.06908 16.5919 7.72212 16.678 7.46569 17.1677C6.99575 18.0652 7.8001 19.4112 8.69739 19.778C9.74639 20.2069 10.9183 19.7323 11.4728 18.874C11.7665 18.4195 11.915 17.7312 11.9055 17.2069C11.8933 16.5377 11.3975 16.5191 10.8148 16.5338L8.58898 16.575Z" fill="#252C2F"/>
<path fill-rule="evenodd" clip-rule="evenodd" d="M14.0803 17.1861C13.8536 17.1881 13.7465 17.2236 13.7079 17.4465C13.6687 17.6722 13.7068 17.926 13.7519 18.1484C13.8207 18.4879 13.9352 18.8205 14.2018 19.0686C14.3422 19.1993 14.5134 19.3035 14.6955 19.3746C14.7923 19.4124 14.8944 19.4396 14.9965 19.4603C15.0263 19.4664 15.2811 19.4995 15.1249 19.4827C15.4896 19.5219 15.8853 19.5203 16.19 19.3015C16.5276 19.0589 16.7588 18.675 16.8604 18.2927C16.9199 18.0689 17.0448 17.5339 16.8165 17.355C16.5549 17.15 14.0803 17.1861 14.0803 17.1861ZM16.3767 16.5748C16.8966 16.5917 17.2436 16.6778 17.5 17.1675C17.9699 18.065 17.1656 19.4111 16.2683 19.7779C15.2193 20.2067 14.0475 19.7321 13.4928 18.8738C13.1992 18.4193 13.0507 17.731 13.0602 17.2067C13.0724 16.5375 13.5682 16.5189 14.151 16.5337L16.3767 16.5748Z" fill="#252C2F"/>
<path fill-rule="evenodd" clip-rule="evenodd" d="M7.72696 16.9747C7.40091 16.992 7.02831 16.9961 6.72289 17.129C6.39944 17.2697 6.34946 17.5885 6.75721 17.6324C6.94086 17.6522 7.12472 17.6195 7.30555 17.589C7.45365 17.5641 7.65481 17.5722 7.79476 17.5188C8.05556 17.4194 8.03882 16.9579 7.72696 16.9747Z" fill="#252C2F"/>
<path fill-rule="evenodd" clip-rule="evenodd" d="M17.2391 16.9747C17.5651 16.992 17.9377 16.9961 18.2432 17.129C18.5666 17.2697 18.6166 17.5885 18.2088 17.6324C18.0252 17.6522 17.8413 17.6195 17.6605 17.589C17.5124 17.5641 17.3112 17.5722 17.1713 17.5188C16.9105 17.4194 16.9272 16.9579 17.2391 16.9747Z" fill="#252C2F"/>
<path fill-rule="evenodd" clip-rule="evenodd" d="M13.4522 17.1626C13.2662 16.9554 12.7815 16.8357 12.4758 16.8357C12.17 16.8357 11.6995 16.9554 11.5135 17.1626C11.4197 17.2671 11.4165 17.4069 11.5791 17.4724C11.7815 17.554 11.9622 17.4061 12.1242 17.3287C12.3314 17.2297 12.6497 17.2405 12.8415 17.3287C13.0048 17.4037 13.1842 17.554 13.3866 17.4724C13.5492 17.4069 13.546 17.2671 13.4522 17.1626Z" fill="#252C2F"/>
</g>
</g>
<path d="M26.9771 30.2639V32.2238H27.4293C31.9244 32.2238 35.5684 35.6596 35.5684 39.8979V40.8571H12.9597V39.8979C12.9597 35.6596 16.6037 32.2238 21.0988 32.2238H21.551V30.2639C19.6024 29.3911 18.2018 27.6074 17.9681 25.4964C17.3097 25.4086 16.8032 24.8751 16.8032 24.2301V22.7379C16.8032 22.1041 17.2921 21.578 17.9336 21.4766V20.8194C17.9336 17.523 20.7679 14.8507 24.2641 14.8507C27.7603 14.8507 30.5945 17.523 30.5945 20.8194V21.4766C31.2361 21.578 31.7249 22.1041 31.7249 22.7379V24.2301C31.7249 24.8751 31.2185 25.4086 30.56 25.4964C30.3263 27.6074 28.9257 29.3911 26.9771 30.2639Z" fill="#D0C6AC"/>
<mask id="mask16_77_17460" style="mask-type:luminance" maskUnits="userSpaceOnUse" x="12" y="14" width="24" height="27">
<path d="M26.9771 30.2639V32.2238H27.4293C31.9244 32.2238 35.5684 35.6596 35.5684 39.8979V40.8571H12.9597V39.8979C12.9597 35.6596 16.6037 32.2238 21.0988 32.2238H21.551V30.2639C19.6024 29.3911 18.2018 27.6074 17.9681 25.4964C17.3097 25.4086 16.8032 24.8751 16.8032 24.2301V22.7379C16.8032 22.1041 17.2921 21.578 17.9336 21.4766V20.8194C17.9336 17.523 20.7679 14.8507 24.2641 14.8507C27.7603 14.8507 30.5945 17.523 30.5945 20.8194V21.4766C31.2361 21.578 31.7249 22.1041 31.7249 22.7379V24.2301C31.7249 24.8751 31.2185 25.4086 30.56 25.4964C30.3263 27.6074 28.9257 29.3911 26.9771 30.2639Z" fill="white"/>
</mask>
<g mask="url(#mask16_77_17460)">
<path d="M42.8032 14.8507H12.9597V44.6941H42.8032V14.8507Z" fill="#F8D25C"/>
</g>
<mask id="mask17_77_17460" style="mask-type:luminance" maskUnits="userSpaceOnUse" x="12" y="14" width="24" height="27">
<path d="M26.9771 30.2639V32.2238H27.4293C31.9244 32.2238 35.5684 35.6596 35.5684 39.8979V40.8571H12.9597V39.8979C12.9597 35.6596 16.6037 32.2238 21.0988 32.2238H21.551V30.2639C19.6024 29.3911 18.2018 27.6074 17.9681 25.4964C17.3097 25.4086 16.8032 24.8751 16.8032 24.2301V22.7379C16.8032 22.1041 17.2921 21.578 17.9336 21.4766V20.8194C17.9336 17.523 20.7679 14.8507 24.2641 14.8507C27.7603 14.8507 30.5945 17.523 30.5945 20.8194V21.4766C31.2361 21.578 31.7249 22.1041 31.7249 22.7379V24.2301C31.7249 24.8751 31.2185 25.4086 30.56 25.4964C30.3263 27.6074 28.9257 29.3911 26.9771 30.2639Z" fill="white"/>
</mask>
<g mask="url(#mask17_77_17460)">
<path fill-rule="evenodd" clip-rule="evenodd" d="M30.5947 23.2708V25.7222C30.5947 29.0186 27.7605 31.6909 24.2643 31.6909C20.7681 31.6909 17.9338 29.0186 17.9338 25.7222V23.2708V24.8696C17.9338 28.166 20.7681 30.8382 24.2643 30.8382C27.7605 30.8382 30.5947 28.166 30.5947 24.8696V23.2708Z" fill="black" fill-opacity="0.1"/>
</g>
<path fill-rule="evenodd" clip-rule="evenodd" d="M28.1031 32.2553C32.283 32.5782 35.5684 35.8791 35.5684 39.9034V40.8571H12.9597V39.9034C12.9597 35.8426 16.3049 32.5185 20.5388 32.2472C20.5353 32.2871 20.5336 32.3271 20.5336 32.3675C20.5336 33.6319 22.2291 34.6569 24.3206 34.6569C26.4121 34.6569 28.1075 33.6319 28.1075 32.3675C28.1075 32.3299 28.106 32.2924 28.1031 32.2553Z" fill="#E6E6E6"/>
<mask id="mask18_77_17460" style="mask-type:luminance" maskUnits="userSpaceOnUse" x="12" y="32" width="24" height="9">
<path fill-rule="evenodd" clip-rule="evenodd" d="M28.1031 32.2553C32.283 32.5782 35.5684 35.8791 35.5684 39.9034V40.8571H12.9597V39.9034C12.9597 35.8426 16.3049 32.5185 20.5388 32.2472C20.5353 32.2871 20.5336 32.3271 20.5336 32.3675C20.5336 33.6319 22.2291 34.6569 24.3206 34.6569C26.4121 34.6569 28.1075 33.6319 28.1075 32.3675C28.1075 32.3299 28.106 32.2924 28.1031 32.2553Z" fill="white"/>
</mask>
<g mask="url(#mask18_77_17460)">
<path d="M39.186 29.1329H9.34253V40.8571H39.186V29.1329Z" fill="#262E33"/>
</g>
<mask id="mask19_77_17460" style="mask-type:luminance" maskUnits="userSpaceOnUse" x="12" y="32" width="24" height="9">
<path fill-rule="evenodd" clip-rule="evenodd" d="M28.1031 32.2553C32.283 32.5782 35.5684 35.8791 35.5684 39.9034V40.8571H12.9597V39.9034C12.9597 35.8426 16.3049 32.5185 20.5388 32.2472C20.5353 32.2871 20.5336 32.3271 20.5336 32.3675C20.5336 33.6319 22.2291 34.6569 24.3206 34.6569C26.4121 34.6569 28.1075 33.6319 28.1075 32.3675C28.1075 32.3299 28.106 32.2924 28.1031 32.2553Z" fill="white"/>
</mask>
<g mask="url(#mask19_77_17460)">
<g opacity="0.6">
<path d="M24.3208 35.3959C26.7953 35.3959 28.8013 34.1116 28.8013 32.5274C28.8013 30.9431 26.7953 29.6588 24.3208 29.6588C21.8463 29.6588 19.8403 30.9431 19.8403 32.5274C19.8403 34.1116 21.8463 35.3959 24.3208 35.3959Z" fill="black" fill-opacity="0.16"/>
</g>
</g>
<path d="M25.2816 27.2144H23.2468C23.0595 27.2144 22.9077 27.3576 22.9077 27.5342C22.9077 27.7108 23.0595 27.8539 23.2468 27.8539H25.2816C25.4689 27.8539 25.6208 27.7108 25.6208 27.5342C25.6208 27.3576 25.4689 27.2144 25.2816 27.2144Z" fill="black" fill-opacity="0.7"/>
<path fill-rule="evenodd" clip-rule="evenodd" d="M22.9077 24.8696C22.9077 25.3405 23.515 25.7222 24.2642 25.7222C25.0134 25.7222 25.6208 25.3405 25.6208 24.8696" fill="black" fill-opacity="0.16"/>
<path d="M21.3252 23.5906C21.6998 23.5906 22.0035 23.3042 22.0035 22.9511C22.0035 22.5979 21.6998 22.3116 21.3252 22.3116C20.9506 22.3116 20.647 22.5979 20.647 22.9511C20.647 23.3042 20.9506 23.5906 21.3252 23.5906Z" fill="black" fill-opacity="0.6"/>
<path fill-rule="evenodd" clip-rule="evenodd" d="M25.9161 23.266C26.0943 22.8484 26.5423 22.5359 27.0873 22.4999C27.6304 22.4641 28.1187 22.7129 28.3578 23.1007C28.4288 23.216 28.3476 23.3194 28.2529 23.253C27.9599 23.0471 27.557 22.9331 27.1216 22.9618C26.6998 22.9896 26.328 23.1461 26.069 23.3761C25.9743 23.4602 25.8639 23.3882 25.9161 23.266Z" fill="black" fill-opacity="0.6"/>
<path fill-rule="evenodd" clip-rule="evenodd" d="M21.4648 21.9302L21.3618 21.9731C20.7693 22.1949 19.8711 22.1019 19.3219 21.8533C19.2578 21.8243 19.3016 21.7305 19.3673 21.7352C21.0538 21.8579 22.1892 20.8671 22.5749 20.1962C22.5864 20.1763 22.6209 20.174 22.6295 20.1926C22.8903 20.7595 22.1265 21.6831 21.4648 21.9302Z" fill="black" fill-opacity="0.6"/>
<path fill-rule="evenodd" clip-rule="evenodd" d="M27.0642 21.9302L27.1672 21.9731C27.7598 22.1949 28.6579 22.1019 29.2071 21.8533C29.2712 21.8243 29.2274 21.7305 29.1617 21.7352C27.4752 21.8579 26.3398 20.8671 25.9541 20.1962C25.9427 20.1763 25.9081 20.174 25.8996 20.1926C25.6387 20.7595 26.4026 21.6831 27.0642 21.9302Z" fill="black" fill-opacity="0.6"/>
<mask id="mask20_77_17460" style="mask-type:luminance" maskUnits="userSpaceOnUse" x="9" y="11" width="31" height="30">
<path d="M39.186 11.0137H9.34253V40.8571H39.186V11.0137Z" fill="white"/>
</mask>
<g mask="url(#mask20_77_17460)">
<path fill-rule="evenodd" clip-rule="evenodd" d="M22.1371 26.9732C22.3839 26.7992 23.8583 26.7325 24.1241 26.5844C24.2071 26.5382 24.2714 26.4913 24.321 26.4449C24.3707 26.4913 24.4351 26.5382 24.518 26.5844C24.7838 26.7325 26.2583 26.7992 26.505 26.9732C26.7549 27.1495 26.9373 27.5539 26.9173 27.87C26.8934 28.2494 26.4532 29.1546 25.3579 29.2588C25.1189 29.008 24.7435 28.8463 24.321 28.8463C23.8987 28.8463 23.5232 29.008 23.2842 29.2588C22.1889 29.1546 21.7488 28.2494 21.7248 27.87C21.7049 27.5539 21.8873 27.1495 22.1371 26.9732ZM26.4284 28.8032C26.4285 28.8031 26.4287 28.8031 26.4289 28.803C26.4287 28.8031 26.4285 28.8031 26.4284 28.8032ZM22.2123 28.8027C22.2127 28.8028 22.2135 28.8031 22.2141 28.8033C22.2135 28.8031 22.2129 28.8029 22.2123 28.8027ZM31.1447 24.6548C31.1008 24.0201 30.9655 23.3936 30.8475 22.7684C30.8157 22.6001 30.6429 21.4589 30.565 21.4589C30.5387 22.4298 30.4482 23.386 30.3315 24.3515C30.2966 24.6402 30.2601 24.9289 30.2361 25.2185C30.2167 25.4525 30.2513 25.7353 30.1912 25.9616C30.1144 26.2501 29.73 26.5193 29.431 26.6187C28.6849 26.8667 28.0625 25.8403 27.4253 25.5401C26.5981 25.1504 25.1761 25.0576 24.3303 25.5655C23.466 25.0576 22.044 25.1504 21.2168 25.5401C20.5796 25.8403 19.9572 26.8667 19.2112 26.6187C18.9122 26.5193 18.5276 26.2501 18.451 25.9616C18.3908 25.7353 18.4254 25.4525 18.4061 25.2185C18.382 24.9289 18.3455 24.6402 18.3106 24.3515C18.1939 23.386 18.1034 22.4298 18.0772 21.4589C17.9992 21.4589 17.8264 22.6001 17.7946 22.7684C17.6766 23.3936 17.5414 24.0201 17.4975 24.6548C17.4524 25.3071 17.5062 25.9533 17.6481 26.5923C17.7158 26.8976 17.7949 27.2012 17.8797 27.5026C17.974 27.8376 17.8436 28.4898 17.8858 28.8337C17.9656 29.4842 18.2907 30.753 18.6557 31.3127C18.8321 31.5832 19.0389 31.7521 19.2699 31.9701C19.4921 32.18 19.585 32.5052 19.8249 32.7287C20.2721 33.1453 20.9236 33.3932 21.5928 33.4542C22.1933 33.9345 23.1913 34.2489 24.321 34.2489C25.4509 34.2489 26.4488 33.9345 27.0493 33.4542C27.7185 33.3932 28.37 33.1453 28.8173 32.7287C29.0571 32.5052 29.15 32.18 29.3723 31.9701C29.6032 31.7521 29.81 31.5832 29.9864 31.3127C30.3514 30.753 30.6765 29.4842 30.7563 28.8337C30.7985 28.4898 30.6681 27.8376 30.7624 27.5026C30.8472 27.2012 30.9263 26.8976 30.9941 26.5923C31.1358 25.9533 31.1897 25.3071 31.1447 24.6548Z" fill="#5E7AA9"/>
<mask id="mask21_77_17460" style="mask-type:luminance" maskUnits="userSpaceOnUse" x="17" y="21" width="15" height="14">
<path fill-rule="evenodd" clip-rule="evenodd" d="M22.1371 26.9732C22.3839 26.7992 23.8583 26.7325 24.1241 26.5844C24.2071 26.5382 24.2714 26.4913 24.321 26.4449C24.3707 26.4913 24.4351 26.5382 24.518 26.5844C24.7838 26.7325 26.2583 26.7992 26.505 26.9732C26.7549 27.1495 26.9373 27.5539 26.9173 27.87C26.8934 28.2494 26.4532 29.1546 25.3579 29.2588C25.1189 29.008 24.7435 28.8463 24.321 28.8463C23.8987 28.8463 23.5232 29.008 23.2842 29.2588C22.1889 29.1546 21.7488 28.2494 21.7248 27.87C21.7049 27.5539 21.8873 27.1495 22.1371 26.9732ZM26.4284 28.8032C26.4285 28.8031 26.4287 28.8031 26.4289 28.803C26.4287 28.8031 26.4285 28.8031 26.4284 28.8032ZM22.2123 28.8027C22.2127 28.8028 22.2135 28.8031 22.2141 28.8033C22.2135 28.8031 22.2129 28.8029 22.2123 28.8027ZM31.1447 24.6548C31.1008 24.0201 30.9655 23.3936 30.8475 22.7684C30.8157 22.6001 30.6429 21.4589 30.565 21.4589C30.5387 22.4298 30.4482 23.386 30.3315 24.3515C30.2966 24.6402 30.2601 24.9289 30.2361 25.2185C30.2167 25.4525 30.2513 25.7353 30.1912 25.9616C30.1144 26.2501 29.73 26.5193 29.431 26.6187C28.6849 26.8667 28.0625 25.8403 27.4253 25.5401C26.5981 25.1504 25.1761 25.0576 24.3303 25.5655C23.466 25.0576 22.044 25.1504 21.2168 25.5401C20.5796 25.8403 19.9572 26.8667 19.2112 26.6187C18.9122 26.5193 18.5276 26.2501 18.451 25.9616C18.3908 25.7353 18.4254 25.4525 18.4061 25.2185C18.382 24.9289 18.3455 24.6402 18.3106 24.3515C18.1939 23.386 18.1034 22.4298 18.0772 21.4589C17.9992 21.4589 17.8264 22.6001 17.7946 22.7684C17.6766 23.3936 17.5414 24.0201 17.4975 24.6548C17.4524 25.3071 17.5062 25.9533 17.6481 26.5923C17.7158 26.8976 17.7949 27.2012 17.8797 27.5026C17.974 27.8376 17.8436 28.4898 17.8858 28.8337C17.9656 29.4842 18.2907 30.753 18.6557 31.3127C18.8321 31.5832 19.0389 31.7521 19.2699 31.9701C19.4921 32.18 19.585 32.5052 19.8249 32.7287C20.2721 33.1453 20.9236 33.3932 21.5928 33.4542C22.1933 33.9345 23.1913 34.2489 24.321 34.2489C25.4509 34.2489 26.4488 33.9345 27.0493 33.4542C27.7185 33.3932 28.37 33.1453 28.8173 32.7287C29.0571 32.5052 29.15 32.18 29.3723 31.9701C29.6032 31.7521 29.81 31.5832 29.9864 31.3127C30.3514 30.753 30.6765 29.4842 30.7563 28.8337C30.7985 28.4898 30.6681 27.8376 30.7624 27.5026C30.8472 27.2012 30.9263 26.8976 30.9941 26.5923C31.1358 25.9533 31.1897 25.3071 31.1447 24.6548Z" fill="white"/>
</mask>
<g mask="url(#mask21_77_17460)">
<path d="M40.9948 18.6877H11.1514V44.6941H40.9948V18.6877Z" fill="#ECDCBF"/>
</g>
<path fill-rule="evenodd" clip-rule="evenodd" d="M26.9794 17.2359C26.1845 17.1619 25.243 17.1157 24.2997 17.1151C22.1174 17.1137 19.9255 17.3536 19.5165 17.6219C18.4195 18.3944 17.9946 21.2932 18.0469 21.4589C18.01 21.5892 17.8601 21.6175 17.8209 21.4589C17.7396 20.3613 17.8209 14.8214 24.2643 14.7441C30.7078 14.6668 30.7891 20.3613 30.7078 21.4589C30.6686 21.6175 30.5187 21.5892 30.4817 21.4589C30.534 21.2932 30.1091 18.3944 29.0122 17.6219C28.8133 17.4914 28.1929 17.3671 27.3571 17.2743L27.7687 16.3429L26.9794 17.2359Z" fill="#28354B"/>
<mask id="mask22_77_17460" style="mask-type:luminance" maskUnits="userSpaceOnUse" x="17" y="14" width="14" height="8">
<path fill-rule="evenodd" clip-rule="evenodd" d="M26.9794 17.2359C26.1845 17.1619 25.243 17.1157 24.2997 17.1151C22.1174 17.1137 19.9255 17.3536 19.5165 17.6219C18.4195 18.3944 17.9946 21.2932 18.0469 21.4589C18.01 21.5892 17.8601 21.6175 17.8209 21.4589C17.7396 20.3613 17.8209 14.8214 24.2643 14.7441C30.7078 14.6668 30.7891 20.3613 30.7078 21.4589C30.6686 21.6175 30.5187 21.5892 30.4817 21.4589C30.534 21.2932 30.1091 18.3944 29.0122 17.6219C28.8133 17.4914 28.1929 17.3671 27.3571 17.2743L27.7687 16.3429L26.9794 17.2359Z" fill="white"/>
</mask>
<g mask="url(#mask22_77_17460)">
<path d="M47.5512 14.6375H17.7078V44.481H47.5512V14.6375Z" fill="#C93305"/>
</g>
</g>
</g>
</g>
<defs>
<filter id="filter0_d_77_17460" x="23.7678" y="13.598" width="12.4292" height="5.51945" filterUnits="userSpaceOnUse" color-interpolation-filters="sRGB">
<feFlood flood-opacity="0" result="BackgroundImageFix"/>
<feColorMatrix in="SourceAlpha" type="matrix" values="0 0 0 0 0 0 0 0 0 0 0 0 0 0 0 0 0 0 127 0" result="hardAlpha"/>
<feOffset dy="2"/>
<feColorMatrix type="matrix" values="0 0 0 0 0 0 0 0 0 0 0 0 0 0 0 0 0 0 0.2 0"/>
<feBlend mode="normal" in2="BackgroundImageFix" result="effect1_dropShadow_77_17460"/>
<feBlend mode="normal" in="SourceGraphic" in2="effect1_dropShadow_77_17460" result="shape"/>
</filter>
<filter id="filter1_d_77_17460" x="6.46582" y="16.5308" width="12.0344" height="5.40765" filterUnits="userSpaceOnUse" color-interpolation-filters="sRGB">
<feFlood flood-opacity="0" result="BackgroundImageFix"/>
<feColorMatrix in="SourceAlpha" type="matrix" values="0 0 0 0 0 0 0 0 0 0 0 0 0 0 0 0 0 0 127 0" result="hardAlpha"/>
<feOffset dy="2"/>
<feColorMatrix type="matrix" values="0 0 0 0 0 0 0 0 0 0 0 0 0 0 0 0 0 0 0.1 0"/>
<feBlend mode="normal" in2="BackgroundImageFix" result="effect1_dropShadow_77_17460"/>
<feBlend mode="normal" in="SourceGraphic" in2="effect1_dropShadow_77_17460" result="shape"/>
</filter>
<linearGradient id="paint0_linear_77_17460" x1="180.32" y1="17.0937" x2="180.32" y2="193.271" gradientUnits="userSpaceOnUse">
<stop stop-color="white" stop-opacity="0.5"/>
<stop offset="1" stop-opacity="0.5"/>
</linearGradient>
<linearGradient id="paint1_linear_77_17460" x1="185.994" y1="17.0935" x2="185.994" y2="266.969" gradientUnits="userSpaceOnUse">
<stop stop-color="white" stop-opacity="0.5"/>
<stop offset="0.705058" stop-opacity="0.5"/>
</linearGradient>
</defs>
</svg>
